<svg width="48" height="46" fill="none" xmlns="http://www.w3.org/2000/svg"><g clip-path="url('#clip0_1744_3210')" fill-rule="evenodd" clip-rule="evenodd"><path d="M6.403 18.636c-.092.242-.234.42-.384.482-.357.148-.697.12-.915-.074-.133-.119-.215-.536-.214-1.094.001-.442.07-.637.276-.782.331-.235 1.03.02 1.207.439.098.233.115.806.03 1.03v-.001Zm-1.471-4.809c.073-.364.208-.473.581-.466.363.006.636.19.761.513.181.464.047 1.148-.267 1.364-.183.125-.588.203-.809.155-.07-.015-.16-.098-.203-.184-.097-.201-.134-1.023-.063-1.382Zm4.166 4.507c-.05-.84-.303-1.444-.797-1.907-.108-.1-.196-.227-.196-.28 0-.054.09-.234.2-.402.385-.581.548-1.362.456-2.173-.134-1.185-.697-1.938-1.747-2.338-.328-.126-.46-.136-1.665-.135-1.206 0-1.338.012-1.673.138-.615.233-.895.528-1.114 1.176-.182.54-.218 1.17-.219 3.9 0 2.77.041 3.378.27 3.993.332.889.763 1.165 1.955 1.251 1.362.099 2.393.038 2.95-.172 1.011-.383 1.664-1.644 1.58-3.05Zm1.018.944c.334 1.344.884 2.117 1.635 2.295.55.13 1.115-.033 1.559-.45.474-.444.616-.543.774-.544.216-.002.303.079.519.475.247.455.4.543.96.546.752.005.991-.272 1.194-1.384.307-1.679.358-4.984.109-7.013-.132-1.08-.357-1.622-.798-1.922-.224-.153-.302-.172-.689-.17-.503.004-.772.139-1.008.503-.298.463-.336 1.078-.177 2.865.068.774.1 1.504.103 2.317.003 1.085-.006 1.213-.095 1.476-.142.416-.374.636-.709.669a1.598 1.598 0 0 1-.436-.016c-.226-.058-.532-.48-.613-.848-.098-.449-.068-1.713.072-3.017.152-1.414.17-2.546.048-3.022-.175-.682-.588-.997-1.244-.948-.86.065-1.205.623-1.443 2.33-.062.447-.078.919-.078 2.282 0 1.934.052 2.506.317 3.576Zm31.599-4.566c.014-.36.05-.748.08-.861.068-.264.25-.39.557-.388.62.004.99.599.873 1.401-.07.465-.158.63-.438.81-.228.146-.626.23-.85.178-.187-.043-.253-.381-.222-1.14Zm-1.731 6.784c.243.117.908.114 1.205-.006.327-.132.573-.47.647-.89.042-.24.043-.478.006-.988-.096-1.295-.056-1.683.188-1.8.178-.085.372.05.493.344.058.136.196.659.309 1.16.3 1.34.504 1.809.908 2.103.17.123.255.137.877.135.605-.002.72-.02.95-.143.34-.185.49-.352.593-.663.246-.733.037-1.232-.97-2.313-.493-.531-.642-.79-.642-1.118 0-.227.032-.29.39-.778.468-.635.697-1.191.75-1.828.136-1.648-.614-2.918-2.036-3.45-.336-.126-.474-.138-1.653-.14-1.393-.004-1.612.038-1.992.369-.544.473-.741 1.206-.838 3.097-.069 1.32-.024 4.636.07 5.335.115.85.373 1.393.745 1.574Zm-9.75.041c1.467-.497 2.223-1.654 2.331-3.57.073-1.263-.247-2.163-.881-2.481-.376-.189-1.006-.262-1.569-.182-.624.09-.824.166-.982.381-.243.332-.304 1.143-.122 1.628.134.359.274.49.598.562.338.075.355.091.355.353 0 .421-.398.697-.914.634-.548-.068-.956-.48-1.215-1.225-.14-.401-.145-.444-.143-1.228.002-1.048.088-1.384.5-1.943.338-.46.602-.603 1.123-.606.43-.002.801.138 1.2.452.164.13.378.271.476.314.65.286 1.314-.544 1.315-1.643 0-.382-.08-.585-.36-.926-.287-.348-.883-.689-1.523-.87-.656-.188-1.826-.207-2.365-.04-.464.144-1.204.629-1.56 1.023-.552.609-1.019 1.536-1.255 2.489-.326 1.316-.23 2.847.264 4.187.52 1.411 1.444 2.393 2.597 2.755.368.117 1.717.076 2.13-.064Zm-9.72-6.825c.015-.361.051-.749.08-.862.07-.263.251-.388.559-.387.62.004.99.598.872 1.4-.069.465-.158.63-.438.81-.228.146-.625.23-.85.178-.186-.043-.252-.381-.222-1.14Zm-.524 6.777c.326-.132.572-.47.646-.89.043-.24.043-.477.006-.988-.096-1.295-.055-1.683.188-1.8.179-.084.373.05.494.344.057.136.196.659.308 1.16.301 1.34.503 1.809.908 2.103.17.124.255.137.877.135.606-.002.72-.019.95-.143.34-.185.49-.352.593-.662.246-.733.036-1.233-.969-2.314-.494-.531-.642-.79-.642-1.117 0-.227.031-.29.39-.778.468-.636.695-1.192.748-1.829.138-1.648-.612-2.918-2.034-3.45-.337-.126-.475-.137-1.654-.14-1.392-.003-1.611.038-1.992.37-.543.472-.741 1.205-.838 3.096-.068 1.32-.024 4.636.07 5.335.115.85.373 1.393.745 1.574.243.118.909.114 1.206-.006Zm18.423-1.502c0-.33-.021-.487-.105-.756-.193-.629-.545-.757-1.352-.494-.51.167-1.195.224-1.324.11-.165-.145-.277-.484-.254-.768.025-.314.199-.59.377-.602.248-.016.511.017.79.1.158.048.432.105.61.128.296.037.34.028.495-.11.258-.227.363-.604.362-1.296 0-.45-.015-.577-.095-.812-.148-.435-.297-.565-.643-.564a5.2 5.2 0 0 0-.767.095c-.812.16-1.105-.015-1.105-.661 0-.257.212-.619.368-.63.253-.018.552.025.91.132.774.232.968.217 1.193-.095.25-.344.33-1.327.152-1.856-.23-.685-.657-.827-2.348-.781-.815.022-1.143.053-1.285.122-.618.302-.925.824-1.067 1.813-.147 1.03-.176 5.311-.043 6.305.082.605.252 1.11.498 1.478.295.443.595.61 1.298.725.084.014.667.018 1.296.01.875-.012 1.188-.037 1.334-.108.526-.256.705-.632.705-1.485Zm6.334 7.943c-.62-.235-1.656-.326-2.581-.226-1.029.111-1.357.207-1.617.474-.401.412-.502 1.421-.202 2.024.221.445.452.609.985.698.556.093.584.114.584.438 0 .524-.655.866-1.504.788-.9-.084-1.574-.596-2-1.522-.23-.499-.239-.552-.236-1.527.003-1.302.145-1.72.822-2.415.557-.572.993-.75 1.85-.752.705-.003 1.319.172 1.975.562.27.161.623.336.784.39 1.07.355 2.163-.675 2.165-2.042 0-.474-.13-.726-.59-1.152-.465-.43-1.45-.854-2.519-1.083-1.071-.23-3-.254-3.885-.047-.763.179-1.98.782-2.568 1.272-.907.756-1.676 1.908-2.064 3.092-.538 1.636-.379 3.54.433 5.205a6.31 6.31 0 0 0 4.275 3.424c.606.144 2.826.094 3.506-.08 2.416-.617 3.66-2.055 3.84-4.438.116-1.569-.41-2.687-1.453-3.083Zm-31.745-2.132c1.544-1.687 1.707-2.49.626-3.075-.386-.208-.439-.216-1.534-.216-.997 0-1.175.02-1.474.164-.685.33-1.131 1.03-2.041 3.194-.461 1.098-.788 1.544-1.182 1.62-.786.152-1.073-.71-.861-2.597.147-1.315-.045-1.844-.813-2.237-.4-.204-1.906-.209-2.265-.007-.595.334-.86.829-1.056 1.966-.114.663-.132 1.29-.132 4.46 0 3.971.053 4.777.366 5.477.208.465.511.79.83.891.13.04.61.067 1.067.057.714-.015.885-.045 1.21-.21.303-.155.416-.271.567-.582.18-.37.19-.454.192-1.787.005-1.555.064-1.862.424-2.173.273-.235.547-.25.874-.044.342.215.5.585.774 1.819.485 2.182.706 2.574 1.612 2.856.444.139.668.157 1.627.133 1.04-.026 1.141-.042 1.552-.25.757-.381 1.029-1.036.767-1.847-.119-.368-.279-.563-1.394-1.698-1.474-1.5-1.674-1.8-1.721-2.591-.03-.504-.013-.596.197-1.003.319-.619.788-1.228 1.788-2.32Zm6.364-1.616c-.209-.909-.593-1.466-1.118-1.62-.41-.122-1.546-.095-1.869.044-.601.258-.885.687-1.047 1.582-.26 1.43-.197 8.44.087 9.827.17.831.498 1.237 1.17 1.447.105.033.479.062.833.065.975.007 1.465-.29 1.813-1.097.263-.612.32-1.812.283-5.945-.028-3.07-.057-3.884-.152-4.302Zm10.457-1.685c-1.17.06-1.666.4-1.727 1.18-.017.217.056.954.162 1.638.33 2.134.338 2.601.043 2.601-.202 0-.54-.505-1.321-1.974-1.056-1.987-1.255-2.308-1.736-2.808-.57-.592-.856-.685-1.943-.64-.829.034-1.076.118-1.435.486-.606.623-.695 1.367-.7 5.869-.004 4.253.055 5.051.43 5.82.2.404.31.534.578.68.286.154.444.18 1.097.179.854-.003 1.26-.134 1.54-.5.31-.403.346-.682.275-2.059-.1-1.898-.089-3.393.026-3.51.262-.27.776.505 2.163 3.265.51 1.013 1.026 1.973 1.149 2.133.122.159.4.38.619.49.365.184.456.197 1.171.168 1.146-.049 1.542-.3 1.863-1.183.083-.225.184-.668.226-.985.299-2.215.094-8.148-.334-9.683-.253-.908-.852-1.234-2.146-1.167Z" fill="#E1391E"/><path d="M1.175 36.865a2.987 2.987 0 0 0-.428.025.77.77 0 0 0-.157.04c-.08.033-.132.053-.198.157a.502.502 0 0 0-.051.285c.002.048.009.103.022.173.016.089.038.176.065.262.032.109.078.243.128.376a8.956 8.956 0 0 0 1.109 1.882 9.445 9.445 0 0 0 1.459 1.485c.538.446 1.11.848 1.71 1.202.632.374 1.288.703 1.963.986a19.78 19.78 0 0 0 2.197.783c2.406.683 4.87 1.099 8.514 1.312 1.758.103 3.79.159 5.872.161h.285c2.142-.002 4.324-.061 6.303-.182 3.993-.245 7.156-.743 10.26-1.535a16.93 16.93 0 0 0 2.655-.995 12.064 12.064 0 0 0 2.113-1.277 8.92 8.92 0 0 0 1.65-1.609c.51-.657.94-1.376 1.278-2.142.148-.358.277-.732.031-1.078a.81.81 0 0 0-.426-.255 1.97 1.97 0 0 0-.358-.05H2.268c-.417-.009-.835-.01-1.093-.006Z" fill="#E0A000"/><path d="M46.347 9.43c.27-.012.539-.032.71-.053.17-.021.243-.042.301-.062a.981.981 0 0 0 .143-.06c.207-.121.229-.231.26-.35a.85.85 0 0 0 .015-.154c0-.06-.004-.128-.017-.214a2.578 2.578 0 0 0-.07-.317 5.483 5.483 0 0 0-.147-.44 3.722 3.722 0 0 0-.559-.96 8.996 8.996 0 0 0-1.202-1.262 16.417 16.417 0 0 0-1.984-1.477 18.54 18.54 0 0 0-2.41-1.29c-1.496-.651-3.084-1.157-5.162-1.604C34.147.74 31.577.351 28.693.153A68.394 68.394 0 0 0 24.063 0c-1.478 0-2.957.046-4.37.137-2.916.189-5.55.574-7.688 1.021-2.137.449-3.777.96-5.327 1.62-.758.32-1.502.674-2.23 1.061-.607.323-1.197.678-1.766 1.066-.511.349-.95.692-1.341 1.106-.394.419-.728.893-.993 1.408a3.95 3.95 0 0 0-.209.444 2.237 2.237 0 0 0-.109.359c-.021.104-.03.194-.03.274 0 .08.009.152.023.217.042.16.107.298.303.445.054.038.116.075.19.107.073.033.158.064.259.09.1.026.218.049.362.064.143.016.312.024.48.024l44.73-.014Z" fill="#E0A006"/></g><defs><clipPath id="clip0_1744_3210"><path fill="#fff" d="M0 0h48v46H0z"/></clipPath></defs></svg>