<svg width="95" height="35" fill="none" xmlns="http://www.w3.org/2000/svg"><path d="M85.552 8.393c.037-.232.175-.427.276-.622.222-.446.443-.882.563-1.365.046-.204.13-.455-.055-.613-.212-.185-.443-.028-.637.084-.525.306-.987.687-1.439 1.077-1.383 1.179-2.619 2.516-3.753 3.945-2.103 2.656-3.957 5.478-5.654 8.402-.341.585-.682 1.17-.977 1.839.258 0 .405-.15.553-.26a34.96 34.96 0 0 0 2.37-1.987 66.872 66.872 0 0 0 3.551-3.51 37.65 37.65 0 0 0 2.444-2.84c.36-.464.646-.567 1.3-.446-.175.418-.46.761-.737 1.105a59.531 59.531 0 0 1-5.045 5.533c-1.559 1.495-3.219 2.878-4.999 4.094a1.903 1.903 0 0 0-.728.863c-.453 1.031-.877 2.08-1.218 3.157-.12.38-.221.77-.286 1.17-.046.26-.037.52.028.78.129.492.46.659.894.39.48-.288.849-.715 1.2-1.142.922-1.105 1.678-2.33 2.48-3.519 1.08-1.587 2.232-3.11 3.625-4.438a12.542 12.542 0 0 1 2.398-1.791c.47-.27.996-.409 1.54-.418.646-.01 1.171.213 1.522.78.018.037.064.055.092.074.028-.01.046-.01.055-.01.23-.556.683-.612 1.209-.584.562.037 1.134 0 1.706.01.323.008.36.064.193.352l-2.158 3.676c-1.217 2.08-2.444 4.15-3.597 6.267-.11.195-.276.427-.073.631.203.214.433.046.627-.074a6.409 6.409 0 0 0 1.402-1.198 32.685 32.685 0 0 0 2.185-2.748c.222-.306.674-.445 1.015-.315.11.046.138.12.092.213-.037.084-.092.158-.147.242a29.127 29.127 0 0 1-3.32 4.205c-.674.696-1.384 1.365-2.223 1.866-.452.27-.923.483-1.448.576-.886.157-1.559-.288-1.633-1.18-.018-.26-.055-.51-.083-.78-.221 0-.304.168-.424.28-.646.575-1.328 1.095-2.112 1.485a2.108 2.108 0 0 1-1.3.204c-.71-.12-1.209-.669-1.31-1.42-.055-.381-.028-.762-.028-1.189-.203.075-.286.223-.406.344-.636.677-1.29 1.327-2.084 1.81-.36.223-.747.371-1.153.455-.977.195-1.89-.557-2.066-1.652-.11-.725-.009-1.421.157-2.117.23-.994.581-1.96.904-2.925.037-.102.074-.204.101-.306.111-.371.093-.38-.304-.334-.046.01-.092.01-.138.018-1.07.075-.867-.009-1.402.854-.84 1.356-1.743 2.656-2.85 3.816-.849.891-1.79 1.643-2.868 2.228-.434.242-.904.38-1.402.437-1.005.102-1.743-.427-1.965-1.42-.203-.92-.064-1.82.203-2.703a14.936 14.936 0 0 1 1.937-4.038c.886-1.29 1.826-2.525 2.98-3.583.912-.845 1.917-1.55 3.07-2.006.406-.158.821-.25 1.255-.241 1.125.01 1.687.566 1.752 1.708.046.817-.102 1.597-.388 2.358-.165.446-.35.891-.562 1.319-.055.102-.166.222-.092.343.092.148.258.037.387.028.11 0 .212-.037.314-.056.452-.084.747-.334.959-.761a61.582 61.582 0 0 1 4.39-7.455c2.01-2.906 4.288-5.58 6.945-7.9 1.088-.948 2.185-1.904 3.523-2.517.525-.24 1.06-.417 1.641-.39.683.028.997.344 1.033 1.04.028.52-.092 1.012-.267 1.495-.092.241-.212.483-.323.715-.258.501-.59.66-1.217.585Zm-7.867 20.703c.249-.01.489-.195.719-.409.84-.761 1.494-1.69 2.084-2.646 1.172-1.875 2.297-3.769 3.45-5.654.092-.157.193-.315.249-.492.11-.352-.093-.584-.461-.529a1.64 1.64 0 0 0-.877.39c-.452.418-.94.799-1.355 1.253-.701.78-1.384 1.579-1.974 2.442-.876 1.272-1.697 2.581-2.232 4.048-.11.306-.212.622-.23.938-.028.427.184.668.627.659Zm-13.456-6.648c-.231.205-.379.483-.554.734-.811 1.17-1.55 2.377-2.047 3.723-.139.362-.23.742-.258 1.123-.065.826.498 1.253 1.263.956.378-.148.701-.38.996-.65 1.107-1.002 1.955-2.218 2.702-3.5.24-.408.231-.417-.212-.65-.618-.324-1.171-.724-1.577-1.318-.092-.139-.147-.306-.313-.418Zm4.011-2.172v-.186c-.046-.789-.516-1.086-1.254-.807a2.734 2.734 0 0 0-1.116.789c-.304.353-.526.752-.553 1.244-.074 1.142.747 1.782 1.54 2.126.203.083.314-.028.397-.195.249-.474.507-.956.664-1.476.147-.492.34-.975.322-1.495Zm-25.436-8.495c.138-.417.452-.455.82-.436.582.019 1.172.01 1.753.01.553 0 .581.046.286.538-.636 1.077-1.282 2.144-1.927 3.221-1.236 2.07-2.472 4.132-3.708 6.202-.083.148-.166.297-.184.473-.037.353.147.51.47.381.166-.065.323-.176.48-.279.894-.612 1.613-1.42 2.305-2.255.332-.4.655-.817.987-1.226.212-.27.775-.418 1.079-.288.083.037.11.112.065.186a6.166 6.166 0 0 1-.212.306c-.914 1.244-1.845 2.479-2.915 3.584-.96.993-1.955 1.977-3.228 2.58-.406.196-.83.354-1.282.289-.655-.093-1.097-.585-1.153-1.3-.018-.195 0-.4 0-.64-.221.074-.304.231-.424.343a6.845 6.845 0 0 1-1.798 1.28 3.024 3.024 0 0 1-1.43.298c-.895-.037-1.448-.585-1.494-1.495-.028-.483.037-.956.129-1.43.028-.13.102-.26.028-.436-.48.436-.904.9-1.402 1.29-.747.595-1.503 1.18-2.38 1.588-.793.362-1.604.622-2.499.474a2.578 2.578 0 0 1-2.14-2.293c-.101-1.077.148-2.09.526-3.073.323-.854.72-1.671 1.254-2.553-.47.111-.83.194-1.199.278-.157.037-.212.167-.276.288-.941 1.662-2.112 3.147-3.413 4.53-.645.687-1.328 1.328-2.093 1.876-.544.38-1.116.705-1.762.882-1.43.399-2.6-.427-2.711-1.922-.065-.882.073-1.736.34-2.562.61-1.839 1.587-3.473 2.786-4.986.849-1.067 1.79-2.042 2.868-2.868.812-.622 1.679-1.152 2.657-1.458.415-.13.839-.214 1.272-.149.987.13 1.587.79 1.642 1.801.055 1.03-.24 1.987-.636 2.916-.065.148-.185.287-.148.5.249.02.452-.083.655-.185.784-.38 1.457-.91 2.112-1.476.747-.65 1.402-1.383 2.177-1.996.737-.585 1.512-1.114 2.416-1.411a3.194 3.194 0 0 1 1.77-.065c.978.232 1.513 1.235 1.273 2.349-.184.854-.6 1.587-1.19 2.219-.193.204-.414.37-.682.455-.71.222-1.245-.26-1.088-.985.194-.919.728-1.522 1.65-1.726.231-.056.416-.093.407-.39-.01-.288-.166-.51-.452-.557-.259-.047-.517 0-.766.102-.553.223-.987.622-1.42 1.021-1.983 1.838-3.366 4.076-4.344 6.591-.185.465-.314.938-.277 1.449.065 1.058.701 1.532 1.716 1.235.756-.223 1.365-.697 1.936-1.217 1.494-1.364 2.758-2.943 3.957-4.577.996-1.355 2.057-2.664 3.283-3.815.886-.836 1.808-1.634 2.988-2.052.231-.083.47-.14.72-.167.553-.065 1.033.084 1.439.464.11.074.184.204.387.27Zm-1.227.678c-.166-.01-.35.065-.535.149-.48.222-.793.622-1.143.993-1.642 1.773-3.025 3.741-4.215 5.84-.378.668-.729 1.364-.848 2.144-.084.566.23.826.756.622.443-.167.793-.464 1.097-.817.738-.854 1.384-1.773 1.992-2.72a119.21 119.21 0 0 0 3.293-5.524c.267-.446.13-.687-.397-.687Zm-21.775 3.055c-.027.009-.064.018-.073.037-.913 1.28-1.771 2.6-2.37 4.057-.222.538-.397 1.104-.379 1.708.019.659.415.965 1.07.826.489-.102.867-.38 1.227-.706 1.079-.983 1.909-2.172 2.674-3.397.092-.14.185-.288.268-.437.156-.288.147-.325-.139-.436-.046-.019-.083-.028-.129-.046-.802-.316-1.503-.762-1.992-1.504-.046-.047-.083-.093-.157-.102Zm1.07-.817c-.01.204.055.408.175.594.388.594.978.872 1.642 1.002.203.037.314-.065.397-.241.415-.808.691-1.662.747-2.562.046-.725-.286-1.18-.969-1.096-.95.12-1.992 1.31-1.992 2.303Z" fill="#E41F2B"/><path d="M65.964 5.691c-.323-.213-.618-.157-.904-.12-.72.093-1.347.408-1.974.761-1.586.882-2.979 2.024-4.288 3.268-1.707 1.615-3.284 3.342-4.658 5.255-1.513 2.088-2.868 4.28-3.883 6.665-.645 1.532-1.125 3.11-1.337 4.763-.102.826 0 1.643.48 2.358.534.808 1.466 1.18 2.416.984a4.478 4.478 0 0 0 1.439-.603c1.217-.78 2.231-1.792 3.098-2.943.812-1.077 1.495-2.228 1.956-3.51a7.372 7.372 0 0 0 .424-1.94c.01-.093.01-.186 0-.278-.055-.947-.673-1.272-1.485-.762-.609.381-1.051.947-1.439 1.542a7.508 7.508 0 0 0-.986 2.385.65.65 0 0 1-.379.483c-1.19.576-2.213 1.383-3.154 2.303-.046.046-.092.083-.138.12-.019.019-.056.01-.083.019-.102-.065-.065-.167-.056-.25.231-1.625.683-3.176 1.56-4.578.885-1.42 2.047-2.544 3.55-3.286.673-.335 1.374-.548 2.14-.362.59.148 1.005.51 1.236 1.086.248.622.22 1.272.165 1.922-.101 1.234-.599 2.33-1.152 3.407a17.125 17.125 0 0 1-2.011 3.1c-1.319 1.625-2.859 2.99-4.759 3.881-1.079.51-2.232.706-3.412.427-1.522-.371-2.481-1.383-2.98-2.831-.571-1.653-.488-3.333.047-4.967.71-2.2 1.724-4.261 2.877-6.267a32.61 32.61 0 0 1 2.989-4.344c1.761-2.164 3.744-4.095 6.004-5.729 1.457-1.049 2.978-1.968 4.63-2.664a8.325 8.325 0 0 1 3.32-.669c.618.01 1.19.186 1.669.567.203.158.36.167.581.083 1.014-.399 2.075-.585 3.154-.622 1.54-.055 2.988.316 4.335 1.05 1.485.807 2.97 1.633 4.445 2.45.056.028.111.056.157.093.25.167.25.195.037.418-.581.594-1.171 1.179-1.743 1.792-.194.204-.36.185-.563.055L75.186 8.95c-.922-.557-1.844-1.123-2.766-1.662a10.79 10.79 0 0 0-3.265-1.234 2.64 2.64 0 0 0-1.144-.01c-.175.037-.295.112-.295.334-.037 1.894-.701 3.603-1.605 5.218-.692 1.235-1.586 2.312-2.776 3.12a5.906 5.906 0 0 1-1.66.78c-1.033.306-1.854-.289-1.918-1.375-.037-.678.12-1.318.369-1.94.691-1.727 1.844-3.129 3.163-4.4a15.624 15.624 0 0 1 2.398-1.876c.064-.074.138-.12.277-.214Zm.71 1.523c.018-.724 0-.752-.498-.473-.94.529-1.771 1.216-2.537 1.986a13.44 13.44 0 0 0-2.711 3.835c-.166.362-.304.742-.314 1.15-.009.65.462.994 1.07.8.72-.224 1.31-.66 1.863-1.17.95-.892 1.66-1.95 2.232-3.101.498-.994.821-2.061.895-3.027ZM42.648 32.447c-.47-.26-.867-.492-1.282-.696-1.798-.873-3.68-1.383-5.7-1.281-1.06.056-2.02.362-2.812 1.096-.12.11-.23.24-.341.37-.323.39-.332.4-.61-.009a5.257 5.257 0 0 0-1.807-1.624c-1.051-.594-2.195-.854-3.394-.956-2.223-.186-4.38.195-6.52.714-2.343.576-4.686 1.152-7.065 1.57-1.107.194-2.223.334-3.348.148-1.992-.334-3.68-1.179-4.842-2.896-.507-.743-.72-1.597-.867-2.47-.341-1.996-.074-3.946.535-5.849.747-2.349 1.918-4.475 3.339-6.48 1.272-1.801 2.748-3.416 4.353-4.902C14.242 7.372 16.4 5.84 18.9 4.865c1.023-.399 2.075-.659 3.19-.659 1.652.01 2.602 1.05 2.371 2.674a4.366 4.366 0 0 1-1.254 2.525c-.259.25-.554.436-.923.501-.48.084-.885-.195-.986-.677-.157-.752.24-1.616.931-2.006.286-.158.581-.287.904-.325.221-.027.304-.167.323-.38.046-.539-.25-.892-.793-.929-.388-.028-.766.047-1.135.167-1.402.474-2.628 1.272-3.744 2.238-2.555 2.219-4.685 4.818-6.54 7.64-1.226 1.866-2.176 3.881-2.766 6.044-.369 1.356-.646 2.739-.544 4.169.083 1.188.498 2.218 1.392 3.035.508.455 1.098.743 1.734.929a7.53 7.53 0 0 0 1.771.306c1.918.102 3.8-.186 5.663-.622 2.425-.575 4.842-1.151 7.267-1.727 1.771-.427 3.56-.724 5.377-.687 3.118.065 5.995.9 8.596 2.665.922.622 1.752 1.355 2.536 2.144.148.13.295.27.378.557ZM93.401 4.475c.047.158-.027.242-.082.335-1.356 2.255-3.145 4.066-5.451 5.338-1.494.826-3.071 1.402-4.787 1.56a7.021 7.021 0 0 1-2.112-.121c-.35-.075-.378-.14-.166-.409a31.055 31.055 0 0 1 1.688-1.968c.147-.158.323-.149.507-.149.673 0 1.347.028 2.03-.064 1.549-.214 2.96-.79 4.325-1.523 1.402-.761 2.647-1.736 3.809-2.832.046-.046.092-.083.138-.12.019-.028.046-.028.102-.047Zm-44.103 6.87c.35 0 .71-.009 1.06 0 .231.01.277.084.148.288-.406.678-.82 1.337-1.236 2.015a.416.416 0 0 1-.415.223c-.691 0-1.383.009-2.075-.01-.313 0-.36-.083-.194-.362.388-.65.785-1.29 1.181-1.94.101-.167.23-.232.424-.223.37.01.738.01 1.107.01Z" fill="#E41F2B"/></svg>