<svg width="114" height="25" fill="none" xmlns="http://www.w3.org/2000/svg"><path fill-rule="evenodd" clip-rule="evenodd" d="M16.37 18.474v2.362H1.676V4.594H4.32v13.88h12.05ZM14.313 10.5l2.938-5.611H14.46L12.256 10.5h2.057Zm24.024-3.24c-.952-1.507-2.344-2.774-3.983-3.637a11.69 11.69 0 0 0-5.41-1.324c-1.886 0-3.772.46-5.41 1.324-1.64.863-3.031 2.13-3.984 3.637a9.402 9.402 0 0 0-1.468 5c0 1.747.515 3.494 1.468 5 .953 1.507 2.344 2.774 3.983 3.637a11.69 11.69 0 0 0 5.41 1.324c1.886 0 3.772-.46 5.411-1.324 1.639-.863 3.03-2.13 3.983-3.637a9.398 9.398 0 0 0 1.468-5 9.4 9.4 0 0 0-1.468-5Zm-2.286 8.978a8.034 8.034 0 0 1-2.979 2.86 8.428 8.428 0 0 1-4.058 1.042 8.428 8.428 0 0 1-4.058-1.043 8.04 8.04 0 0 1-2.979-2.859 7.638 7.638 0 0 1-1.093-3.917c0-1.368.382-2.735 1.093-3.917a8.032 8.032 0 0 1 2.98-2.858 8.423 8.423 0 0 1 4.057-1.044c1.415 0 2.83.363 4.058 1.044a8.028 8.028 0 0 1 2.979 2.858 7.64 7.64 0 0 1 1.094 3.917 7.643 7.643 0 0 1-1.094 3.917Zm22.2-4.64c-.478 1.058-1.383 1.67-2.091 2.04-.708.37-1.218.499-1.732.48l5.143 6.719h-2.94l-4.973-6.497H45.17v6.497h-2.645V4.594h10.58c1.069 0 2.154.212 3.11.753.957.54 1.785 1.363 2.174 2.526.39 1.163.34 2.667-.138 3.725Zm-2.959-.11c.557-.474.887-1.252.858-2.024a2.84 2.84 0 0 0-.968-2.003c-.554-.466-1.261-.505-1.93-.505H45.17v5.021h8.082c.714 0 1.483-.016 2.04-.49Zm18.238.046v2.214h-8.964v4.726h12.05v2.362H61.92V4.594h14.694v2.362H64.566v4.578h8.964Zm.147-9.451h-3.968L68.093 4.15l5.584-2.067Zm8.12 14.619L79.7 20.836h-2.644l8.227-16.243h2.646l8.229 16.243h-2.646l-2.094-4.134h-9.623Zm4.81-9.498-3.765 7.43h7.53l-3.765-7.43Zm25.568 11.27v2.362H97.481V4.594h2.645v13.88h12.049Zm-1.145-10.62-.023-.388c-.004-.072.002-.143-.027-.224a.712.712 0 0 0-.131-.227.253.253 0 0 0-.162-.092c.114-.04.21-.12.272-.224a.779.779 0 0 0 .11-.415.855.855 0 0 0-.133-.451c-.18-.266-.498-.311-.776-.298h-1.17v2.714h.454V7.134h.679c.074 0 .197-.01.321.087.164.194.091.45.12.667.003.13.015.252.068.36h.511v-.083c-.093-.039-.102-.174-.113-.312Zm-.562-1.196a.655.655 0 0 1-.386.089h-.642v-.826c.28.003.562-.012.839.01a.379.379 0 0 1 .299.214c.059.18.061.373-.11.513Z" fill="#000"/><path fill-rule="evenodd" clip-rule="evenodd" d="M112.018 5.738a2.283 2.283 0 0 0-1.973-1.145 2.283 2.283 0 0 0-2.279 2.29c0 .399.107.799.306 1.144a2.283 2.283 0 0 0 1.973 1.145 2.283 2.283 0 0 0 2.279-2.29c0-.399-.107-.798-.306-1.144Zm-.273 2.14a1.94 1.94 0 0 1-1.677.971 1.935 1.935 0 0 1-1.936-1.942 1.947 1.947 0 0 1 1.435-1.877 1.928 1.928 0 0 1 1.469.195c.292.17.54.417.709.71a1.958 1.958 0 0 1 0 1.943Z" fill="#000"/></svg>