<svg width="78" height="47" fill="none" xmlns="http://www.w3.org/2000/svg"><g clip-path="url('#clip0_1744_3247')"><path d="M49.55 41.69H28.458V4.99h21.094v36.7Z" fill="#FF5F00"/><path d="M29.796 23.34c0-7.445 3.6-14.076 9.207-18.35C34.76 1.75 29.51-.008 24.105 0 10.792 0 0 10.45 0 23.34s10.792 23.34 24.105 23.34c5.405.008 10.655-1.75 14.899-4.99-5.607-4.273-9.208-10.905-9.208-18.35Z" fill="#EB001B"/><path d="M78.01 23.34c0 12.891-10.793 23.34-24.106 23.34-5.405.008-10.655-1.75-14.9-4.99 5.608-4.273 9.209-10.905 9.209-18.35 0-7.445-3.6-14.076-9.21-18.35C43.25 1.75 48.499-.008 53.904 0 67.218 0 78.01 10.45 78.01 23.34" fill="#F79E1B"/></g><defs><clipPath id="clip0_1744_3247"><path fill="#fff" d="M0 0h78v47H0z"/></clipPath></defs></svg>