<svg width="59" height="51" fill="none" xmlns="http://www.w3.org/2000/svg"><g clip-path="url('#clip0_1744_3203')" fill-rule="evenodd" clip-rule="evenodd" fill="#F1BB00"><path d="M58.972 49.498c-.26-12.763-2.295-25.046-5.733-34.587C49.775 5.3 45.45.006 41.065.006c-2.725 0-5.284 2.002-7.61 5.956-1.442 2.452-2.784 5.671-3.952 9.46-1.171-3.789-2.512-7.008-3.955-9.46-2.324-3.954-4.884-5.956-7.61-5.956C13.55.006 9.229 5.3 5.765 14.91 2.328 24.45.292 36.735.032 49.497L0 50.994h8.805l.017-1.445c.342-26.664 6.629-43.576 9.19-43.576 1.724 0 6.132 11.71 6.801 40.704l.035 1.428h9.308l.033-1.428c.668-28.994 5.077-40.705 6.802-40.705 2.562 0 8.846 16.911 9.19 43.575l.018 1.447H59l-.028-1.496Z"/><path d="M58.306 49.514c-.257-12.69-2.28-24.892-5.693-34.36C49.305 5.963 45.096.693 41.066.693c-4.41 0-8.564 6.19-11.562 17.104C26.505 6.885 22.35.694 17.937.694 13.91.694 9.7 5.964 6.39 15.152 2.98 24.622.957 36.823.7 49.514l-.015.79h7.464l.01-.764c.346-27.022 6.665-44.256 9.854-44.256 2.732 0 6.848 14.378 7.47 41.374l.02.76h8.004l.017-.76c.622-26.995 4.74-41.374 7.47-41.374 3.19 0 9.51 17.234 9.855 44.256l.01.765h7.464l-.016-.791Z"/><path d="M17.856 2.994v1.525c-4.353.46-10.132 20.13-10.45 45.011l-2.96-3.062v-.077c.94-24.396 7.522-43.202 13.41-43.396v-.001Z"/><path d="M17.703 1.481h.506c4.365.297 8.52 7.77 11.286 19.317V43.11C28.417 20.064 23.619 2.99 17.946 2.99c-1.17 0-2.369.743-3.548 2.121v-2.15c1.103-.908 2.213-1.416 3.305-1.48Zm25.342 2.192v2.138c-.703-.85-1.397-1.304-2.055-1.304-4.202 0-7.673 18.344-8.22 42.135l-3.265-3.378v-.053C30.57 20.115 35.375 2.99 41.055 2.99c.657 0 1.324.235 1.99.683Z"/><path d="M57.544 49.17v.35l-2.968-3.067-.012.012c-.865-22.645-6.59-40.49-12.115-43.136V1.708c7.074 2.37 14.52 22.404 15.094 47.462h.001Z"/></g><defs><clipPath id="clip0_1744_3203"><path fill="#fff" d="M0 0h59v51H0z"/></clipPath></defs></svg>