<svg width="119" height="39" fill="none" xmlns="http://www.w3.org/2000/svg"><path d="M48.5 19.563c-3.904 0-6.51 2.84-6.51 6.742 0 3.73 2.382 6.076 6.173 6.076 2.468 0 4.395-1.136 5.103-2.224l-.356-.385c-.777.981-2.451 1.698-4.165 1.698-3.063 0-4.897-2.392-4.897-5.953 0-3.432 1.784-5.358 4.709-5.358 2.26 0 3.564 1.076 4.203 3.186h.394l-.132-3.642h-.375c-.137.256-.37.368-.713.368-.777 0-1.491-.508-3.433-.508ZM4.579 2.814v.368c.686.13 1.682.29 1.614 1.699l-.413 7.477c-.091 1.598-.576 2.184-1.763 2.311v.368h4.202v-.368c-1.278-.213-1.644-.629-1.576-2.206l.376-7.512 4.202 9.998h.526l4.108-9.998.395 8.002c.069 1.238-.294 1.61-1.276 1.716v.368H19.7v-.368c-1.166-.106-1.62-.614-1.689-2.084l-.394-7.652c-.045-1.109.455-1.58 1.482-1.663v-.385h-3.264l-3.865 9.403-3.94-9.474H4.578Zm23.397 0v.368c1.417.107 1.5.382 1.5 3.537v4.22c0 3.412-.15 3.624-1.5 3.73v.368h4.69v-.368c-1.486-.19-1.482-.291-1.482-3.957v-.683l.62-.648c1.553 1.791 3.223 3.758 5.028 5.656h7.429v-.368c-1.28-.084-1.313-.062-1.313-2.749v-4.5h-3.058v.368c1.324.043 1.482.108 1.482 2.24v1.874c0 2.68-.03 2.706-1.426 2.767-.73-.064-1.463-.255-3.771-2.749-.89-.981-2.36-2.632-3.227-3.677l2.795-2.907c1.37-1.408 2.116-2.11 3.396-2.154v-.368h-4.39v.368c.571.107.788.3.788.683 0 .256-.056.706-.9 1.559l-3.453 3.554V6.684c0-3.133.156-3.332 1.482-3.502v-.368h-4.69Zm14.109.49c-.594 0-1.032.428-1.032.981 0 .555.438.981 1.032.981.594 0 1.05-.426 1.05-.98s-.456-.981-1.05-.981Zm-9.55 17.187c-1.232 0-2.514.718-2.514 2.294 0 .598.201 1.145.544 1.786-1.69.49-2.59 1.86-2.59 3.415 0 2.836 2.312 4.378 4.917 4.378 1.621 0 2.9-.48 4.09-1.419.73.492 1.46.967 1.895 1.138h2.814v-.367c-.915-.085-2.292-.784-3.752-1.787.524-.81.65-1.98.787-2.854.116-.746.702-.727 1.089-.77v-.333h-3.696v.333c.868.106 1.707.212 1.707 1.47 0 .662-.111 1.321-.432 1.77-3.243-2.368-6.229-5.644-6.229-7.285 0-.811.525-1.191 1.37-1.191 1.052 0 2.053.646 2.533 1.926h.356l-.037-2.294h-.375c-.022.15-.173.245-.263.245-.457 0-1.093-.455-2.214-.455ZM58.557 7.262c-1.69 0-2.664.982-2.664 2.154 0 2.56 4.69 2.043 4.69 4.133 0 .703-.708 1.12-1.895 1.12-1.165 0-2.157-.578-2.476-1.943h-.488c0 .555.092 1.579.206 1.75.32.49 1.628.754 2.702.754 1.942 0 3.133-1.054 3.133-2.312 0-2.815-4.653-2.371-4.653-4.185 0-.64.616-.963 1.37-.963 1.53 0 2.209 1.32 2.345 1.769h.357c0-1.11-.133-1.807-.225-1.892-.092-.085-1.26-.385-2.402-.385Zm8.593 0c-2.377 0-3.977 1.767-3.977 4.22 0 1.918 1.051 3.765 3.883 3.765 1.164 0 2.564-.438 3.34-1.226l-.188-.367a4.848 4.848 0 0 1-2.382.63c-2.262 0-3.202-1.898-3.134-3.625h5.704c.091-1.748-.894-3.397-3.246-3.397Zm-8.537 17.046c-2.56 0-4.371 1.736-4.371 3.976 0 1.492.637 2.732 1.801 3.414.687.404 1.574.578 2.533.578 2.536 0 4.353-1.711 4.353-3.993 0-1.47-.636-2.698-1.802-3.38-.685-.405-1.555-.595-2.514-.595ZM24.466 7.316c-2.445 0-4.277 2.047-4.277 4.307 0 1.791 1.073 3.625 3.883 3.625 1.164 0 2.564-.438 3.34-1.226l-.188-.367a4.86 4.86 0 0 1-2.382.63c-2.262 0-3.115-1.783-3.115-3.66 0-.873.226-1.506.638-1.89.387-.364.935-.491 1.482-.491.8 0 1.72.292 2.383 1.103l.15-.018c.252-.297.501-.899.525-1.348-.57-.426-1.434-.665-2.439-.665Zm26.474 0c-1.052 0-2.157.467-3.002 1.47V7.42h-3.059v.368c1.325.042 1.483.108 1.483 2.24v1.874c0 2.708-.006 2.704-1.445 2.767v.368h4.353v-.368c-1.281-.084-1.332-.063-1.332-2.749V9.854c0-.705 1.036-1.576 2.27-1.576 1.004 0 1.801.407 1.801 2.241v1.524c0 2.538-.092 2.563-1.257 2.626v.368h4.278v-.368c-1.439-.064-1.445-.088-1.445-2.626v-1.699c0-2.303-1.343-3.03-2.645-3.03ZM69.608 24.36c-1.12 0-2.213.66-2.852 1.471v-1.366h-3.058v.368c1.327.043 1.482.108 1.482 2.241v2.172c0 2.453-.037 2.448-1.407 2.469v.367h4.315v-.367c-1.21-.107-1.332-.109-1.332-2.54V26.97c0-.788 1.073-1.646 2.214-1.646 1.234 0 1.764.641 1.764 2.154v1.54c0 2.518-.06 2.634-1.201 2.698v.367h4.052v-.367c-1.347-.107-1.313-.218-1.313-2.627v-2.136c0-.768 1.041-1.629 2.252-1.629 1.029 0 1.688.577 1.688 2.154v1.751c0 2.303-.013 2.402-1.2 2.487v.367h4.296v-.367c-1.485-.064-1.426-.252-1.426-2.47v-1.978c0-2.112-1.225-2.907-2.664-2.907-1.3 0-2.361.684-3.115 1.664-.32-1.045-1.124-1.664-2.495-1.664Zm15.629 0a3.76 3.76 0 0 0-2.814 1.243v-1.138h-2.984v.368c1.257.043 1.408.114 1.408 2.609v5.2c0 2.71.065 2.914-1.351 2.977v.368h4.371v-.367c-1.553-.042-1.445-.281-1.445-3.117V31.47c.617.576 1.59.806 2.458.806 2.467 0 4.015-1.725 4.015-4.028 0-2.216-1.535-3.887-3.658-3.887Zm7.974 0c-.892 0-2.2.3-2.908.876.045.362.39 1.065.619 1.278l.206-.035c.365-.832.989-1.436 1.97-1.436 1.075 0 1.52.71 1.52 1.54v.877c0 .575-2.727.683-3.846 1.558-.39.32-.676.724-.676 1.278 0 1.194.905 1.979 2.252 1.979.845 0 1.573-.261 2.326-1.05.114.553.608.857 1.407.857h6.154v-.367c-1.279-.085-1.332-.064-1.332-2.75V26.9c0-.704 1.038-1.576 2.27-1.576 1.006 0 1.802.408 1.802 2.241v1.524c0 2.538-.094 2.563-1.258 2.627v.367h4.278v-.367c-1.44-.064-1.444-.089-1.444-2.627V27.39c0-2.303-1.342-3.029-2.646-3.029-1.05 0-2.157.467-3.002 1.471v-1.366h-3.058v.368c1.325.043 1.482.108 1.482 2.241v1.874c0 2.707-.025 2.703-1.463 2.767h-.338c-1.142 0-1.276-.36-1.276-1.874v-2.557c0-.49-.056-.933-.169-1.295-.388-1.195-1.432-1.629-2.87-1.629ZM70.79 7.525v.368c.936.042 1.014.166 2.27 2.766l2.14 4.413c-.732 1.748-1.876 2.697-4.185 3.187.116.363.543.998.77 1.19 3.039-1.15 3.636-3.03 4.709-5.865l1.613-4.308c.365-.981.95-1.383 1.52-1.383v-.368H76.68v.368c.71.042 1.082.41.807 1.155l-1.576 4.325-1.52-3.344c-.41-.916-.563-1.274-.563-1.594 0-.299.177-.477.77-.542v-.368H70.79Zm36.624 17.046v.368c.935.043 1.032.166 2.289 2.767l2.12 4.412c-.732 1.749-1.877 2.697-4.184 3.187.115.363.542.998.769 1.191 3.039-1.152 3.636-3.03 4.709-5.866l1.633-4.308c.364-.981.93-1.383 1.501-1.383v-.368h-2.946v.368c.709.043 1.1.41.825 1.156l-1.576 4.325-1.538-3.345c-.411-.916-.563-1.274-.563-1.593 0-.3.176-.478.769-.543v-.368h-3.808ZM66.831 7.893c1.278 0 2.06.781 2.083 2.188H64.71c.137-1.407.818-2.188 2.12-2.188Zm-8.443 17.046c1.462 0 2.908 1.32 2.908 3.835 0 1.77-.837 2.854-2.551 2.854-1.485 0-2.87-1.272-2.87-3.852 0-1.834.935-2.837 2.513-2.837Zm-27.524.192c1.143 1.898 3.277 3.912 5.516 5.446-.686.491-1.84.63-2.777.63-2.399 0-4.296-1.582-4.296-3.694 0-1.322.62-2.147 1.557-2.382Zm53.641.193c1.689 0 2.74 1.177 2.74 3.117 0 1.983-.886 3.257-2.552 3.257-1.074 0-2.27-.567-2.27-1.313v-3.783c0-.64.986-1.278 2.082-1.278Zm10.113 2.854v2.102c0 .64-.901 1.155-1.632 1.155-.686 0-1.258-.403-1.258-1.278 0-1.555 1.726-1.382 2.89-1.979Z" fill="#24477F"/></svg>