<svg width="710" height="814" fill="none" xmlns="http://www.w3.org/2000/svg"><path d="M577.704 459.335c48.299 97.467 31.786 204.065-89.027 263.932-120.814 59.868-194.45 16.519-245.977-50.779-51.528-67.298-76.973-134.282-60.671-182.172 12.467-36.625 68.863-87.802 131.796-83.537 11.87-8.466-15.992-39.273-4.84-44.799 97.467-48.299 220.421-.112 268.719 97.355Z" fill="#FF9BCB"/><path d="M463.195 176.052c25.425 85.464 74.681 294.787 13.34 294.608-61.341-.179-111.102-154.045-141.309-238.297-30.206-84.252-44.166-172.45 10.099-189.688 54.265-17.237 92.445 47.913 117.87 133.377Z" fill="#FF9BCB"/><path d="M316.246 229.608c58.919 66.925 160.687 184.135 104.925 209.695-55.763 25.56-134.734-41.092-197.486-104.911-62.752-63.82-112.411-138.035-70.375-176.439 42.035-38.404 104.016 4.73 162.936 71.655Z" fill="#FF9BCB"/></svg>