<svg width="111" height="22" fill="none" xmlns="http://www.w3.org/2000/svg"><path fill-rule="evenodd" clip-rule="evenodd" d="M107.712 17.195a1.663 1.663 0 0 0-1.181.45 1.58 1.58 0 0 0-.364.515 1.528 1.528 0 0 0 .364 1.734c.156.147.341.263.543.34.203.077.42.115.638.111.216 0 .43-.041.629-.12.199-.08.38-.197.532-.343.152-.147.272-.32.354-.512a1.521 1.521 0 0 0-.356-1.715 1.642 1.642 0 0 0-.532-.34 1.7 1.7 0 0 0-.627-.12Zm0 2.96c-.19 0-.378-.035-.554-.105a1.451 1.451 0 0 1-.469-.301 1.397 1.397 0 0 1-.313-.451 1.336 1.336 0 0 1 .002-1.061c.073-.168.179-.32.313-.449a1.46 1.46 0 0 1 1.021-.403 1.49 1.49 0 0 1 1.019.404 1.339 1.339 0 0 1 .313 1.508 1.361 1.361 0 0 1-.311.45 1.45 1.45 0 0 1-.468.302c-.175.07-.363.107-.553.107Z" fill="#000"/><path fill-rule="evenodd" clip-rule="evenodd" d="M108.556 18.354a.429.429 0 0 0-.206-.38c-.138-.078-.292-.086-.447-.086h-.8v1.76h.224v-.811h.413l.524.812h.266l-.554-.812c.327-.01.58-.137.58-.483Zm-.885.313h-.345v-.623h.524c.228 0 .478.034.478.306.001.358-.4.317-.657.317Zm-9.584-8.825 3.358-3.44c.194-.252.291-.428.291-.58 0-.252-.226-.353-.938-.353h-.847V3.298h9.169v2.17h-1.205c-1.391 0-1.65.202-3.591 2.55l-5.311 5.503v3.357c0 .86.452 1.162 1.746 1.162h2.005v2.094H89.921V18.04h2.006c1.293 0 1.746-.302 1.746-1.16V13.52l-6.255-6.64c-1.034-1.16-.891-1.412-3.77-1.412V3.298h11.615v2.17h-.827c-.842 0-1.198.152-1.198.455 0 .253.259.454.42.656l3.166 3.31c.376.374.835.423 1.263-.047ZM20.16 3.297h2.802v6.058h-2.588c-.23-1.21-1.02-1.682-1.74-2.317-1.3-1.146-4.114-2.1-6.482-2.1-3.056 0-5.634.91-5.634 2.246 0 3.711 17.475.758 17.475 7.775 0 3.66-3.743 5.705-10.466 5.705-2.327 0-5.848-.693-7.926-1.752-.652-.36-.928.342-1.05 1.222H1.677v-6.26h2.599c.573 1.59 1.362 1.918 2.089 2.55 1.26 1.11 4.259 1.918 7.01 1.892 4.146-.039 5.572-.909 5.572-2.17 0-1.263-1.41-1.566-5.954-2.247l-3.859-.606c-4.354-.631-7.525-1.565-7.525-4.897 0-3.458 4.01-5.63 10.352-5.63 2.672 0 4.908.343 7.054 1.507.594.37 1.151.415 1.144-.976ZM74.837 13.44l.055-6.733c0-.884-.48-1.186-1.848-1.186h-1.609V3.426H81.67V5.52h-1.334c-1.37 0-1.849.303-1.849 1.186v13.555l-4.005-.03L61.509 8.449v8.557c0 .858.48 1.186 1.848 1.186h1.78v2.07H54.51v-2.07h1.76c1.37 0 1.849-.328 1.849-1.186v-10.3c0-.883-.48-1.185-1.848-1.185H54.51V3.426h9.189L74.837 13.44Zm-34.28-10.8c-8.155 0-13.26 3.458-13.26 9.011 0 5.453 5.034 8.886 13.012 8.886 8.474 0 13.403-3.383 13.403-9.163 0-5.2-5.319-8.734-13.154-8.734Zm-.185 15.701c-4.514 0-7.11-2.5-7.11-6.816 0-4.215 2.709-6.714 7.336-6.714 4.439 0 7.034 2.55 7.034 6.892 0 4.24-2.633 6.638-7.26 6.638Z" fill="#000"/></svg>