<svg width="815" height="795" fill="none" xmlns="http://www.w3.org/2000/svg"><g opacity=".1" fill="#fff"><path d="M586.144 100.48c31.517 77.452-62.715 126.218-220.512 194.112-157.797 67.893-292.739 106.611-325.264 31.016C2.715 238.097 128.74 178.654 286.537 110.76c157.797-67.894 268.09-87.733 299.607-10.28Z"/><path d="M809.36 387.475c3.172 83.566-122.676 98.906-327.703 111.57-205.026 12.664-372.329 5.197-377.402-76.941-5.873-95.087 160.038-110.139 365.064-122.803 205.027-12.664 336.869 4.608 340.041 88.174Z"/><path d="M622.885 707.546c-26.826 79.2-130.723 54.233-295.664 2.02C162.28 657.353 33.931 598.087 58.767 519.629c28.75-90.826 163.909-53.07 328.851-.857 164.941 52.213 262.092 109.574 235.267 188.774Z"/></g></svg>