<svg width="212" height="186" fill="none" xmlns="http://www.w3.org/2000/svg"><path d="M213.444 191.933c-7.725 43.096-36.897 72.695-100.829 61.392-63.932-11.304-104.304-51.797-97.96-96.754 6.343-44.956 72.752-121.168 125.12-112.83 52.368 8.338 81.394 105.095 73.669 148.192Z" fill="#80DE5F"/><path d="M111.015 1.242c-31.036-8.424-18.104 29.743-7.759 49.88l72.049 20.506c15.518-9.237 44.781-30.37 37.687-41.012-8.868-13.301-29.928-3.88-32.145-3.88-.554-4.988-5.542-14.963-19.952-18.289-16.848-2.66-24.755 6.281-26.602 11.085-1.294-3.695-7.759-12.526-23.278-18.29Z" fill="#80DE5F"/></svg>