<svg width="24" height="24" viewBox="0 0 24 24" fill="none" xmlns="http://www.w3.org/2000/svg">
<path d="M24 12C24 18.6274 18.6274 24 12 24C5.37262 24 0 18.6274 0 12C0 12.0028 12 0.00135937 12 0C18.6274 0 24 5.37262 24 12Z" fill="#0052B4"/>
<path d="M11.9688 11.9999H12.0009C12.0009 11.989 12.0009 11.9786 12.0009 11.9678C11.9902 11.9785 11.9795 11.9892 11.9688 11.9999Z" fill="#F0F0F0"/>
<path d="M12 6.26183C12 4.15035 12 2.76674 12 0.000976562H11.998C5.3715 0.00205469 0 5.37416 0 12.0009H6.26086V8.47537L9.78642 12.0009H11.9679C11.9787 11.9902 11.9894 11.9796 12 11.9688C12 11.1604 12 10.439 12 9.78744L8.47444 6.26183H12Z" fill="#F0F0F0"/>
<path d="M6.06831 1.56519C4.19148 2.63389 2.6312 4.19417 1.5625 6.071V12H4.69295V4.69569V4.69564H11.9973C11.9973 3.70831 11.9973 2.76772 11.9973 1.56519H6.06831Z" fill="#D80027"/>
<path d="M11.9969 10.5241L7.73348 6.26076H6.25781C6.25781 6.26072 6.25781 6.26076 6.25781 6.26076L11.9969 11.9998H11.9969C11.9969 11.9998 11.9969 10.9824 11.9969 10.5241Z" fill="#D80027"/>
<path d="M7.23827 14.0869L7.89686 15.464L9.38406 15.1203L8.71806 16.4938L9.91403 17.4422L8.42495 17.7779L8.42912 19.3043L7.23827 18.3493L6.04745 19.3043L6.05163 17.7779L4.5625 17.4422L5.75852 16.4938L5.09242 15.1203L6.57972 15.464L7.23827 14.0869Z" fill="#F0F0F0"/>
<path d="M17.9707 16.6953L18.3 17.3839L19.0436 17.212L18.7105 17.8987L19.3086 18.373L18.564 18.5408L18.5661 19.304L17.9707 18.8265L17.3753 19.304L17.3773 18.5408L16.6328 18.373L17.2308 17.8987L16.8978 17.212L17.6414 17.3839L17.9707 16.6953Z" fill="#F0F0F0"/>
<path d="M14.9043 9.39087L15.2336 10.0795L15.9772 9.90753L15.6442 10.5943L16.2422 11.0685L15.4977 11.2363L15.4997 11.9996L14.9043 11.5221L14.3089 11.9996L14.3109 11.2363L13.5664 11.0685L14.1644 10.5943L13.8314 9.90753L14.575 10.0795L14.9043 9.39087Z" fill="#F0F0F0"/>
<path d="M17.9707 5.21704L18.3 5.90563L19.0436 5.73374L18.7106 6.42051L19.3085 6.8947L18.564 7.06256L18.5661 7.82578L17.9707 7.34826L17.3753 7.82578L17.3773 7.06256L16.6328 6.8947L17.2307 6.42051L16.8978 5.73374L17.6414 5.90563L17.9707 5.21704Z" fill="#F0F0F0"/>
<path d="M20.6426 8.34717L20.9718 9.03576L21.7155 8.86382L21.3825 9.55059L21.9805 10.0248L21.2359 10.1927L21.238 10.9559L20.6426 10.4784L20.0472 10.9559L20.0492 10.1927L19.3047 10.0248L19.9027 9.55059L19.5697 8.86382L20.3133 9.03576L20.6426 8.34717Z" fill="#F0F0F0"/>
<path d="M18.7261 11.9998L18.9851 12.7969H19.8233L19.1452 13.2896L19.4042 14.0867L18.7261 13.5941L18.048 14.0867L18.307 13.2896L17.6289 12.7969H18.4671L18.7261 11.9998Z" fill="#F0F0F0"/>
</svg>
