<svg width="24" height="24" viewBox="0 0 24 24" fill="none" xmlns="http://www.w3.org/2000/svg">
<path d="M12 24C18.6274 24 24 18.6274 24 12C24 5.37258 18.6274 0 12 0C5.37258 0 0 5.37258 0 12C0 18.6274 5.37258 24 12 24Z" fill="#F0F0F0"/>
<path d="M23.9975 11.9997C23.9975 7.24218 21.2288 3.13143 17.2148 1.19043V22.8089C21.2288 20.868 23.9975 16.7572 23.9975 11.9997Z" fill="#D80027"/>
<path d="M0 11.9997C0 16.7572 2.76867 20.868 6.78263 22.809V1.19043C2.76867 3.13143 0 7.24218 0 11.9997Z" fill="#D80027"/>
<path d="M14.0851 13.5648L16.172 12.5213L15.1286 11.9996V10.9561L13.0416 11.9996L14.0851 9.91261H13.0416L11.9981 8.34741L10.9546 9.91261H9.91114L10.9546 11.9996L8.86766 10.9561V11.9996L7.82422 12.5213L9.91114 13.5648L9.38942 14.6083H11.4764V16.1735H12.5198V14.6083H14.6068L14.0851 13.5648Z" fill="#D80027"/>
</svg>
