<svg width="20" height="20" viewBox="0 0 20 20" fill="none" xmlns="http://www.w3.org/2000/svg">
<path d="M10.0032 12C11.1078 12 12.0032 11.1046 12.0032 10C12.0032 8.89543 11.1078 8 10.0032 8C8.89861 8 8.00318 8.89543 8.00318 10C8.00318 11.1046 8.89861 12 10.0032 12Z" fill="#919FA9"/>
<path fill-rule="evenodd" clip-rule="evenodd" d="M0.460938 10C1.73519 5.94291 5.52549 3 10.0031 3C14.4808 3 18.2711 5.94288 19.5453 9.99996C18.2711 14.0571 14.4808 17 10.0031 17C5.5255 17 1.73521 14.0571 0.460938 10ZM14.0032 10C14.0032 12.2091 12.2123 14 10.0032 14C7.79404 14 6.00318 12.2091 6.00318 10C6.00318 7.79086 7.79404 6 10.0032 6C12.2123 6 14.0032 7.79086 14.0032 10Z" fill="#919FA9"/>
</svg>
