<svg width="52" height="34" viewBox="0 0 52 34" fill="none" xmlns="http://www.w3.org/2000/svg">
<g clip-path="url(#clip0_867_2898)">
<path d="M48.0162 33.97C45.5842 33.97 44.1421 32.7669 44.0317 31.0344H46.3568C46.3568 31.6119 46.6879 32.3807 48.1266 32.4285C49.1236 32.4285 49.6753 31.8511 49.6753 31.4169C49.5649 30.7437 48.6783 30.6959 47.7953 30.5488C46.7983 30.4091 46.0257 30.214 45.4702 29.9749C44.6976 29.5887 44.2523 28.7683 44.2523 27.9039C44.2523 26.3624 45.5842 25.1593 47.9057 25.1593C50.1207 25.1593 51.5592 26.2669 51.6656 27.9517H49.4547C49.4547 27.521 49.3443 26.7965 48.016 26.7965C47.1294 26.7965 46.5776 26.9399 46.4672 27.5653C46.4672 28.4335 48.3472 28.3856 49.7858 28.7204C51.1139 29.0589 52.0005 29.8756 52.0005 31.0344C52.0005 33.1533 50.2309 33.97 48.0162 33.97ZM5.64453 19.7536L13.2787 15.4678L17.3734 22.2589H7.08306" fill="black"/>
<path fill-rule="evenodd" clip-rule="evenodd" d="M22.8128 25.1426V33.714H20.5781V25.1426H22.8128Z" fill="black"/>
<path d="M2.10085 29.5402C2.10085 30.8866 3.31854 31.994 4.64284 31.994C6.08518 31.994 7.18882 30.8866 7.18882 29.5402C7.18882 28.2417 6.08518 27.0865 4.64284 27.0865C3.31854 27.0865 2.10085 28.2417 2.10085 29.5402ZM4.5326 33.9695C2.10068 33.9695 0 31.994 0 29.5402C0 27.0865 2.10085 25.1589 4.5326 25.1589C5.52963 25.1589 6.41626 25.4017 7.18882 25.9277V25.2545H9.40372V33.7744H7.18899V33.2448C6.52684 33.7267 5.52981 33.9695 4.53277 33.9695H4.5326ZM34.0806 22.2416L23.4591 4.33354L31.0931 0L44.3709 22.2416H34.0806ZM12.2808 29.5402C12.2808 30.8866 13.3884 31.994 14.8268 31.994C16.1511 31.994 17.3727 30.8866 17.3727 29.5402C17.3727 28.2417 16.1511 27.0865 14.8268 27.0865C13.3882 27.0865 12.2808 28.2417 12.2808 29.5402ZM14.7163 33.9695C12.1704 33.9695 10.1801 31.994 10.1801 29.5402C10.1801 27.0865 12.1704 25.1589 14.7163 25.1589C15.7096 25.1589 16.5964 25.4017 17.3727 25.9277V22.3188H19.5838V33.7744H17.3726V33.2448C16.5962 33.7267 15.7096 33.9695 14.7162 33.9695H14.7163ZM14.6073 12.0841L22.3517 7.84991L30.8726 22.2411H22.7933V24.36H20.5821V22.2411L14.6073 12.0841ZM50.5653 24.4267C50.0097 24.4267 49.458 23.9448 49.458 23.3673C49.458 22.7897 50.0097 22.3078 50.5653 22.3078C51.2274 22.3078 51.6729 22.7898 51.6729 23.3673C51.6729 23.9447 51.2274 24.4269 50.5653 24.4269V24.4267ZM50.5653 22.4551C50.0097 22.4551 49.6787 22.8854 49.6787 23.3673C49.6787 23.8491 50.0097 24.2833 50.5653 24.2833C51.1172 24.2833 51.4483 23.8493 51.4483 23.3673C51.4483 22.8852 51.1172 22.4551 50.5653 22.4551Z" fill="black"/>
<path d="M50.7949 23.9636L50.574 23.4818H50.3534V23.9636H50.1859V22.8085H50.6844C50.7948 22.8085 51.0155 22.9558 51.0155 23.147C51.0155 23.3382 50.9051 23.434 50.7949 23.4818L51.0155 23.9636H50.7949ZM50.574 22.9558H50.3534V23.3383H50.574C50.7948 23.3383 50.7949 23.2906 50.7949 23.147C50.7949 23.0478 50.7948 22.9558 50.574 22.9558ZM35.9528 29.5554C35.9528 30.9017 37.0605 32.0091 38.4988 32.0091C39.8269 32.0091 41.041 30.9017 41.041 29.5554C41.041 28.2568 39.8269 27.1017 38.4988 27.1017C37.0603 27.1017 35.9528 28.2568 35.9528 29.5554ZM38.3848 33.9846C35.8426 33.9846 33.8522 32.0091 33.8522 29.5554C33.8522 27.1017 35.8426 25.1741 38.3846 25.1741C39.3818 25.1741 40.2684 25.4169 41.041 25.9428V25.2696H43.1455V33.7896H41.0412V33.2599C40.2684 33.7418 39.3818 33.9846 38.3846 33.9846H38.3848ZM25.7805 29.5554C25.7805 30.9017 26.9982 32.0091 28.3263 32.0091C29.765 32.0091 30.8723 30.9017 30.8723 29.5554C30.8723 28.2568 29.7649 27.1017 28.3263 27.1017C26.9982 27.1017 25.7805 28.2568 25.7805 29.5554ZM30.8723 22.334H33.0834V33.7896H30.8723V33.2599C30.2064 33.7418 29.3197 33.9846 28.3263 33.9846C25.7805 33.9846 23.6797 32.0091 23.6797 29.5554C23.6797 27.1017 25.7805 25.1741 28.3263 25.1741C29.3196 25.1741 30.2064 25.4169 30.8723 25.9428V22.334Z" fill="black"/>
</g>
<defs>
<clipPath id="clip0_867_2898">
<rect width="52" height="34" fill="white"/>
</clipPath>
</defs>
</svg>
