<svg width="75" height="50" viewBox="0 0 75 50" fill="none" xmlns="http://www.w3.org/2000/svg">
<g clip-path="url(#clip0_1744_3190)">
<path d="M69.2536 49.9558C65.746 49.9558 63.6659 48.1866 63.5067 45.6388H66.8602C66.8602 46.4881 67.3378 47.6187 69.4128 47.6889C70.8508 47.6889 71.6466 46.8398 71.6466 46.2013C71.4874 45.2113 70.2086 45.141 68.935 44.9247C67.497 44.7192 66.3827 44.4324 65.5815 44.0807C64.4672 43.5128 63.8249 42.3063 63.8249 41.0351C63.8249 38.7682 65.746 36.999 69.0943 36.999C72.2889 36.999 74.3637 38.6277 74.5172 41.1054H71.3284C71.3284 40.4721 71.1691 39.4066 69.2533 39.4066C67.9745 39.4066 67.1788 39.6175 67.0195 40.5371C67.0195 41.814 69.7311 41.7435 71.8059 42.2359C73.7214 42.7336 75.0002 43.9346 75.0002 45.6388C75.0002 48.7548 72.4479 49.9558 69.2536 49.9558ZM8.14062 29.0493L19.1514 22.7467L25.0573 32.7336H10.2154" fill="black"/>
<path fill-rule="evenodd" clip-rule="evenodd" d="M32.9067 36.9751V49.5801H29.6836V36.9751H32.9067Z" fill="black"/>
<path d="M3.03007 43.4415C3.03007 45.4214 4.78636 47.0499 6.69641 47.0499C8.7767 47.0499 10.3685 45.4214 10.3685 43.4415C10.3685 41.5319 8.7767 39.8331 6.69641 39.8331C4.78636 39.8331 3.03007 41.5319 3.03007 43.4415ZM6.5374 49.9551C3.02982 49.9551 0 47.0499 0 43.4415C0 39.8331 3.03007 36.9984 6.5374 36.9984C7.97544 36.9984 9.25422 37.3555 10.3685 38.129V37.1389H13.5631V49.6683H10.3687V48.8894C9.41372 49.598 7.97569 49.9551 6.53765 49.9551H6.5374ZM49.1546 32.7082L33.8353 6.37286L44.8458 0L63.9965 32.7082H49.1546ZM17.7127 43.4415C17.7127 45.4214 19.3102 47.0499 21.3847 47.0499C23.2948 47.0499 25.0568 45.4214 25.0568 43.4415C25.0568 41.5319 23.2948 39.8331 21.3847 39.8331C19.3099 39.8331 17.7127 41.5319 17.7127 43.4415ZM21.2255 49.9551C17.5534 49.9551 14.6828 47.0499 14.6828 43.4415C14.6828 39.8331 17.5534 36.9984 21.2255 36.9984C22.658 36.9984 23.9371 37.3555 25.0568 38.129V32.8218H28.2459V49.6683H25.0566V48.8894C23.9368 49.598 22.658 49.9551 21.2252 49.9551H21.2255ZM21.0682 17.7707L32.238 11.544L44.5278 32.7075H32.875V35.8236H29.6857V32.7075L21.0682 17.7707ZM72.9307 35.9216C72.1294 35.9216 71.3336 35.213 71.3336 34.3636C71.3336 33.5142 72.1294 32.8056 72.9307 32.8056C73.8857 32.8056 74.5282 33.5145 74.5282 34.3636C74.5282 35.2127 73.8857 35.9219 72.9307 35.9219V35.9216ZM72.9307 33.0222C72.1294 33.0222 71.6519 33.6549 71.6519 34.3636C71.6519 35.0723 72.1294 35.7107 72.9307 35.7107C73.7267 35.7107 74.2042 35.0725 74.2042 34.3636C74.2042 33.6547 73.7267 33.0222 72.9307 33.0222Z" fill="black"/>
<path d="M73.2608 35.2408L72.9422 34.5321H72.624V35.2408H72.3825V33.5421H73.1015C73.2607 33.5421 73.579 33.7587 73.579 34.0398C73.579 34.321 73.4198 34.4619 73.2608 34.5321L73.579 35.2408H73.2608ZM72.9422 33.7587H72.624V34.3212H72.9422C73.2607 34.3212 73.2608 34.251 73.2608 34.0398C73.2608 33.8939 73.2607 33.7587 72.9422 33.7587ZM51.854 43.4639C51.854 45.4438 53.4515 47.0723 55.5261 47.0723C57.4416 47.0723 59.1927 45.4438 59.1927 43.4639C59.1927 41.5543 57.4416 39.8555 55.5261 39.8555C53.4513 39.8555 51.854 41.5543 51.854 43.4639ZM55.3616 49.9775C51.695 49.9775 48.8242 47.0723 48.8242 43.4639C48.8242 39.8555 51.695 37.0209 55.3613 37.0209C56.7996 37.0209 58.0784 37.3779 59.1927 38.1514V37.1613H62.228V49.6907H59.1929V48.9118C58.0784 49.6205 56.7996 49.9775 55.3613 49.9775H55.3616ZM37.1824 43.4639C37.1824 45.4438 38.9387 47.0723 40.8542 47.0723C42.9293 47.0723 44.5263 45.4438 44.5263 43.4639C44.5263 41.5543 42.929 39.8555 40.8542 39.8555C38.9387 39.8555 37.1824 41.5543 37.1824 43.4639ZM44.5263 32.8442H47.7154V49.6907H44.5263V48.9118C43.5658 49.6205 42.287 49.9775 40.8542 49.9775C37.1824 49.9775 34.1523 47.0723 34.1523 43.4639C34.1523 39.8555 37.1824 37.0209 40.8542 37.0209C42.2868 37.0209 43.5658 37.3779 44.5263 38.1514V32.8442Z" fill="black"/>
</g>
<defs>
<clipPath id="clip0_1744_3190">
<rect width="75" height="50" fill="white"/>
</clipPath>
</defs>
</svg>
