<svg width="48" height="46" viewBox="0 0 48 46" fill="none" xmlns="http://www.w3.org/2000/svg">
<g clip-path="url(#clip0_1744_3210)">
<path fill-rule="evenodd" clip-rule="evenodd" d="M6.40286 18.6357C6.31071 18.8782 6.16944 19.0555 6.01948 19.118C5.66174 19.2658 5.32226 19.2386 5.10449 19.0443C4.97061 18.9251 4.88889 18.508 4.88976 17.9502C4.89106 17.5081 4.9593 17.3134 5.16577 17.1678C5.49743 16.9329 6.19683 17.1874 6.3733 17.6068C6.47111 17.8399 6.48762 18.4129 6.40286 18.6361V18.6357ZM4.93192 13.8274C5.00451 13.463 5.13969 13.354 5.51308 13.3607C5.8756 13.3674 6.14858 13.5514 6.2742 13.8738C6.45546 14.3383 6.32114 15.022 6.00687 15.2381C5.82431 15.3632 5.41919 15.4409 5.19838 15.3935C5.12883 15.3784 5.03711 15.2953 4.99538 15.2091C4.89845 15.0077 4.86063 14.186 4.93192 13.8274ZM9.09829 18.3343C9.04786 17.4947 8.79532 16.89 8.30109 16.4274C8.19329 16.3264 8.10462 16.1996 8.10462 16.1469C8.10462 16.0933 8.19503 15.9125 8.30544 15.745C8.68969 15.164 8.85313 14.3829 8.76141 13.5715C8.62666 12.3867 8.06419 11.6342 7.01402 11.2341C6.68584 11.1082 6.55456 11.0979 5.34877 11.0988C4.14298 11.0997 4.01084 11.1108 3.67614 11.2372C3.06108 11.4699 2.78071 11.7655 2.56207 12.4131C2.3795 12.9534 2.34386 13.5836 2.34343 16.3126C2.34343 19.0832 2.38429 19.6914 2.61379 20.3064C2.94458 21.195 3.37578 21.4715 4.5681 21.5572C5.93037 21.6555 6.96055 21.5952 7.51737 21.3848C8.52929 21.0017 9.18218 19.7414 9.09829 18.3343ZM10.1163 19.2779C10.4497 20.6221 11.0004 21.3947 11.7507 21.5729C12.301 21.7033 12.8656 21.5403 13.3099 21.1236C13.7845 20.6792 13.9262 20.5797 14.0844 20.5788C14.2996 20.577 14.3874 20.6578 14.6026 21.0539C14.8495 21.5085 15.0038 21.5965 15.5632 21.6001C16.3152 21.6046 16.5543 21.3277 16.7573 20.2161C17.0637 18.537 17.115 15.2323 16.8659 13.2026C16.7338 12.1223 16.5091 11.5806 16.0683 11.2805C15.844 11.1278 15.7662 11.1091 15.3793 11.1113C14.8764 11.1149 14.6065 11.2497 14.3709 11.6141C14.0727 12.0768 14.0349 12.6922 14.194 14.4794C14.2622 15.2529 14.2948 15.983 14.297 16.7962C14.2996 17.881 14.2914 18.0087 14.2018 18.2717C14.0601 18.6884 13.828 18.9077 13.4933 18.9407C13.3446 18.9555 13.1486 18.9479 13.0569 18.9251C12.8308 18.867 12.5253 18.4441 12.4444 18.0775C12.3457 17.6282 12.3757 16.364 12.5161 15.0599C12.6683 13.6461 12.6861 12.5144 12.564 12.0384C12.3888 11.356 11.9758 11.0412 11.3199 11.0903C10.4606 11.1546 10.1146 11.7133 9.87679 13.4201C9.81463 13.8671 9.79855 14.3387 9.79898 15.7021C9.79985 17.6363 9.85071 18.2079 10.1163 19.2779ZM41.7146 14.7121C41.729 14.3512 41.7642 13.9636 41.7946 13.8506C41.8633 13.5871 42.0445 13.4616 42.3523 13.4634C42.9726 13.467 43.3429 14.0618 43.2247 14.8643C43.1556 15.3288 43.0669 15.4931 42.7869 15.6731C42.5587 15.82 42.161 15.9031 41.9372 15.8517C41.7502 15.8089 41.6842 15.4708 41.7146 14.7121ZM39.9837 21.4956C40.2267 21.6135 40.8922 21.6099 41.1891 21.4902C41.5164 21.3576 41.7616 21.02 41.8359 20.6002C41.878 20.3604 41.8793 20.1224 41.8415 19.6124C41.7459 18.3168 41.7863 17.9288 42.0302 17.8127C42.2084 17.7274 42.4023 17.8618 42.5235 18.1556C42.5809 18.2923 42.7191 18.8148 42.8317 19.3167C43.1329 20.6556 43.3359 21.1245 43.7402 21.4188C43.9097 21.5425 43.9945 21.5559 44.6169 21.5537C45.2224 21.5519 45.3376 21.5349 45.5663 21.4107C45.9079 21.2259 46.057 21.0593 46.16 20.7485C46.4056 20.0152 46.1965 19.5159 45.1907 18.4352C44.6965 17.9038 44.5483 17.6456 44.5483 17.3174C44.5483 17.0896 44.58 17.0267 44.9386 16.539C45.4063 15.904 45.6345 15.348 45.6871 14.7112C45.824 13.0633 45.0742 11.7928 43.6524 11.2613C43.3159 11.1354 43.1777 11.1229 41.9989 11.1207C40.6062 11.1175 40.3871 11.1586 40.0068 11.49C39.4634 11.9629 39.2656 12.6958 39.1687 14.587C39.1005 15.9071 39.1448 19.2225 39.2396 19.9223C39.3543 20.7712 39.6116 21.3147 39.9837 21.4956ZM30.2335 21.5371C31.7014 21.0401 32.4573 19.883 32.5655 17.9667C32.6377 16.7042 32.3178 15.8044 31.684 15.486C31.3076 15.2971 30.6778 15.2238 30.1153 15.3038C29.4907 15.3931 29.2911 15.4699 29.1329 15.6852C28.8895 16.0165 28.8286 16.8284 29.0108 17.3134C29.1455 17.672 29.2846 17.8033 29.6089 17.8747C29.9471 17.9502 29.964 17.9663 29.964 18.228C29.964 18.6491 29.5659 18.9251 29.0499 18.8617C28.5022 18.7942 28.0936 18.3825 27.835 17.6367C27.695 17.2357 27.6902 17.1928 27.6915 16.4086C27.6937 15.3609 27.7802 15.0251 28.1914 14.4655C28.5296 14.0051 28.7943 13.8627 29.315 13.86C29.7441 13.8578 30.1162 13.9984 30.5148 14.3124C30.6791 14.4423 30.8934 14.583 30.9912 14.6263C31.641 14.9121 32.3047 14.0824 32.306 12.9833C32.306 12.6011 32.2269 12.3983 31.9466 12.0571C31.6588 11.7088 31.0629 11.3681 30.423 11.1863C29.7667 10.9992 28.597 10.98 28.0575 11.147C27.5942 11.2908 26.8543 11.7758 26.4975 12.1701C25.9463 12.7788 25.479 13.7055 25.243 14.6585C24.917 15.9745 25.0131 17.5063 25.5069 18.846C26.0263 20.2572 26.9513 21.2388 28.1036 21.6014C28.4718 21.7175 29.8206 21.6774 30.2335 21.5371ZM20.5146 14.7116C20.5289 14.3508 20.565 13.9631 20.5946 13.8502C20.6633 13.5867 20.845 13.4616 21.1527 13.463C21.773 13.4665 22.1429 14.0614 22.0247 14.8639C21.9564 15.3283 21.8669 15.4931 21.587 15.6727C21.3592 15.8191 20.9615 15.9026 20.7376 15.8513C20.5507 15.808 20.4846 15.4699 20.5146 14.7116ZM19.9895 21.4893C20.3164 21.3572 20.562 21.0191 20.6359 20.5993C20.6785 20.3595 20.6793 20.1215 20.642 19.611C20.5463 18.316 20.5868 17.9283 20.8302 17.8113C21.0088 17.7265 21.2031 17.8613 21.3244 18.1547C21.3809 18.2914 21.5196 18.8139 21.6322 19.3158C21.933 20.6547 22.1355 21.1236 22.5402 21.4179C22.7097 21.5416 22.7945 21.555 23.4174 21.5532C24.0229 21.551 24.1376 21.534 24.3667 21.4103C24.7075 21.225 24.857 21.0584 24.9605 20.7476C25.2056 20.0147 24.9961 19.515 23.9911 18.4343C23.4969 17.9029 23.3487 17.6447 23.3487 17.3165C23.3487 17.0896 23.3804 17.0262 23.739 16.5386C24.2067 15.9031 24.4345 15.3471 24.4875 14.7103C24.6245 13.0624 23.8746 11.7919 22.4528 11.26C22.1155 11.1345 21.9782 11.1225 20.7989 11.1202C19.4071 11.1171 19.1875 11.1577 18.8068 11.4891C18.2639 11.962 18.0656 12.6949 17.9687 14.5861C17.9009 15.9062 17.9448 19.2216 18.0396 19.921C18.1543 20.7708 18.4116 21.3143 18.7842 21.4947C19.0267 21.6126 19.6926 21.609 19.9895 21.4893ZM38.4132 19.9866C38.4132 19.6561 38.3915 19.4998 38.3081 19.2305C38.1146 18.6022 37.7634 18.4745 36.9562 18.7375C36.4463 18.9041 35.7613 18.9608 35.6322 18.8469C35.467 18.7018 35.3549 18.3633 35.3779 18.0788C35.4027 17.7649 35.5765 17.4884 35.7552 17.4768C36.003 17.4608 36.2664 17.4942 36.5454 17.5778C36.7028 17.6246 36.9771 17.6818 37.1553 17.7046C37.4509 17.7421 37.4943 17.7327 37.65 17.5956C37.9077 17.3683 38.0129 16.9905 38.012 16.2988C38.012 15.849 37.9968 15.7222 37.9168 15.4873C37.7695 15.0519 37.6204 14.922 37.274 14.9233C37.114 14.9242 36.7697 14.9666 36.5072 15.0184C35.6952 15.1783 35.4018 15.0028 35.4018 14.3566C35.4018 14.1002 35.6135 13.7381 35.77 13.7269C36.0234 13.709 36.3216 13.7524 36.6793 13.8591C37.4539 14.0913 37.6478 14.0761 37.8734 13.764C38.1229 13.4201 38.2037 12.4372 38.0246 11.908C37.7943 11.2225 37.3683 11.0805 35.677 11.1265C34.8619 11.1488 34.5338 11.1801 34.3921 11.2493C33.774 11.5512 33.4675 12.0728 33.3254 13.0615C33.1784 14.0927 33.1493 18.3731 33.2823 19.3672C33.3636 19.9719 33.5336 20.4761 33.78 20.8454C34.0752 21.2875 34.3751 21.455 35.0784 21.5702C35.1623 21.5836 35.7452 21.588 36.3742 21.5796C37.2492 21.5679 37.5621 21.5425 37.7082 21.4719C38.2342 21.2165 38.4132 20.8396 38.4132 19.9866ZM44.7469 27.9304C44.1275 27.6955 43.0908 27.6044 42.1658 27.7044C41.1374 27.8151 40.8087 27.9107 40.5488 28.1778C40.1476 28.59 40.0472 29.5992 40.3467 30.2021C40.5684 30.6473 40.7987 30.8108 41.3317 30.9001C41.8885 30.9925 41.9159 31.0135 41.9159 31.3378C41.9159 31.862 41.2612 32.2041 40.4119 32.126C39.5112 32.042 38.8384 31.5298 38.4115 30.6036C38.1811 30.1052 38.1733 30.0516 38.1759 29.0772C38.1794 27.7749 38.3215 27.3578 38.9983 26.6621C39.5551 26.0896 39.9907 25.9127 40.8487 25.9096C41.5533 25.9069 42.1667 26.082 42.823 26.4723C43.0934 26.633 43.4464 26.8085 43.6072 26.8617C44.6774 27.2172 45.7701 26.1865 45.7719 24.8204C45.7719 24.3461 45.6428 24.0938 45.1816 23.6678C44.7165 23.2381 43.7311 22.8143 42.6635 22.5848C41.592 22.3544 39.6629 22.3311 38.7779 22.5384C38.0151 22.717 36.7976 23.3199 36.2103 23.8098C35.3031 24.5663 34.5342 25.7176 34.1456 26.9019C33.6083 28.5377 33.767 30.4415 34.5794 32.1068C35.4348 33.8605 36.9571 35.0796 38.8536 35.5311C39.4604 35.6749 41.6803 35.6249 42.3597 35.4508C44.7765 34.8336 46.0196 33.3956 46.1992 31.0135C46.3165 29.4443 45.7897 28.3265 44.7473 27.9304H44.7469ZM13.0021 25.7979C14.5461 24.1112 14.7091 23.3087 13.628 22.7232C13.2425 22.5147 13.189 22.5071 12.0941 22.5071C11.0974 22.5071 10.9187 22.5272 10.6196 22.6714C9.93504 23.0019 9.48862 23.7004 8.57885 25.8654C8.11766 26.9626 7.79122 27.4092 7.3974 27.4856C6.61064 27.6374 6.32375 26.7746 6.53587 24.8883C6.68323 23.5731 6.49067 23.0439 5.72303 22.6509C5.32356 22.4473 3.81698 22.4423 3.45837 22.6438C2.86286 22.9782 2.59728 23.4726 2.40167 24.6105C2.28779 25.2728 2.26953 25.8998 2.26953 29.0709C2.26953 33.041 2.32343 33.8475 2.6364 34.5473C2.84374 35.0122 3.14714 35.3378 3.46663 35.4382C3.59616 35.4789 4.07604 35.5048 4.53332 35.495C5.24749 35.4802 5.41832 35.4503 5.74302 35.2851C6.04599 35.1297 6.15901 35.0135 6.31028 34.7027C6.49023 34.3321 6.49936 34.2486 6.5024 32.9164C6.50675 31.361 6.56587 31.0542 6.92578 30.7434C7.19875 30.508 7.4726 30.4937 7.80034 30.6987C8.14243 30.9139 8.29979 31.2837 8.57407 32.5176C9.05916 34.7005 9.27954 35.0917 10.1858 35.3744C10.6301 35.5128 10.8535 35.5307 11.8133 35.5066C12.8539 35.4807 12.9543 35.4646 13.3646 35.2574C14.1218 34.876 14.3939 34.2209 14.1323 33.4099C14.0132 33.0419 13.8532 32.8467 12.7383 31.712C11.2638 30.2124 11.0639 29.9114 11.0165 29.1205C10.9861 28.6167 11.0039 28.5252 11.2139 28.1175C11.5329 27.499 12.0024 26.8903 13.0021 25.7979ZM19.3658 24.1822C19.1571 23.2734 18.7729 22.7157 18.2482 22.5611C17.8379 22.4401 16.7021 22.4674 16.3791 22.6058C15.7779 22.8639 15.4941 23.2926 15.332 24.1876C15.0725 25.618 15.1346 32.6288 15.4189 34.0146C15.5893 34.8461 15.9175 35.2525 16.5895 35.4624C16.6938 35.4954 17.0676 35.524 17.4215 35.5267C18.3969 35.5343 18.8872 35.2377 19.2345 34.4299C19.4979 33.8181 19.5553 32.6177 19.5179 28.4855C19.4901 25.4152 19.4614 24.6011 19.3658 24.1827V24.1822ZM29.8232 22.4968C28.6535 22.5571 28.1575 22.8965 28.0962 23.6776C28.0793 23.8942 28.1519 24.631 28.2575 25.3147C28.5878 27.4494 28.5957 27.9161 28.3014 27.9161C28.0993 27.9161 27.7611 27.4114 26.98 25.9422C25.9237 23.9549 25.7251 23.6343 25.2439 23.1345C24.6744 22.5424 24.3884 22.4486 23.3009 22.4933C22.4724 22.5276 22.2246 22.612 21.866 22.98C21.2596 23.603 21.1705 24.3475 21.1662 28.8485C21.1618 33.1017 21.221 33.9002 21.5969 34.6692C21.7952 35.0734 21.9051 35.2033 22.1742 35.3489C22.4602 35.503 22.6176 35.5289 23.2713 35.5276C24.125 35.5253 24.531 35.3936 24.8105 35.0287C25.1204 34.625 25.1574 34.3464 25.0857 32.9691C24.9861 31.0711 24.9974 29.576 25.1117 29.4581C25.3743 29.1888 25.8876 29.9636 27.2747 32.7235C27.7841 33.7372 28.3009 34.6974 28.4235 34.8568C28.5461 35.0158 28.8247 35.2364 29.0425 35.3463C29.4081 35.5311 29.4989 35.5436 30.2144 35.5146C31.3602 35.4664 31.7557 35.2154 32.0774 34.3321C32.1596 34.1074 32.2613 33.6644 32.3034 33.3474C32.6016 31.1319 32.3969 25.1991 31.9692 23.6642C31.7162 22.7563 31.1168 22.4303 29.8232 22.4968Z" fill="#E1391E"/>
<path fill-rule="evenodd" clip-rule="evenodd" d="M1.17547 36.8652C0.917711 36.8692 0.819475 36.8786 0.747319 36.8902C0.693709 36.8976 0.64098 36.9106 0.589966 36.9291C0.509986 36.963 0.458259 36.9826 0.392189 37.0867C0.337854 37.1916 0.337854 37.2649 0.340897 37.3716C0.34307 37.4198 0.34959 37.4752 0.362631 37.5449C0.379465 37.6336 0.401235 37.7213 0.427832 37.8075C0.459998 37.916 0.505639 38.05 0.555627 38.1826C0.848189 38.8549 1.2208 39.4873 1.66492 40.0654C2.09959 40.6272 2.59295 41.109 3.12369 41.5498C3.66244 41.9957 4.23418 42.3978 4.8337 42.7524C5.46588 43.1258 6.12167 43.4552 6.7967 43.7385C7.514 44.0427 8.24779 44.3041 8.99442 44.5213C11.3999 45.2042 13.8645 45.6199 17.5084 45.8334C19.2662 45.9361 21.2988 45.9915 23.3796 45.9942H23.6652C25.8068 45.9915 27.9893 45.933 29.968 45.812C33.9613 45.5672 37.124 45.0689 40.2272 44.2771C41.1377 44.0206 42.0261 43.6877 42.8835 43.2816C43.6876 42.8971 44.3788 42.4738 44.996 42.0053C45.6124 41.5364 46.1548 41.0215 46.646 40.3963C47.1562 39.7392 47.5855 39.0198 47.924 38.2545C48.0718 37.8955 48.2013 37.5221 47.9553 37.1765C47.897 37.1031 47.8239 37.0437 47.741 37.0023C47.6744 36.9655 47.6031 36.9383 47.5293 36.9215C47.4116 36.8938 47.2917 36.8771 47.1711 36.8714H2.26781C1.85053 36.8625 1.43324 36.8612 1.17547 36.8652Z" fill="#E0A000"/>
<path fill-rule="evenodd" clip-rule="evenodd" d="M46.3473 9.42908C46.6168 9.41836 46.8858 9.39781 47.0562 9.37683C47.2271 9.35584 47.2997 9.33485 47.3583 9.31475C47.417 9.29465 47.4627 9.27545 47.5014 9.25491C47.7083 9.13389 47.73 9.02358 47.7608 8.90434C47.7695 8.86013 47.7752 8.81056 47.7761 8.75072C47.7761 8.69133 47.7717 8.62255 47.7595 8.53681C47.7427 8.42968 47.7192 8.32377 47.6891 8.21974C47.6526 8.09023 47.6005 7.93393 47.5422 7.7803C47.4248 7.47306 47.2588 7.17921 46.9832 6.81971C46.7068 6.45977 46.3212 6.03329 45.7813 5.55813C45.2423 5.08297 44.5477 4.55913 43.7966 4.08084C43.0251 3.59156 42.22 3.16052 41.3876 2.79112C39.8906 2.14001 38.3032 1.63448 36.225 1.18701C34.1468 0.739535 31.5774 0.351011 28.6929 0.153177C27.2063 0.0513566 25.6354 0 24.0628 0C22.5849 0 21.1061 0.0455511 19.6934 0.1371C16.7767 0.326003 14.1422 0.710508 12.0049 1.15843C9.86757 1.60679 8.22754 2.11768 6.67836 2.77772C5.91998 3.0978 5.17568 3.45198 4.4476 3.83924C3.84089 4.16165 3.25148 4.51734 2.68195 4.90478C2.17077 5.254 1.73131 5.59698 1.34054 6.01051C0.946811 6.4299 0.61259 6.90422 0.347741 7.41947C0.265152 7.57131 0.192127 7.72671 0.139096 7.86337C0.0856311 8.00002 0.0521611 8.11792 0.0304273 8.22152C0.00869351 8.32558 0 8.41579 0 8.49617C0 8.57656 0.00869351 8.64801 0.0234725 8.71276C0.0647667 8.87308 0.129533 9.01108 0.326441 9.158C0.380341 9.19641 0.4425 9.23258 0.51596 9.26518C0.588985 9.29823 0.673747 9.3286 0.774592 9.3545C0.875437 9.38129 0.993234 9.40362 1.13668 9.41925C1.28012 9.43488 1.44877 9.44337 1.61743 9.44337L46.3473 9.42908Z" fill="#E0A006"/>
</g>
<defs>
<clipPath id="clip0_1744_3210">
<rect width="48" height="46" fill="white"/>
</clipPath>
</defs>
</svg>
