<svg width="41" height="40" viewBox="0 0 41 40" fill="none" xmlns="http://www.w3.org/2000/svg">
<g clip-path="url(#clip0_867_2918)">
<path fill-rule="evenodd" clip-rule="evenodd" d="M5.46805 16.2048C5.38934 16.4157 5.26867 16.5699 5.14058 16.6242C4.83501 16.7528 4.54504 16.7291 4.35902 16.5602C4.24467 16.4565 4.17487 16.0938 4.17561 15.6087C4.17672 15.2243 4.23501 15.055 4.41137 14.9284C4.69467 14.7241 5.29206 14.9455 5.44281 15.3101C5.52634 15.5128 5.54045 16.0111 5.46805 16.2052V16.2048ZM4.21162 12.0237C4.27363 11.7068 4.3891 11.6121 4.70803 11.6179C5.01768 11.6237 5.25085 11.7837 5.35815 12.0641C5.51298 12.4679 5.39825 13.0625 5.12981 13.2504C4.97387 13.3592 4.62783 13.4267 4.43922 13.3856C4.37982 13.3724 4.30147 13.3001 4.26583 13.2252C4.18303 13.05 4.15073 12.3355 4.21162 12.0237ZM7.77039 15.9427C7.72732 15.2126 7.51161 14.6869 7.08946 14.2845C6.99738 14.1968 6.92164 14.0865 6.92164 14.0407C6.92164 13.9941 6.99886 13.8368 7.09317 13.6912C7.42139 13.186 7.56099 12.5068 7.48265 11.8012C7.36755 10.7709 6.88711 10.1166 5.99008 9.76865C5.70976 9.65915 5.59763 9.65021 4.56769 9.65099C3.53774 9.65177 3.42487 9.66148 3.13898 9.77137C2.61361 9.97369 2.37413 10.2308 2.18738 10.7938C2.03144 11.2637 2.00099 11.8117 2.00062 14.1847C2.00062 16.5939 2.03552 17.1228 2.23156 17.6576C2.51411 18.4304 2.88242 18.6707 3.90086 18.7453C5.06447 18.8307 5.94441 18.7783 6.42003 18.5954C7.28438 18.2622 7.84205 17.1663 7.77039 15.9427ZM8.63994 16.7632C8.92472 17.9321 9.39514 18.6039 10.036 18.7589C10.506 18.8723 10.9883 18.7305 11.3678 18.3682C11.7732 17.9818 11.8943 17.8952 12.0294 17.8945C12.2132 17.8929 12.2882 17.9632 12.472 18.3076C12.6829 18.703 12.8147 18.7795 13.2925 18.7826C13.9348 18.7864 14.1391 18.5457 14.3124 17.5791C14.5742 16.119 14.618 13.2454 14.4053 11.4804C14.2924 10.541 14.1004 10.07 13.724 9.80904C13.5324 9.67623 13.4659 9.65992 13.1355 9.66186C12.7059 9.66497 12.4753 9.78225 12.2741 10.0991C12.0194 10.5014 11.9871 11.0366 12.123 12.5906C12.1813 13.2632 12.2091 13.8982 12.211 14.6053C12.2132 15.5486 12.2061 15.6596 12.1297 15.8883C12.0086 16.2507 11.8104 16.4413 11.5245 16.4701C11.3975 16.4829 11.23 16.4763 11.1517 16.4565C10.9586 16.406 10.6976 16.0382 10.6285 15.7194C10.5443 15.3288 10.5699 14.2294 10.6898 13.0955C10.8198 11.866 10.835 10.882 10.7307 10.468C10.581 9.87467 10.2283 9.6009 9.66803 9.64361C8.934 9.69953 8.63846 10.1853 8.43537 11.6695C8.38227 12.0582 8.36853 12.4683 8.36891 13.6539C8.36965 15.3357 8.41309 15.8328 8.63994 16.7632ZM35.6302 12.793C35.6424 12.4792 35.6725 12.1421 35.6985 12.0439C35.7571 11.8148 35.912 11.7056 36.1748 11.7072C36.7047 11.7103 37.021 12.2276 36.92 12.9254C36.861 13.3292 36.7852 13.4722 36.5461 13.6287C36.3512 13.7564 36.0115 13.8286 35.8203 13.784C35.6606 13.7467 35.6042 13.4527 35.6302 12.793ZM34.1517 18.6917C34.3593 18.7942 34.9277 18.7911 35.1813 18.687C35.4609 18.5717 35.6703 18.2781 35.7338 17.9131C35.7698 17.7046 35.7709 17.4976 35.7386 17.0541C35.6569 15.9276 35.6914 15.5901 35.8997 15.4891C36.0519 15.415 36.2175 15.5319 36.3211 15.7874C36.3701 15.9062 36.4882 16.3606 36.5844 16.797C36.8417 17.9612 37.0151 18.369 37.3604 18.6249C37.5052 18.7325 37.5776 18.7441 38.1092 18.7422C38.6264 18.7406 38.7248 18.7259 38.9201 18.6179C39.212 18.4571 39.3393 18.3123 39.4273 18.042C39.6371 17.4044 39.4585 16.9702 38.5993 16.0305C38.1772 15.5684 38.0506 15.3439 38.0506 15.0585C38.0506 14.8604 38.0777 14.8057 38.384 14.3816C38.7835 13.8294 38.9784 13.3459 39.0233 12.7922C39.1403 11.3593 38.4998 10.2545 37.2854 9.79234C36.998 9.68283 36.8799 9.67196 35.873 9.67002C34.6834 9.6673 34.4963 9.70303 34.1714 9.99117C33.7073 10.4024 33.5383 11.0397 33.4555 12.6842C33.3973 13.8321 33.4351 16.7151 33.5161 17.3236C33.6141 18.0618 33.8339 18.5344 34.1517 18.6917ZM25.8234 18.7278C27.0772 18.2956 27.7229 17.2894 27.8153 15.6231C27.877 14.5253 27.6037 13.7428 27.0624 13.4659C26.7409 13.3017 26.2029 13.238 25.7224 13.3075C25.1889 13.3852 25.0185 13.452 24.8833 13.6391C24.6754 13.9273 24.6234 14.6333 24.779 15.055C24.8941 15.3668 25.0129 15.481 25.2899 15.5431C25.5787 15.6087 25.5932 15.6227 25.5932 15.8503C25.5932 16.2165 25.2531 16.4565 24.8124 16.4013C24.3446 16.3427 23.9956 15.9846 23.7747 15.3361C23.6551 14.9874 23.651 14.9501 23.6521 14.2682C23.654 13.3572 23.7279 13.0652 24.0791 12.5786C24.368 12.1782 24.5941 12.0544 25.0389 12.052C25.4053 12.0501 25.7232 12.1724 26.0636 12.4454C26.204 12.5584 26.387 12.6807 26.4706 12.7184C27.0256 12.9669 27.5926 12.2454 27.5937 11.2897C27.5937 10.9573 27.5261 10.781 27.2866 10.4843C27.0408 10.1814 26.5318 9.88515 25.9853 9.7271C25.4246 9.56439 24.4255 9.54769 23.9648 9.69293C23.569 9.81797 22.937 10.2397 22.6322 10.5826C22.1614 11.1119 21.7623 11.9177 21.5607 12.7464C21.2822 13.8908 21.3643 15.2227 21.786 16.3877C22.2297 17.6149 23.0198 18.4684 24.0041 18.7837C24.3186 18.8847 25.4707 18.8497 25.8234 18.7278ZM17.5218 12.7926C17.5341 12.4788 17.5649 12.1417 17.5902 12.0435C17.6488 11.8144 17.804 11.7056 18.0669 11.7068C18.5967 11.7099 18.9127 12.2272 18.8117 12.925C18.7534 13.3289 18.6769 13.4722 18.4378 13.6283C18.2432 13.7556 17.9035 13.8283 17.7123 13.7836C17.5527 13.7459 17.4962 13.452 17.5218 12.7926ZM17.0733 18.6863C17.3525 18.5713 17.5623 18.2773 17.6254 17.9123C17.6618 17.7038 17.6626 17.4968 17.6306 17.0529C17.5489 15.9268 17.5835 15.5897 17.7914 15.488C17.944 15.4142 18.11 15.5315 18.2135 15.7866C18.2618 15.9054 18.3802 16.3598 18.4764 16.7963C18.7333 17.9605 18.9064 18.3682 19.252 18.6241C19.3968 18.7317 19.4692 18.7433 20.0013 18.7418C20.5185 18.7398 20.6165 18.7251 20.8122 18.6175C21.1033 18.4564 21.231 18.3115 21.3193 18.0412C21.5287 17.404 21.3498 16.9695 20.4914 16.0297C20.0692 15.5676 19.9426 15.3431 19.9426 15.0577C19.9426 14.8604 19.9697 14.8053 20.276 14.3812C20.6755 13.8286 20.8701 13.3452 20.9154 12.7914C21.0323 11.3585 20.3919 10.2537 19.1774 9.79118C18.8893 9.68206 18.772 9.67157 17.7647 9.66963C16.5758 9.66691 16.3883 9.70225 16.0631 9.99039C15.5993 10.4016 15.43 11.0389 15.3472 12.6835C15.2893 13.8314 15.3268 16.7143 15.4077 17.3224C15.5058 18.0614 15.7256 18.534 16.0437 18.6909C16.2509 18.7934 16.8197 18.7903 17.0733 18.6863ZM32.8103 17.3795C32.8103 17.0922 32.7917 16.9563 32.7204 16.7221C32.5552 16.1757 32.2552 16.0646 31.5657 16.2934C31.1302 16.4382 30.545 16.4875 30.4348 16.3885C30.2937 16.2623 30.1979 15.968 30.2176 15.7206C30.2387 15.4476 30.3872 15.2072 30.5398 15.1971C30.7515 15.1831 30.9765 15.2123 31.2148 15.2849C31.3492 15.3257 31.5835 15.3754 31.7358 15.3952C31.9882 15.4278 32.0254 15.4196 32.1583 15.3004C32.3784 15.1028 32.4683 14.7742 32.4676 14.1727C32.4676 13.7817 32.4546 13.6714 32.3862 13.4671C32.2604 13.0885 32.133 12.9755 31.8371 12.9766C31.7005 12.9774 31.4064 13.0143 31.1822 13.0594C30.4886 13.1984 30.238 13.0458 30.238 12.4839C30.238 12.261 30.4188 11.946 30.5525 11.9363C30.7689 11.9208 31.0236 11.9584 31.3292 12.0513C31.9908 12.2532 32.1564 12.24 32.3491 11.9685C32.5622 11.6695 32.6313 10.8148 32.4783 10.3546C32.2815 9.75856 31.9177 9.63507 30.473 9.67507C29.7769 9.69448 29.4965 9.72167 29.3755 9.78186C28.8475 10.0444 28.5858 10.4979 28.4644 11.3577C28.3389 12.2544 28.314 15.9765 28.4276 16.8409C28.497 17.3667 28.6422 17.8051 28.8527 18.1263C29.1048 18.5107 29.361 18.6564 29.9618 18.7565C30.0334 18.7682 30.5313 18.7721 31.0686 18.7647C31.816 18.7546 32.0833 18.7325 32.208 18.6711C32.6573 18.449 32.8103 18.1212 32.8103 17.3795ZM38.2203 24.2871C37.6912 24.0829 36.8057 24.0037 36.0156 24.0906C35.1371 24.1869 34.8564 24.2701 34.6344 24.5023C34.2917 24.8607 34.2059 25.7383 34.4617 26.2626C34.6511 26.6497 34.8479 26.7919 35.3031 26.8695C35.7787 26.9499 35.8021 26.9682 35.8021 27.2501C35.8021 27.706 35.2429 28.0035 34.5174 27.9355C33.7481 27.8625 33.1734 27.4171 32.8088 26.6117C32.612 26.1783 32.6053 26.1317 32.6075 25.2844C32.6105 24.152 32.7319 23.7893 33.31 23.1843C33.7856 22.6864 34.1576 22.5327 34.8906 22.5299C35.4924 22.5276 36.0163 22.6798 36.5769 23.0192C36.8079 23.159 37.1094 23.3117 37.2467 23.3579C38.1608 23.667 39.0943 22.7707 39.0957 21.5828C39.0957 21.1704 38.9855 20.951 38.5915 20.5805C38.1943 20.207 37.3526 19.8384 36.4407 19.6388C35.5255 19.4385 33.8777 19.4183 33.1218 19.5984C32.4702 19.7538 31.4302 20.278 30.9286 20.704C30.1537 21.3619 29.4969 22.363 29.165 23.3928C28.7061 24.8153 28.8416 26.4707 29.5355 27.9188C30.2662 29.4438 31.5664 30.5039 33.1864 30.8965C33.7047 31.0216 35.6008 30.9781 36.1812 30.8266C38.2455 30.2899 39.3074 29.0395 39.4607 26.9682C39.561 25.6036 39.111 24.6316 38.2206 24.2871H38.2203ZM11.1049 22.4329C12.4237 20.9661 12.5629 20.2683 11.6396 19.7592C11.3102 19.5779 11.2646 19.5713 10.3293 19.5713C9.47794 19.5713 9.32534 19.5887 9.06989 19.7142C8.48512 20.0015 8.10381 20.6089 7.32671 22.4915C6.93277 23.4456 6.65394 23.834 6.31755 23.9004C5.64553 24.0324 5.40048 23.2821 5.58167 21.6418C5.70753 20.4982 5.54305 20.038 4.88736 19.6963C4.54615 19.5192 3.25928 19.515 2.95297 19.6901C2.4443 19.981 2.21745 20.4108 2.05037 21.4003C1.95309 21.9762 1.9375 22.5214 1.9375 25.2789C1.9375 28.7312 1.98354 29.4325 2.25086 30.041C2.42797 30.4453 2.68713 30.7284 2.96002 30.8157C3.07066 30.8511 3.48056 30.8736 3.87115 30.8651C4.48118 30.8522 4.62709 30.8262 4.90444 30.6825C5.16323 30.5474 5.25976 30.4464 5.38897 30.1762C5.54268 29.8538 5.55048 29.7812 5.55308 28.6228C5.55679 27.2703 5.60729 27.0035 5.91471 26.7332C6.14788 26.5286 6.38179 26.5161 6.66174 26.6944C6.95394 26.8816 7.08834 27.2031 7.32262 28.2761C7.73698 30.1742 7.92522 30.5144 8.69935 30.7602C9.0788 30.8806 9.26964 30.8961 10.0894 30.8752C10.9783 30.8526 11.0641 30.8386 11.4146 30.6585C12.0613 30.3268 12.2938 29.7572 12.0703 29.0519C11.9685 28.732 11.8319 28.5623 10.8795 27.5755C9.62014 26.2715 9.44935 26.0098 9.40888 25.322C9.38289 24.884 9.39811 24.8044 9.57744 24.4498C9.84996 23.912 10.251 23.3827 11.1049 22.4329ZM16.5405 21.0279C16.3623 20.2376 16.0341 19.7526 15.586 19.6183C15.2355 19.513 14.2653 19.5367 13.9894 19.6571C13.4759 19.8815 13.2335 20.2543 13.095 21.0325C12.8733 22.2764 12.9264 28.3728 13.1693 29.5777C13.3148 30.3008 13.5951 30.6542 14.1691 30.8367C14.2582 30.8654 14.5775 30.8903 14.8798 30.8926C15.7129 30.8992 16.1317 30.6414 16.4284 29.9389C16.6534 29.4069 16.7024 28.363 16.6705 24.7698C16.6467 22.1001 16.6222 21.3921 16.5405 21.0283V21.0279ZM25.4729 19.5623C24.4738 19.6148 24.0501 19.9099 23.9978 20.5891C23.9833 20.7774 24.0453 21.4182 24.1355 22.0127C24.4177 23.8689 24.4244 24.2747 24.173 24.2747C24.0004 24.2747 23.7115 23.8359 23.0443 22.5583C22.1421 20.8302 21.9724 20.5514 21.5614 20.1169C21.075 19.6019 20.8307 19.5204 19.9018 19.5592C19.1941 19.5891 18.9825 19.6625 18.6762 19.9825C18.1582 20.5242 18.0821 21.1716 18.0784 25.0855C18.0747 28.784 18.1252 29.4783 18.4463 30.147C18.6156 30.4985 18.7096 30.6115 18.9394 30.7381C19.1837 30.872 19.3181 30.8946 19.8765 30.8934C20.6057 30.8915 20.9525 30.7769 21.1912 30.4596C21.456 30.1086 21.4875 29.8663 21.4263 28.6687C21.3412 27.0183 21.3509 25.7181 21.4485 25.6156C21.6728 25.3815 22.1113 26.0552 23.2961 28.4551C23.7312 29.3366 24.1727 30.1715 24.2774 30.3101C24.3821 30.4484 24.6201 30.6402 24.8061 30.7357C25.1183 30.8965 25.1959 30.9074 25.8071 30.8821C26.7858 30.8402 27.1236 30.622 27.3984 29.8538C27.4686 29.6585 27.5555 29.2733 27.5915 28.9976C27.8462 27.0711 27.6713 21.9121 27.3059 20.5774C27.0899 19.788 26.5779 19.5045 25.4729 19.5623Z" fill="#E1391E"/>
<path fill-rule="evenodd" clip-rule="evenodd" d="M1.00674 32.0566C0.786564 32.0601 0.702654 32.0682 0.64102 32.0783C0.595229 32.0847 0.550189 32.096 0.506615 32.1121C0.438298 32.1416 0.394115 32.1587 0.33768 32.2492C0.291269 32.3404 0.291269 32.4041 0.293868 32.4969C0.295725 32.5389 0.301294 32.587 0.312433 32.6476C0.326812 32.7248 0.345407 32.801 0.368125 32.8759C0.3956 32.9703 0.434585 33.0868 0.477283 33.2021C0.727181 33.7867 1.04545 34.3367 1.4248 34.8393C1.79609 35.3279 2.2175 35.7469 2.67084 36.1301C3.13102 36.5179 3.61938 36.8675 4.13147 37.1759C4.67145 37.5006 5.23162 37.787 5.8082 38.0333C6.42089 38.2979 7.04767 38.5252 7.68542 38.7141C9.74011 39.3078 11.8453 39.6694 14.9578 39.855C16.4593 39.9443 18.1954 39.9925 19.9727 39.9948H20.2167C22.046 39.9925 23.9102 39.9416 25.6003 39.8364C29.0113 39.6236 31.7128 39.1902 34.3634 38.5017C35.1411 38.2787 35.9 37.9892 36.6323 37.6361C37.3192 37.3017 37.9095 36.9336 38.4368 36.5262C38.9632 36.1185 39.4266 35.6707 39.8462 35.1271C40.282 34.5557 40.6486 33.9301 40.9377 33.2647C41.064 32.9524 41.1746 32.6278 40.9645 32.3272C40.9147 32.2634 40.8522 32.2118 40.7814 32.1758C40.7245 32.1438 40.6637 32.1201 40.6006 32.1055C40.5001 32.0815 40.3977 32.0669 40.2947 32.062H1.93978C1.58334 32.0542 1.22691 32.0531 1.00674 32.0566Z" fill="#E0A000"/>
<path fill-rule="evenodd" clip-rule="evenodd" d="M39.5883 8.1992C39.8185 8.18988 40.0483 8.17201 40.1939 8.15376C40.3398 8.13551 40.4018 8.11726 40.4519 8.09978C40.502 8.08231 40.541 8.06561 40.5741 8.04775C40.7508 7.94251 40.7694 7.84659 40.7957 7.74291C40.8032 7.70446 40.808 7.66136 40.8087 7.60932C40.8087 7.55767 40.805 7.49787 40.7946 7.42331C40.7802 7.33016 40.7601 7.23806 40.7345 7.1476C40.7033 7.03498 40.6587 6.89907 40.609 6.76548C40.5087 6.49831 40.3669 6.24279 40.1315 5.93018C39.8954 5.61719 39.566 5.24634 39.1049 4.83315C38.6445 4.41997 38.0512 3.96446 37.4096 3.54856C36.7506 3.12309 36.0629 2.74828 35.3519 2.42706C34.0732 1.86088 32.7173 1.42129 30.9422 1.03218C29.1671 0.643074 26.9724 0.305227 24.5086 0.133197C23.2388 0.0446579 21.8969 0 20.5536 0C19.2912 0 18.0281 0.0396096 16.8215 0.119217C14.3301 0.283481 12.0798 0.617833 10.2542 1.00733C8.42855 1.39721 7.02769 1.84146 5.70443 2.41541C5.05665 2.69374 4.42089 3.00172 3.79899 3.33847C3.28076 3.61883 2.77731 3.92813 2.29083 4.26503C1.8542 4.5687 1.47883 4.86694 1.14504 5.22653C0.808734 5.59122 0.523254 6.00367 0.297028 6.45171C0.226484 6.58374 0.164108 6.71888 0.118811 6.83771C0.0731432 6.95654 0.0445542 7.05906 0.02599 7.14915C0.00742571 7.23963 0 7.31808 0 7.38797C0 7.45787 0.00742571 7.52001 0.0200494 7.57631C0.0553215 7.71572 0.110643 7.83572 0.278835 7.96348C0.324875 7.99688 0.377969 8.02833 0.440716 8.05668C0.503092 8.08541 0.575492 8.11182 0.661631 8.13435C0.747769 8.15764 0.848387 8.17706 0.970911 8.19065C1.09344 8.20424 1.23749 8.21162 1.38155 8.21162L39.5883 8.1992Z" fill="#E0A006"/>
</g>
<defs>
<clipPath id="clip0_867_2918">
<rect width="41" height="40" fill="white"/>
</clipPath>
</defs>
</svg>
