<svg width="137" height="51" viewBox="0 0 137 51" fill="none" xmlns="http://www.w3.org/2000/svg">
<path d="M123.379 12.2293C123.433 11.8911 123.632 11.607 123.778 11.3229C124.098 10.6736 124.417 10.0378 124.59 9.33432C124.656 9.03671 124.776 8.67146 124.51 8.44148C124.204 8.17093 123.871 8.4009 123.592 8.56323C122.834 9.00965 122.169 9.56429 121.517 10.1325C119.522 11.8505 117.74 13.7985 116.104 15.8818C113.072 19.7508 110.398 23.8632 107.951 28.1245C107.459 28.9768 106.967 29.829 106.541 30.803C106.914 30.803 107.126 30.5866 107.339 30.4242C108.523 29.5043 109.667 28.5439 110.757 27.5293C112.526 25.8924 114.229 24.1879 115.878 22.4158C117.115 21.09 118.299 19.7237 119.403 18.2762C119.921 17.5998 120.334 17.451 121.278 17.6269C121.025 18.2356 120.613 18.7362 120.214 19.2367C117.953 22.0776 115.532 24.7696 112.939 27.2993C110.691 29.4773 108.297 31.4929 105.73 33.2651C105.251 33.5898 104.919 33.9685 104.679 34.5232C104.027 36.0248 103.416 37.5534 102.924 39.1226C102.751 39.6773 102.604 40.2455 102.511 40.8272C102.445 41.2059 102.458 41.5847 102.551 41.9635C102.737 42.6805 103.216 42.924 103.841 42.5317C104.533 42.1123 105.065 41.49 105.57 40.8677C106.9 39.2579 107.991 37.4722 109.148 35.7407C110.704 33.4274 112.367 31.2089 114.375 29.2744C115.426 28.2598 116.583 27.394 117.833 26.6635C118.511 26.2712 119.27 26.0683 120.054 26.0547C120.985 26.0412 121.743 26.3659 122.249 27.1911C122.275 27.2452 122.342 27.2723 122.382 27.2993C122.422 27.2858 122.448 27.2858 122.462 27.2858C122.794 26.4741 123.446 26.3929 124.204 26.4335C125.015 26.4876 125.84 26.4335 126.664 26.4471C127.13 26.4606 127.183 26.5417 126.944 26.9611L123.832 32.3181C122.076 35.3484 120.307 38.3651 118.644 41.4494C118.485 41.7335 118.245 42.0717 118.538 42.3693C118.831 42.6805 119.163 42.437 119.442 42.2611C120.201 41.7876 120.866 41.1924 121.464 40.516C122.595 39.2444 123.632 37.8916 124.616 36.5118C124.935 36.0654 125.587 35.8624 126.079 36.0518C126.239 36.1195 126.279 36.2277 126.212 36.363C126.159 36.4847 126.079 36.5929 125.999 36.7147C124.59 38.9062 122.994 40.9489 121.211 42.8428C120.24 43.8574 119.216 44.8314 118.006 45.5619C117.354 45.9542 116.676 46.2654 115.918 46.4006C114.641 46.6306 113.67 45.9813 113.564 44.6826C113.537 44.3038 113.484 43.9386 113.444 43.5463C113.125 43.5463 113.005 43.7898 112.832 43.9521C111.901 44.7908 110.917 45.5484 109.786 46.1165C109.188 46.4142 108.563 46.5224 107.911 46.4142C106.887 46.2383 106.169 45.4402 106.022 44.3444C105.943 43.7898 105.983 43.2351 105.983 42.6128C105.69 42.7211 105.57 42.9375 105.397 43.1134C104.48 44.1009 103.535 45.0478 102.392 45.7513C101.873 46.076 101.314 46.2924 100.729 46.4142C99.3191 46.6982 98.0024 45.6025 97.7497 44.0062C97.5901 42.951 97.7364 41.9364 97.9758 40.9218C98.3083 39.4744 98.8137 38.0675 99.2792 36.6606C99.3324 36.5118 99.3856 36.363 99.4255 36.2142C99.5851 35.673 99.5585 35.6595 98.9866 35.7272C98.9201 35.7407 98.8536 35.7407 98.7871 35.7542C97.2443 35.8624 97.5369 35.7407 96.7655 36.9988C95.5552 38.9738 94.2517 40.8677 92.6557 42.5587C91.4321 43.8574 90.0755 44.9532 88.5193 45.8054C87.8942 46.1571 87.2159 46.36 86.4977 46.4412C85.048 46.59 83.9839 45.8189 83.6647 44.3715C83.3721 43.0322 83.5716 41.72 83.9573 40.4348C84.5957 38.338 85.5268 36.363 86.7504 34.5502C88.0272 32.6699 89.3838 30.8707 91.0464 29.3285C92.3631 28.0974 93.8128 27.0693 95.4754 26.4065C96.0606 26.1765 96.6591 26.0412 97.2842 26.0547C98.9068 26.0683 99.7181 26.8799 99.8112 28.5439C99.8777 29.7343 99.6649 30.8707 99.2526 31.9799C99.0132 32.6293 98.7472 33.2786 98.4413 33.9009C98.3615 34.0497 98.2019 34.2256 98.3083 34.4014C98.4413 34.6179 98.6807 34.4555 98.8669 34.442C99.0265 34.442 99.1728 34.3879 99.3191 34.3608C99.9709 34.2391 100.396 33.8738 100.702 33.2516C102.564 29.4908 104.666 25.8518 107.033 22.3887C109.933 18.1545 113.218 14.2585 117.048 10.8765C118.618 9.49666 120.201 8.10329 122.129 7.21045C122.887 6.85872 123.659 6.6017 124.497 6.64228C125.481 6.68286 125.933 7.14281 125.986 8.1574C126.026 8.91496 125.853 9.63193 125.6 10.3354C125.467 10.6871 125.295 11.0388 125.135 11.377C124.763 12.1075 124.284 12.3375 123.379 12.2293ZM112.034 42.3964C112.393 42.3829 112.739 42.1123 113.072 41.8012C114.282 40.6919 115.226 39.3391 116.077 37.9457C117.767 35.2131 119.389 32.4534 121.052 29.7073C121.185 29.4773 121.331 29.2473 121.411 28.9903C121.57 28.4762 121.278 28.138 120.746 28.2192C120.28 28.2868 119.841 28.4627 119.482 28.7874C118.831 29.3961 118.126 29.9508 117.527 30.6136C116.516 31.75 115.532 32.9134 114.681 34.1715C113.417 36.0248 112.234 37.9322 111.462 40.0696C111.303 40.516 111.156 40.976 111.13 41.4359C111.09 42.0582 111.396 42.4099 112.034 42.3964ZM92.6291 32.7104C92.2966 33.0081 92.0838 33.4139 91.8311 33.7791C90.6607 35.4837 89.5966 37.2423 88.8784 39.2038C88.6789 39.7314 88.5459 40.286 88.506 40.8407C88.4129 42.0447 89.2242 42.6669 90.3282 42.2341C90.8735 42.0176 91.339 41.6794 91.7646 41.2871C93.3606 39.8261 94.5843 38.0539 95.6616 36.1871C96.0074 35.5919 95.9941 35.5784 95.3557 35.2402C94.4645 34.7667 93.6665 34.185 93.0813 33.3192C92.9483 33.1163 92.8685 32.8728 92.6291 32.7104ZM98.4147 29.5449V29.2744C98.3482 28.1245 97.6699 27.6916 96.6059 28.0974C95.9675 28.341 95.4355 28.7333 94.9966 29.2473C94.5576 29.7614 94.2384 30.3431 94.1985 31.06C94.0921 32.724 95.2759 33.6574 96.4197 34.1579C96.7123 34.2797 96.8719 34.1173 96.9916 33.8738C97.3507 33.1839 97.7231 32.4805 97.9492 31.7229C98.162 31.0059 98.4413 30.3025 98.4147 29.5449ZM61.7326 17.1669C61.9321 16.5582 62.3843 16.5041 62.9163 16.5311C63.7542 16.5582 64.6055 16.5447 65.4434 16.5447C66.2414 16.5447 66.2813 16.6123 65.8557 17.3293C64.938 18.8985 64.0069 20.4542 63.0759 22.0234C61.2937 25.0402 59.5115 28.0433 57.7292 31.06C57.6095 31.2765 57.4898 31.4929 57.4632 31.75C57.41 32.264 57.676 32.494 58.1415 32.3046C58.3809 32.2099 58.607 32.0476 58.8331 31.8988C60.1233 31.0059 61.1607 29.829 62.1582 28.6115C62.637 28.0298 63.1025 27.4211 63.5813 26.8258C63.8872 26.4335 64.6986 26.2171 65.1375 26.4065C65.2572 26.4606 65.2971 26.5688 65.2306 26.677C65.1375 26.8258 65.0311 26.9746 64.9247 27.1234C63.6079 28.9362 62.2646 30.7354 60.7218 32.3452C59.3386 33.7927 57.9021 35.2266 56.0667 36.1059C55.4815 36.39 54.8697 36.62 54.2179 36.5253C53.2736 36.39 52.6352 35.673 52.5554 34.6314C52.5288 34.3473 52.5554 34.0497 52.5554 33.698C52.2362 33.8062 52.1165 34.0362 51.9436 34.1985C51.1722 34.9561 50.321 35.5919 49.3501 36.0654C48.6983 36.3765 48.02 36.5253 47.2885 36.4982C45.9984 36.4441 45.2004 35.646 45.1339 34.3203C45.094 33.6168 45.1871 32.9269 45.3201 32.237C45.36 32.0476 45.4664 31.8582 45.36 31.6012C44.6684 32.237 44.0565 32.9134 43.3383 33.4815C42.261 34.3473 41.1704 35.1996 39.9069 35.7948C38.763 36.3224 37.5926 36.7012 36.3025 36.4847C34.7331 36.2142 33.3897 34.929 33.2168 33.1433C33.0705 31.5741 33.4296 30.0996 33.9749 28.6656C34.4405 27.4211 35.0124 26.2306 35.7838 24.9455C35.1055 25.1078 34.5868 25.2295 34.0547 25.3513C33.8286 25.4054 33.7488 25.5948 33.6557 25.7707C32.2991 28.1921 30.61 30.3566 28.7346 32.3722C27.8036 33.3733 26.8194 34.3067 25.7155 35.1049C24.9308 35.6595 24.1061 36.133 23.1751 36.39C21.1136 36.9717 19.4245 35.7677 19.2649 33.5898C19.1718 32.3046 19.3713 31.06 19.757 29.8561C20.6348 27.1776 22.0446 24.7967 23.7736 22.5916C24.9973 21.0359 26.3539 19.6155 27.91 18.4115C29.0804 17.5051 30.3307 16.7341 31.7405 16.2876C32.339 16.0982 32.9508 15.9765 33.5759 16.0712C34.9991 16.2606 35.8636 17.2211 35.9434 18.6956C36.0232 20.1972 35.5976 21.5906 35.0257 22.9433C34.9326 23.1598 34.7597 23.3627 34.8129 23.6738C35.172 23.7009 35.4646 23.5521 35.7572 23.4033C36.8877 22.8486 37.8586 22.0776 38.8029 21.2524C39.8803 20.3054 40.8246 19.2367 41.9418 18.3439C43.0058 17.4916 44.123 16.7205 45.4265 16.2876C46.2644 16.0036 47.1289 15.99 47.9801 16.1929C49.3899 16.5311 50.1614 17.9921 49.8156 19.6155C49.5496 20.86 48.951 21.9287 48.0998 22.8486C47.8205 23.1463 47.5013 23.3898 47.1156 23.5115C46.0915 23.8362 45.3201 23.1327 45.5462 22.0776C45.8255 20.7383 46.5969 19.859 47.9269 19.5614C48.2594 19.4802 48.5254 19.4261 48.5121 18.9932C48.4988 18.5738 48.2727 18.2492 47.8604 18.1815C47.488 18.1139 47.1156 18.1815 46.7565 18.3303C45.9585 18.655 45.3334 19.2367 44.7083 19.8184C41.8487 22.4969 39.8537 25.7571 38.4438 29.4232C38.1778 30.0996 37.9916 30.7895 38.0448 31.5335C38.1379 33.0757 39.0556 33.7656 40.5187 33.3327C41.6093 33.0081 42.4871 32.3181 43.3117 31.5606C45.4664 29.572 47.2885 27.2722 49.0175 24.8913C50.454 22.9163 51.9835 21.0089 53.7524 19.3314C55.0293 18.1139 56.3593 16.9505 58.0617 16.3417C58.3942 16.22 58.74 16.1388 59.0991 16.0982C59.8972 16.0036 60.5888 16.22 61.174 16.7746C61.3336 16.8829 61.44 17.0723 61.7326 17.1669ZM59.9637 18.1545C59.7243 18.141 59.4583 18.2492 59.1922 18.3709C58.5006 18.6956 58.0484 19.2773 57.543 19.8184C55.1756 22.4022 53.1805 25.2701 51.4648 28.3274C50.9195 29.3014 50.4141 30.316 50.2412 31.4524C50.1215 32.2776 50.5737 32.6563 51.3318 32.3587C51.9702 32.1152 52.4756 31.6823 52.9145 31.1683C53.9785 29.9237 54.9096 28.5845 55.7874 27.2046C57.4499 24.5667 59.0193 21.8746 60.5356 19.1555C60.9213 18.5062 60.7218 18.1545 59.9637 18.1545ZM28.5617 22.6051C28.5218 22.6187 28.4686 22.6322 28.4553 22.6593C27.1386 24.5261 25.9017 26.4471 25.0372 28.5709C24.718 29.3555 24.4653 30.1807 24.4919 31.06C24.5185 32.0205 25.0904 32.4669 26.0347 32.264C26.7396 32.1152 27.2849 31.7094 27.8036 31.2359C29.3598 29.802 30.5568 28.0704 31.6607 26.2847C31.7937 26.0818 31.9267 25.8654 32.0464 25.6489C32.2725 25.2295 32.2592 25.1754 31.8469 25.0131C31.7804 24.986 31.7272 24.9725 31.6607 24.9455C30.5036 24.4855 29.4928 23.8362 28.7878 22.7539C28.7213 22.6863 28.6681 22.6187 28.5617 22.6051ZM30.1046 21.4147C30.0913 21.7123 30.1844 22.0099 30.3573 22.2805C30.9159 23.1463 31.7671 23.5521 32.7247 23.7415C33.0173 23.7956 33.1769 23.6468 33.2966 23.3898C33.8951 22.2128 34.2942 20.9683 34.374 19.6561C34.4405 18.6009 33.9616 17.938 32.9774 18.0598C31.6075 18.2356 30.1046 19.9672 30.1046 21.4147Z" fill="#E41F2B"/>
<path d="M95.1283 8.29263C94.6628 7.98149 94.2372 8.06266 93.8249 8.11677C92.7874 8.25205 91.883 8.71199 90.9786 9.22605C88.691 10.5112 86.6826 12.1751 84.794 13.9879C82.3334 16.3417 80.0591 18.8579 78.0774 21.6446C75.8961 24.6884 73.941 27.881 72.4779 31.3576C71.5469 33.5897 70.8553 35.8894 70.5494 38.2974C70.4031 39.5014 70.5494 40.6918 71.241 41.7335C72.0124 42.9104 73.3558 43.4515 74.7257 43.1674C75.4705 43.0051 76.1621 42.694 76.8005 42.2881C78.5562 41.1518 80.0192 39.6772 81.2694 37.9998C82.4398 36.4306 83.4241 34.7531 84.0891 32.8863C84.4083 31.9664 84.6344 31.0329 84.7009 30.0589C84.7142 29.9237 84.7142 29.7884 84.7009 29.6531C84.6211 28.2733 83.73 27.7998 82.5595 28.5438C81.6817 29.0985 81.0433 29.9237 80.4847 30.7894C79.8064 31.8581 79.3409 33.0351 79.0616 34.2661C78.9818 34.6043 78.8355 34.8072 78.5163 34.9696C76.8005 35.8083 75.3242 36.9852 73.9676 38.3245C73.9011 38.3921 73.8346 38.4462 73.7681 38.5003C73.7415 38.5274 73.6883 38.5138 73.6484 38.5274C73.5021 38.4327 73.5553 38.2839 73.5686 38.1621C73.9011 35.7948 74.5528 33.5356 75.8163 31.4929C77.0931 29.4231 78.769 27.7863 80.9369 26.704C81.9078 26.217 82.9187 25.9059 84.0226 26.1764C84.8738 26.3929 85.4723 26.9205 85.8048 27.7592C86.1639 28.6656 86.124 29.6125 86.0442 30.5595C85.8979 32.3587 85.1797 33.955 84.3817 35.5242C83.5704 37.134 82.6127 38.6491 81.4822 40.0425C79.5803 42.4099 77.3591 44.3985 74.6193 45.6971C73.0632 46.4412 71.4006 46.7253 69.6982 46.3194C67.5037 45.7783 66.1204 44.3038 65.4022 42.1934C64.5776 39.7855 64.6973 37.3369 65.4687 34.956C66.4928 31.7499 67.9559 28.7467 69.6184 25.8247C70.8952 23.5926 72.3183 21.4823 73.9277 19.4937C76.468 16.3417 79.3276 13.5279 82.5861 11.147C84.6876 9.61836 86.8821 8.2791 89.2629 7.26451C90.7924 6.61518 92.3884 6.27698 94.051 6.29051C94.9421 6.30404 95.7667 6.56106 96.4583 7.11571C96.7509 7.34568 96.977 7.35921 97.2962 7.23746C98.7593 6.65576 100.289 6.3852 101.845 6.33109C104.066 6.24992 106.154 6.79104 108.096 7.85974C110.237 9.03666 112.379 10.2406 114.507 11.4311C114.587 11.4717 114.666 11.5123 114.733 11.5664C115.092 11.8099 115.092 11.8505 114.786 12.1751C113.948 13.0409 113.097 13.8932 112.272 14.786C111.993 15.0836 111.754 15.0566 111.461 14.8672L108.429 13.0409C107.099 12.2292 105.769 11.404 104.438 10.6194C102.975 9.75364 101.393 9.17194 99.7302 8.82022C99.1849 8.69847 98.6263 8.68494 98.0809 8.80669C97.8282 8.8608 97.6553 8.96902 97.6553 9.29369C97.6021 12.0534 96.6445 14.5425 95.3411 16.8963C94.3436 18.6955 93.0535 20.2648 91.3377 21.4417C90.5929 21.9422 89.7949 22.3345 88.9437 22.578C87.454 23.0245 86.2703 22.1587 86.1772 20.5759C86.124 19.5884 86.3501 18.655 86.7092 17.7486C87.7067 15.2324 89.3693 13.1897 91.2712 11.3364C92.3352 10.3083 93.4924 9.40191 94.7293 8.60377C94.8224 8.49555 94.9288 8.42791 95.1283 8.29263ZM96.1524 10.5112C96.179 9.45602 96.1524 9.41544 95.4342 9.82128C94.0776 10.5924 92.8806 11.5934 91.7766 12.7162C90.154 14.3531 88.8373 16.2064 87.8663 18.3032C87.6269 18.8308 87.4274 19.3855 87.4141 19.9807C87.4008 20.9276 88.0792 21.4282 88.957 21.1441C89.9944 20.8194 90.8456 20.1836 91.6436 19.4396C93.0136 18.1409 94.0377 16.5987 94.8623 14.9213C95.5805 13.4738 96.046 11.9181 96.1524 10.5112ZM61.5052 47.2799C60.8269 46.9011 60.255 46.5629 59.6565 46.2653C57.0629 44.9937 54.3497 44.2497 51.4369 44.3985C49.9074 44.4796 48.5242 44.9261 47.3804 45.9948C47.2074 46.1571 47.0478 46.3465 46.8882 46.5359C46.4227 47.104 46.4094 47.1176 46.0104 46.5223C45.3321 45.5213 44.4543 44.7502 43.4036 44.155C41.8873 43.2892 40.2381 42.9104 38.5091 42.7616C35.3037 42.491 32.1915 43.0457 29.1058 43.8032C25.7275 44.642 22.3493 45.4807 18.9178 46.0894C17.3218 46.3735 15.7124 46.5764 14.0898 46.3059C11.2169 45.8189 8.78298 44.5879 7.10715 42.0852C6.37564 41.003 6.06973 39.7584 5.85693 38.4868C5.36482 35.5783 5.75053 32.7375 6.62834 29.9642C7.70566 26.5417 9.3948 23.4438 11.443 20.5218C13.2785 17.8974 15.4065 15.5436 17.7208 13.3791C20.5404 10.7412 23.6527 8.50908 27.2571 7.08865C28.7334 6.50695 30.2496 6.12817 31.8589 6.12817C34.2397 6.1417 35.6096 7.65682 35.2771 10.0242C35.0776 11.4311 34.4791 12.6892 33.4683 13.7038C33.0959 14.069 32.6703 14.3396 32.1382 14.4343C31.4466 14.556 30.8614 14.1502 30.7151 13.4467C30.489 12.351 31.0609 11.0929 32.0584 10.5247C32.4708 10.2948 32.8964 10.1054 33.3619 10.0513C33.6811 10.0107 33.8008 9.80775 33.8274 9.49661C33.8939 8.71199 33.4683 8.19794 32.6836 8.14382C32.1249 8.10324 31.5796 8.21146 31.0476 8.38733C29.026 9.07725 27.2571 10.2406 25.6477 11.6475C21.9635 14.8807 18.8912 18.6685 16.2178 22.781C14.4489 25.5001 13.079 28.4356 12.2278 31.5876C11.6957 33.5627 11.2967 35.5783 11.443 37.6616C11.5627 39.3932 12.1613 40.8948 13.4514 42.0852C14.1829 42.7481 15.0341 43.1674 15.9518 43.438C16.7764 43.6815 17.6277 43.8438 18.5055 43.8844C21.2719 44.0332 23.9852 43.6139 26.6718 42.978C30.1698 42.1393 33.6545 41.3006 37.1524 40.4619C39.7061 39.8396 42.2863 39.4067 44.9065 39.4608C49.402 39.5555 53.5517 40.773 57.3023 43.3433C58.6324 44.2497 59.8294 45.3184 60.9599 46.4682C61.1727 46.6576 61.3855 46.8605 61.5052 47.2799ZM134.697 6.52048C134.763 6.75046 134.657 6.87221 134.577 7.00748C132.622 10.2948 130.041 12.9327 126.716 14.786C124.562 15.99 122.287 16.8287 119.814 17.0587C118.789 17.1534 117.779 17.0993 116.768 16.8828C116.262 16.7746 116.223 16.6799 116.528 16.2876C117.3 15.3001 118.111 14.3396 118.962 13.4197C119.175 13.1897 119.428 13.2032 119.694 13.2032C120.665 13.2032 121.636 13.2438 122.62 13.1085C124.854 12.7974 126.889 11.9587 128.858 10.89C130.879 9.78069 132.675 8.36027 134.351 6.76398C134.417 6.69634 134.484 6.64223 134.55 6.58812C134.577 6.54754 134.617 6.54754 134.697 6.52048ZM71.0947 16.5311C71.6001 16.5311 72.1188 16.5176 72.6243 16.5311C72.9568 16.5446 73.0233 16.6528 72.8371 16.9505C72.2518 17.938 71.6533 18.8985 71.0548 19.886C70.9085 20.1295 70.7223 20.2242 70.4563 20.2107C69.4588 20.2107 68.4613 20.2242 67.4637 20.1971C67.0115 20.1971 66.945 20.0754 67.1844 19.6696C67.7431 18.7226 68.315 17.7892 68.8869 16.8422C69.0332 16.5987 69.2194 16.504 69.4987 16.5176C70.0307 16.5311 70.5627 16.5311 71.0947 16.5311Z" fill="#E41F2B"/>
</svg>
