<svg width="95" height="35" viewBox="0 0 95 35" fill="none" xmlns="http://www.w3.org/2000/svg">
<path d="M85.5517 8.39278C85.5886 8.16068 85.727 7.96572 85.8284 7.77076C86.0498 7.32514 86.2711 6.8888 86.391 6.40604C86.4371 6.20179 86.5201 5.95113 86.3357 5.79331C86.1235 5.60763 85.893 5.76545 85.6993 5.87686C85.1736 6.18323 84.7124 6.56386 84.2605 6.95378C82.8771 8.13283 81.6413 9.4697 80.5068 10.8994C78.404 13.5546 76.5503 16.3769 74.8533 19.3013C74.512 19.8861 74.1708 20.471 73.8756 21.1395C74.1339 21.1395 74.2814 20.9909 74.429 20.8795C75.2498 20.2482 76.043 19.5891 76.7993 18.8928C78.0259 17.7694 79.2064 16.5997 80.3501 15.3835C81.2078 14.4737 82.0286 13.536 82.7941 12.5426C83.1538 12.0785 83.4397 11.9763 84.0945 12.097C83.9193 12.5148 83.6334 12.8583 83.3567 13.2018C81.7888 15.1514 80.1103 16.9989 78.3118 18.735C76.7532 20.2296 75.0931 21.6129 73.313 22.8291C72.981 23.0519 72.7505 23.3119 72.5845 23.6925C72.1325 24.723 71.7083 25.7721 71.367 26.849C71.2471 27.2296 71.1457 27.6196 71.0811 28.0188C71.035 28.2787 71.0442 28.5387 71.1088 28.7986C71.2379 29.2907 71.5699 29.4578 72.0034 29.1885C72.483 28.9007 72.8519 28.4737 73.2024 28.0466C74.1247 26.9418 74.8809 25.7164 75.6833 24.5281C76.7624 22.9405 77.9152 21.418 79.3079 20.0904C80.0365 19.3941 80.8389 18.7999 81.7058 18.2986C82.1762 18.0294 82.7019 17.8901 83.246 17.8808C83.8916 17.8716 84.4173 18.0944 84.7678 18.6607C84.7862 18.6978 84.8323 18.7164 84.86 18.735C84.8877 18.7257 84.9061 18.7257 84.9154 18.7257C85.1459 18.1686 85.5978 18.1129 86.1235 18.1408C86.6861 18.1779 87.2579 18.1408 87.8298 18.1501C88.1526 18.1594 88.1894 18.2151 88.0234 18.5029L85.8653 22.1792C84.6479 24.2588 83.4213 26.3291 82.2684 28.4458C82.1577 28.6408 81.9917 28.8729 82.1946 29.0771C82.3975 29.2907 82.6281 29.1235 82.8218 29.0029C83.3475 28.6779 83.8086 28.2694 84.2236 27.8052C85.0076 26.9326 85.727 26.0042 86.4094 25.0572C86.6308 24.7509 87.0827 24.6116 87.424 24.7416C87.5346 24.788 87.5623 24.8623 87.5162 24.9551C87.4793 25.0387 87.424 25.1129 87.3686 25.1965C86.391 26.7005 85.2843 28.1023 84.0484 29.4021C83.3751 30.0983 82.665 30.7668 81.8257 31.2681C81.3738 31.5373 80.9034 31.7509 80.3777 31.8437C79.4923 32.0015 78.8191 31.5559 78.7453 30.6647C78.7268 30.4047 78.6899 30.154 78.6623 29.8848C78.4409 29.8848 78.3579 30.0519 78.238 30.1633C77.5924 30.7389 76.9099 31.2588 76.126 31.6487C75.711 31.853 75.2775 31.9273 74.8256 31.853C74.1154 31.7323 73.6174 31.1845 73.516 30.4326C73.4606 30.0519 73.4883 29.6713 73.4883 29.2442C73.2854 29.3185 73.2024 29.467 73.0825 29.5877C72.4461 30.2655 71.7913 30.9153 70.9981 31.3981C70.6384 31.6209 70.2511 31.7694 69.8453 31.853C68.8677 32.0479 67.9546 31.296 67.7794 30.2005C67.6687 29.4763 67.7701 28.78 67.9362 28.0838C68.1667 27.0904 68.5172 26.1249 68.84 25.1594C68.8769 25.0572 68.9138 24.9551 68.9414 24.853C69.0521 24.4816 69.0337 24.4723 68.6371 24.5188C68.591 24.5281 68.5449 24.5281 68.4987 24.5373C67.4289 24.6116 67.6318 24.5281 67.0969 25.3914C66.2576 26.7469 65.3538 28.0466 64.247 29.2071C63.3985 30.0983 62.4578 30.8503 61.3787 31.4352C60.9453 31.6766 60.4749 31.8158 59.9769 31.8716C58.9716 31.9737 58.2338 31.4445 58.0124 30.4511C57.8095 29.532 57.9479 28.6315 58.2153 27.7495C58.658 26.3105 59.3036 24.9551 60.1521 23.7111C61.0375 22.4206 61.9782 21.1859 63.1311 20.1275C64.0441 19.2827 65.0494 18.5771 66.2023 18.1222C66.6081 17.9644 67.0231 17.8716 67.4566 17.8808C68.5817 17.8901 69.1443 18.4472 69.2089 19.5891C69.255 20.406 69.1075 21.1859 68.8215 21.9471C68.6555 22.3928 68.4711 22.8384 68.259 23.2655C68.2036 23.3676 68.0929 23.4883 68.1667 23.609C68.259 23.7575 68.425 23.6461 68.5541 23.6368C68.6648 23.6368 68.7662 23.5997 68.8677 23.5811C69.3196 23.4975 69.6147 23.2469 69.8268 22.8198C71.118 20.2389 72.5752 17.7416 74.2169 15.3649C76.2275 12.4591 78.5055 9.78535 81.1617 7.46439C82.25 6.51744 83.3475 5.56121 84.6848 4.94848C85.2105 4.7071 85.7454 4.53071 86.3264 4.55856C87.0089 4.58641 87.3225 4.90206 87.3594 5.59835C87.3871 6.11824 87.2672 6.61028 87.0919 7.09304C86.9997 7.33442 86.8798 7.5758 86.7691 7.80789C86.5109 8.30922 86.1789 8.46705 85.5517 8.39278ZM77.6847 29.0957C77.9337 29.0864 78.1735 28.9007 78.404 28.6872C79.2433 27.9259 79.8981 26.9975 80.4884 26.0413C81.6597 24.166 82.7849 22.2721 83.9377 20.3875C84.03 20.2296 84.1314 20.0718 84.1867 19.8954C84.2974 19.5426 84.0945 19.3105 83.7256 19.3663C83.4028 19.4127 83.0985 19.5334 82.8494 19.7562C82.3975 20.1739 81.9087 20.5546 81.4937 21.0095C80.7927 21.7893 80.1103 22.5877 79.52 23.4511C78.6438 24.723 77.823 26.032 77.2881 27.4989C77.1774 27.8052 77.076 28.1209 77.0575 28.4365C77.0298 28.8636 77.242 29.105 77.6847 29.0957ZM64.2286 22.4485C63.998 22.6527 63.8504 22.9312 63.6752 23.1819C62.8636 24.3517 62.1258 25.5586 61.6278 26.9047C61.4894 27.2668 61.3972 27.6474 61.3695 28.0281C61.305 28.8543 61.8675 29.2814 62.633 28.9843C63.0112 28.8357 63.334 28.6036 63.6291 28.3344C64.7358 27.3318 65.5843 26.1156 66.3314 24.8344C66.5712 24.4259 66.562 24.4166 66.1193 24.1846C65.5013 23.8596 64.948 23.4604 64.5422 22.8662C64.4499 22.727 64.3946 22.5599 64.2286 22.4485ZM68.2405 20.2761V20.0904C68.1944 19.3013 67.724 19.0042 66.9862 19.2827C66.5435 19.4498 66.1746 19.719 65.8702 20.0718C65.5659 20.4246 65.3445 20.8238 65.3169 21.3159C65.2431 22.4578 66.0639 23.0983 66.8571 23.4418C67.06 23.5254 67.1707 23.414 67.2537 23.2469C67.5027 22.7734 67.7609 22.2907 67.9177 21.7708C68.0653 21.2787 68.2589 20.796 68.2405 20.2761ZM42.804 11.7814C42.9423 11.3636 43.2559 11.3265 43.6248 11.345C44.2059 11.3636 44.7961 11.3543 45.3772 11.3543C45.9305 11.3543 45.9582 11.4007 45.6631 11.8928C45.0267 12.9697 44.3811 14.0373 43.7355 15.1143C42.4996 17.1846 41.2638 19.2456 40.0279 21.3159C39.9449 21.4644 39.8619 21.6129 39.8435 21.7893C39.8066 22.1421 39.991 22.2999 40.3138 22.17C40.4798 22.105 40.6366 21.9936 40.7934 21.8914C41.688 21.2787 42.4074 20.471 43.0991 19.6355C43.4311 19.2363 43.7539 18.8185 44.086 18.41C44.2981 18.1408 44.8607 17.9922 45.165 18.1222C45.248 18.1594 45.2757 18.2336 45.2296 18.3079C45.165 18.41 45.0913 18.5121 45.0175 18.6143C44.1044 19.8583 43.1729 21.093 42.1031 22.1978C41.1439 23.1912 40.1478 24.1753 38.8751 24.7787C38.4693 24.9737 38.045 25.1315 37.5931 25.0665C36.9383 24.9737 36.4956 24.4816 36.4403 23.7668C36.4218 23.5718 36.4403 23.3676 36.4403 23.1262C36.2189 23.2005 36.1359 23.3583 36.016 23.4697C35.4811 23.9896 34.8908 24.4259 34.2176 24.7509C33.7656 24.9644 33.2953 25.0665 32.788 25.0479C31.8934 25.0108 31.34 24.4631 31.2939 23.5533C31.2663 23.0705 31.3308 22.597 31.423 22.1235C31.4507 21.9936 31.5245 21.8636 31.4507 21.6872C30.9711 22.1235 30.5469 22.5877 30.0488 22.9777C29.3018 23.5718 28.5455 24.1567 27.6694 24.5652C26.8762 24.9273 26.0646 25.1872 25.17 25.0387C24.0817 24.853 23.1502 23.971 23.0303 22.7456C22.9288 21.6686 23.1779 20.6567 23.556 19.6726C23.8788 18.8185 24.2754 18.0015 24.8103 17.1196C24.3399 17.231 23.9802 17.3145 23.6113 17.3981C23.4545 17.4352 23.3992 17.5652 23.3346 17.6859C22.3939 19.3477 21.2226 20.8331 19.9222 22.2164C19.2766 22.9034 18.5941 23.544 17.8286 24.0917C17.2845 24.4723 16.7127 24.7973 16.0671 24.9737C14.6375 25.3729 13.4662 24.5466 13.3556 23.0519C13.291 22.17 13.4293 21.3159 13.6968 20.4896C14.3055 18.6514 15.2831 17.0174 16.4821 15.5042C17.3306 14.4365 18.2713 13.4617 19.3504 12.6355C20.162 12.0135 21.0289 11.4843 22.0066 11.1779C22.4216 11.0479 22.8458 10.9644 23.2793 11.0294C24.2661 11.1594 24.8656 11.8185 24.921 12.8304C24.9763 13.8609 24.6812 14.8172 24.2846 15.7456C24.22 15.8941 24.1001 16.0334 24.137 16.2469C24.386 16.2655 24.5889 16.1633 24.7918 16.0612C25.5758 15.6806 26.249 15.1514 26.9039 14.5851C27.6509 13.9352 28.3057 13.2018 29.0805 12.5891C29.8183 12.0042 30.593 11.475 31.4968 11.1779C32.0779 10.983 32.6773 10.9737 33.2676 11.1129C34.2452 11.345 34.7802 12.3477 34.5404 13.4617C34.3559 14.3159 33.9409 15.0493 33.3506 15.6806C33.1569 15.8848 32.9356 16.0519 32.6681 16.1355C31.958 16.3583 31.423 15.8755 31.5798 15.1514C31.7735 14.2323 32.3084 13.6288 33.2307 13.4246C33.4613 13.3689 33.6457 13.3318 33.6365 13.0347C33.6273 12.7469 33.4705 12.5241 33.1846 12.4777C32.9264 12.4312 32.6681 12.4777 32.4191 12.5798C31.8657 12.8026 31.4323 13.2018 30.9988 13.601C29.0159 15.4392 27.6325 17.6766 26.6549 20.1925C26.4704 20.6567 26.3413 21.1302 26.3782 21.6408C26.4427 22.6991 27.0791 23.1726 28.0936 22.8755C28.8499 22.6527 29.4586 22.1792 30.0304 21.6594C31.5245 20.2946 32.788 18.7164 33.987 17.0824C34.9831 15.727 36.0437 14.418 37.2703 13.2668C38.1557 12.4312 39.078 11.6328 40.2585 11.2151C40.4891 11.1315 40.7289 11.0758 40.9779 11.0479C41.5312 10.983 42.0108 11.1315 42.4166 11.5121C42.5273 11.5864 42.6011 11.7164 42.804 11.7814ZM41.5774 12.4591C41.4114 12.4498 41.2269 12.5241 41.0424 12.6076C40.5629 12.8304 40.2493 13.2296 39.8988 13.601C38.2571 15.3742 36.8737 17.3424 35.684 19.4405C35.3059 20.109 34.9554 20.8052 34.8355 21.5851C34.7525 22.1514 35.0661 22.4113 35.5918 22.2071C36.0345 22.04 36.3849 21.7429 36.6893 21.3901C37.4271 20.536 38.0727 19.6169 38.6814 18.67C39.8343 16.8596 40.9225 15.0121 41.9739 13.1461C42.2414 12.7005 42.1031 12.4591 41.5774 12.4591ZM19.8023 15.5135C19.7746 15.5227 19.7377 15.532 19.7285 15.5506C18.8155 16.8318 17.9577 18.1501 17.3583 19.6076C17.1369 20.1461 16.9617 20.7124 16.9801 21.3159C16.9986 21.975 17.3952 22.2814 18.05 22.1421C18.5388 22.04 18.9169 21.7615 19.2766 21.4365C20.3557 20.4525 21.1857 19.2641 21.9512 18.0387C22.0434 17.8994 22.1357 17.7509 22.2187 17.6023C22.3755 17.3145 22.3662 17.2774 22.0803 17.166C22.0342 17.1474 21.9973 17.1381 21.9512 17.1196C21.1488 16.8039 20.4479 16.3583 19.9591 15.6156C19.913 15.5692 19.8761 15.5227 19.8023 15.5135ZM20.8722 14.6965C20.8629 14.9007 20.9275 15.105 21.0474 15.2907C21.4347 15.8848 22.025 16.1633 22.689 16.2933C22.8919 16.3304 23.0026 16.2283 23.0856 16.0519C23.5007 15.2442 23.7773 14.3901 23.8327 13.4896C23.8788 12.7655 23.5468 12.3105 22.8643 12.3941C21.9143 12.5148 20.8722 13.7031 20.8722 14.6965Z" fill="#E41F2B"/>
<path d="M65.9637 5.69147C65.6409 5.47794 65.3457 5.53364 65.0598 5.57078C64.3404 5.66361 63.7133 5.97926 63.0861 6.33205C61.4998 7.21401 60.1072 8.35592 58.7975 9.59995C57.0913 11.2153 55.5142 12.9421 54.14 14.8546C52.6275 16.9435 51.2717 19.1344 50.2572 21.5204C49.6116 23.0522 49.132 24.6305 48.9199 26.283C48.8184 27.1092 48.9199 27.9262 49.3995 28.6411C49.9344 29.4488 50.8659 29.8201 51.8159 29.6252C52.3323 29.5138 52.8119 29.3002 53.2546 29.0217C54.472 28.2419 55.4865 27.2299 56.3535 26.0787C57.1651 25.0018 57.8476 23.8506 58.3087 22.5695C58.5301 21.9382 58.6869 21.2976 58.733 20.6291C58.7422 20.5363 58.7422 20.4435 58.733 20.3506C58.6776 19.4037 58.0597 19.0787 57.2481 19.5893C56.6394 19.97 56.1967 20.5363 55.8093 21.1305C55.339 21.8639 55.0162 22.6716 54.8225 23.5164C54.7672 23.7485 54.6657 23.8878 54.4444 23.9992C53.2546 24.5748 52.2309 25.3824 51.2902 26.3015C51.244 26.348 51.1979 26.3851 51.1518 26.4222C51.1334 26.4408 51.0965 26.4315 51.0688 26.4408C50.9674 26.3758 51.0043 26.2737 51.0135 26.1901C51.244 24.5655 51.696 23.0151 52.5721 21.6132C53.4575 20.1928 54.6196 19.0694 56.1229 18.3267C56.7962 17.9925 57.4971 17.779 58.2626 17.9647C58.8529 18.1132 59.2679 18.4753 59.4985 19.0509C59.7475 19.6729 59.7198 20.3228 59.6645 20.9726C59.563 22.2074 59.065 23.3029 58.5116 24.3798C57.949 25.4846 57.285 26.5244 56.501 27.4806C55.1822 29.1053 53.642 30.47 51.7421 31.3612C50.663 31.8718 49.5102 32.0668 48.3296 31.7883C46.8079 31.4169 45.8487 30.405 45.3507 28.9567C44.7789 27.3042 44.8619 25.6238 45.3968 23.9899C46.1069 21.7896 47.1214 19.7286 48.2743 17.7233C49.1597 16.1915 50.1465 14.7432 51.2625 13.3785C53.024 11.2153 55.0069 9.2843 57.2665 7.65035C58.7237 6.60128 60.2455 5.68218 61.8964 4.9859C62.957 4.54027 64.0638 4.30818 65.2166 4.31746C65.8345 4.32674 66.4063 4.50314 66.8859 4.88377C67.0888 5.0416 67.2456 5.05088 67.467 4.96733C68.4815 4.56812 69.5421 4.38245 70.6212 4.34531C72.1614 4.28961 73.6094 4.66096 74.9559 5.39438C76.4408 6.20208 77.9256 7.02834 79.4013 7.84531C79.4566 7.87316 79.512 7.90102 79.5581 7.93815C79.8071 8.10526 79.8071 8.13311 79.595 8.35592C79.0139 8.95009 78.4237 9.53497 77.8519 10.1477C77.6582 10.3519 77.4922 10.3334 77.2893 10.2034L75.1865 8.95009C74.2642 8.39306 73.3419 7.82674 72.4196 7.28828C71.4051 6.69412 70.3076 6.29491 69.1547 6.05353C68.7766 5.96998 68.3892 5.9607 68.0111 6.04425C67.8359 6.08139 67.716 6.15566 67.716 6.37847C67.6791 8.27237 67.015 9.98059 66.1112 11.596C65.4195 12.8307 64.5249 13.9076 63.3352 14.7153C62.8187 15.0588 62.2653 15.3281 61.675 15.4952C60.6421 15.8015 59.8213 15.2074 59.7567 14.1212C59.7198 13.4435 59.8766 12.8029 60.1256 12.1809C60.8173 10.4541 61.9702 9.05221 63.289 7.78033C64.0269 7.07476 64.8292 6.45274 65.687 5.90499C65.7515 5.83072 65.8253 5.7843 65.9637 5.69147ZM66.6738 7.21401C66.6922 6.48987 66.6738 6.46202 66.1758 6.74054C65.2351 7.26972 64.405 7.95672 63.6395 8.72727C62.5143 9.85062 61.6013 11.1225 60.928 12.5615C60.762 12.9236 60.6236 13.3042 60.6144 13.7127C60.6052 14.3626 61.0756 14.7061 61.6843 14.5111C62.4036 14.2883 62.9939 13.8519 63.5473 13.3413C64.4972 12.4501 65.2074 11.3917 65.7792 10.2405C66.2772 9.24717 66.6 8.17953 66.6738 7.21401ZM42.6484 32.4474C42.178 32.1875 41.7814 31.9554 41.3664 31.7511C39.568 30.8785 37.6865 30.3679 35.6667 30.47C34.6061 30.5257 33.6469 30.8321 32.8538 31.5655C32.7339 31.6769 32.6232 31.8069 32.5125 31.9368C32.1897 32.3267 32.1805 32.336 31.9038 31.9275C31.4334 31.2405 30.8247 30.7114 30.0961 30.3029C29.0447 29.7087 27.9011 29.4488 26.7021 29.3466C24.4795 29.161 22.3213 29.5416 20.1816 30.0615C17.839 30.6371 15.4964 31.2127 13.1169 31.6305C12.0102 31.8254 10.8942 31.9647 9.76907 31.779C7.77694 31.4448 6.08916 30.6 4.92709 28.8825C4.41984 28.1397 4.20771 27.2856 4.06015 26.413C3.7189 24.4169 3.98636 22.4673 4.59507 20.5641C5.34212 18.2153 6.51341 16.0893 7.93373 14.084C9.20647 12.283 10.6821 10.6676 12.2869 9.18218C14.2421 7.37184 16.4003 5.84001 18.8996 4.86521C19.9234 4.466 20.9748 4.20605 22.0907 4.20605C23.7416 4.21534 24.6916 5.25513 24.461 6.87979C24.3227 7.84531 23.9076 8.70871 23.2067 9.40499C22.9485 9.65566 22.6533 9.84133 22.2844 9.90632C21.8048 9.98987 21.399 9.71136 21.2976 9.2286C21.1408 8.47661 21.5374 7.61322 22.2291 7.2233C22.515 7.06547 22.8101 6.9355 23.1329 6.89836C23.3543 6.87051 23.4373 6.73125 23.4557 6.51773C23.5018 5.97926 23.2067 5.62648 22.6626 5.58934C22.2752 5.56149 21.8971 5.63576 21.5282 5.75645C20.1263 6.22993 18.8996 7.02834 17.7837 7.99385C15.229 10.2127 13.0985 12.8122 11.2447 15.6344C10.0181 17.5005 9.06813 19.5151 8.47787 21.6782C8.10896 23.0336 7.83228 24.4169 7.93373 25.8466C8.01673 27.035 8.43176 28.0655 9.32637 28.8825C9.83363 29.3374 10.4239 29.6252 11.0603 29.8108C11.6321 29.9779 12.2223 30.0893 12.831 30.1172C14.7494 30.2193 16.6308 29.9315 18.4938 29.4952C20.9194 28.9196 23.3358 28.344 25.7614 27.7684C27.5322 27.3413 29.3214 27.0443 31.1383 27.0814C34.2556 27.1464 37.1331 27.9819 39.734 29.7458C40.6563 30.3679 41.4863 31.1013 42.2703 31.8904C42.4178 32.0204 42.5654 32.1596 42.6484 32.4474ZM93.4015 4.47529C93.4476 4.63311 93.3738 4.71666 93.3185 4.8095C91.9628 7.06547 90.1735 8.87582 87.8678 10.1477C86.3737 10.974 84.7966 11.5496 83.0812 11.7074C82.371 11.7724 81.6701 11.7352 80.9692 11.5867C80.6187 11.5124 80.591 11.4474 80.8032 11.1782C81.3381 10.5005 81.9007 9.84133 82.4909 9.21003C82.6385 9.05221 82.8137 9.06149 82.9982 9.06149C83.6714 9.06149 84.3447 9.08934 85.0272 8.99651C86.5766 8.78298 87.9877 8.20738 89.3527 7.47396C90.7546 6.71269 91.9996 5.73788 93.1617 4.64239C93.2078 4.59598 93.2539 4.55884 93.3001 4.5217C93.3185 4.49385 93.3462 4.49385 93.4015 4.47529ZM49.298 11.3453C49.6485 11.3453 50.0082 11.336 50.3587 11.3453C50.5892 11.3546 50.6353 11.4289 50.5062 11.6331C50.1004 12.3108 49.6854 12.97 49.2704 13.6477C49.1689 13.8148 49.0398 13.8798 48.8553 13.8705C48.1636 13.8705 47.4719 13.8798 46.7802 13.8612C46.4666 13.8612 46.4205 13.7777 46.5865 13.4992C46.9739 12.8493 47.3705 12.2087 47.767 11.5588C47.8685 11.3917 47.9976 11.3267 48.1913 11.336C48.5602 11.3453 48.9291 11.3453 49.298 11.3453Z" fill="#E41F2B"/>
</svg>
