<svg width="92" height="27" viewBox="0 0 92 27" fill="none" xmlns="http://www.w3.org/2000/svg">
<path d="M65.9302 4.09121C62.4912 6.65953 60.5866 10.1284 60.5968 13.6C60.6133 18.7462 64.8239 23.702 74.5793 23.67C77.0004 23.6538 79.136 23.4119 81.0772 23.0859C81.6439 22.9949 82.1993 22.8937 82.726 22.7863L83.8601 17.9963C81.97 18.6208 79.5811 19.1372 77.6669 19.1459C72.4713 19.1623 68.9882 16.1168 68.9804 12.1237C68.9717 9.9955 69.857 8.12623 71.4572 6.75896C73.171 5.29381 75.6971 4.40768 78.8566 4.40768C81.3583 4.40768 82.8214 5.0912 83.8192 6.06766C84.0163 6.25376 84.1991 6.45504 84.366 6.66975H85.18L86.7723 1.01667C85.1313 0.481391 82.6991 0.031114 80.133 0.00270776C74.1584 -0.0760753 69.304 1.57082 65.9302 4.09121ZM59.0881 4.87683C59.7893 4.87683 60.3715 5.12916 60.762 5.45938C61.0962 5.73989 61.2965 6.07366 61.2965 6.36172H62.0975L63.6501 0.223291H42.5676L42.2595 1.42412L42.1865 1.71574C42.1865 1.71574 44.4948 1.97228 43.7875 4.25233L38.5246 23.1536L47.4757 23.1707H49.0455L49.4438 21.5478C49.4438 21.5478 47.4757 21.0786 47.9901 19.2815C48.0144 19.1689 48.7556 16.4814 49.1982 14.8678C49.396 14.1714 49.5366 13.6703 49.5366 13.6703L54.3545 13.667C55.1424 13.667 55.7463 13.8101 56.2133 13.9888C57.1781 14.3541 57.5488 14.9082 57.5488 14.9082L58.9467 9.29133H50.8243L51.7017 6.08298L52.0314 4.88636L59.0881 4.87683ZM33.4715 19.7797C32.8477 19.1192 27.4311 10.7787 27.4311 10.7787L37.0102 3.19996L37.3279 2.94763C37.6943 2.64285 38.0917 2.3791 38.5133 2.16091C39.5311 1.64383 40.1871 1.71751 40.1871 1.71751L40.5717 0.206874L28.2588 0.224849L27.9524 1.42169L27.8796 1.71751C28.7162 1.77521 29.8842 2.51444 28.9296 3.39526C28.8046 3.50089 19.0336 10.8816 19.0336 10.8816L19.1099 10.6209L21.1416 3.34576C21.571 1.8926 23.1503 1.71751 23.1503 1.71751L23.5365 0.220636L11.7817 0.223968L11.4797 1.42081L11.4025 1.71662C11.9647 1.85998 13.5701 2.1678 13.0138 4.25322C9.0907 18.2684 9.53921 16.8811 9.27389 17.6448C8.39557 20.967 7.07831 21.4241 6.28604 21.5091C6.11329 21.5256 5.96422 21.5256 5.85579 21.5313L5.69434 22.1594L5.44531 23.1527H17.7398L18.1503 21.5074C18.1503 21.5074 16.1994 21.1257 16.571 19.7342C16.76 19.0351 17.2528 17.2613 17.6879 15.6958C18.1094 14.1765 18.4834 12.8452 18.4834 12.8452C20.6155 16.2242 21.1058 16.6419 23.6797 20.1323C26.0478 23.3613 28.5791 23.2104 34.6899 23.1691C35.188 23.1656 35.7034 23.1614 36.2588 23.1614L36.6652 21.5469C35.1158 21.5564 34.0902 20.4384 33.4715 19.7797Z" fill="black"/>
</svg>
