<svg width="114" height="25" viewBox="0 0 114 25" fill="none" xmlns="http://www.w3.org/2000/svg">
<path fill-rule="evenodd" clip-rule="evenodd" d="M16.3702 18.4743V20.836H1.67578V4.59395H4.32121V18.4743H16.3702ZM14.3133 10.5004L17.2515 4.8888H14.4599L12.2557 10.5004H14.3133ZM38.3374 7.26005C37.3846 5.75313 35.993 4.48636 34.3542 3.62322C32.7153 2.75949 30.8293 2.29939 28.9439 2.29939C27.0584 2.29939 25.1718 2.75949 23.5335 3.62322C21.8947 4.48636 20.5025 5.75313 19.5497 7.26005C18.5969 8.76638 18.0824 10.5135 18.0824 12.2605C18.0824 14.007 18.5969 15.7541 19.5497 17.2604C20.5025 18.7674 21.8941 20.0341 23.5335 20.8973C25.1724 21.761 27.0584 22.2211 28.9439 22.2211C30.8293 22.2211 32.7153 21.7616 34.3542 20.8973C35.993 20.0341 37.3846 18.7674 38.3374 17.2604C39.2908 15.7541 39.8047 14.0064 39.8047 12.2605C39.8047 10.5141 39.2908 8.76698 38.3374 7.26005ZM36.051 16.238C35.3401 17.4198 34.2998 18.4166 33.072 19.0973C31.8442 19.7773 30.4295 20.1399 29.0142 20.1399C27.599 20.1399 26.1843 19.7773 24.9565 19.0973C23.7293 18.4166 22.689 17.4203 21.9775 16.238C21.266 15.0556 20.884 13.6884 20.884 12.3212C20.884 10.9534 21.266 9.58612 21.9775 8.40436C22.689 7.2226 23.7287 6.22571 24.9565 5.54566C26.1843 4.86502 27.5996 4.50241 29.0142 4.50241C30.4289 4.50241 31.8442 4.86502 33.072 5.54566C34.2998 6.22571 35.3395 7.222 36.051 8.40436C36.7626 9.58595 37.1408 10.94 37.1451 12.3212C37.1406 13.7024 36.7624 15.0563 36.051 16.238ZM58.2511 11.5983C57.7727 12.6564 56.8678 13.2681 56.1599 13.6379C55.4519 14.0082 54.9416 14.1366 54.4276 14.1182L59.5706 20.8366H56.6318L51.658 14.3399H45.1701V20.8366H42.5252V4.59395H53.1046C54.1739 4.59395 55.2586 4.80558 56.2155 5.34652C57.1724 5.88747 58.0004 6.70959 58.3895 7.87293C58.7781 9.03566 58.7284 10.5402 58.2511 11.5983ZM55.2923 11.4872C55.8494 11.014 56.1794 10.2359 56.1504 9.46426C56.122 8.69207 55.7346 7.92761 55.1817 7.46097C54.6281 6.99493 53.9208 6.95629 53.2519 6.95629H45.1701V11.977H53.2519C53.9663 11.977 54.7351 11.9609 55.2923 11.4872ZM73.5299 11.5341V13.7484H64.5663V18.4743H76.6154V20.836H61.9209V4.59395H76.6154V6.95629H64.5663V11.5341H73.5299ZM73.6766 2.08301H69.7087L68.093 4.15049L73.6766 2.08301ZM81.7962 16.7017L79.7008 20.836H77.0566L85.2844 4.59336H87.9298L96.1589 20.836H93.5135L91.4192 16.7017H81.7962ZM86.6068 7.20417L82.8424 14.6348H90.3712L86.6068 7.20417ZM112.175 18.4743V20.836H97.4813V4.59395H100.126V18.4743H112.175ZM111.03 7.85331L111.007 7.46573C111.003 7.3944 111.009 7.32306 110.98 7.24221C110.951 7.15899 110.906 7.08198 110.849 7.01514C110.809 6.96481 110.75 6.93188 110.687 6.923C110.801 6.88301 110.897 6.80388 110.959 6.69949C111.028 6.58832 111.071 6.44149 111.069 6.28396C111.067 6.12644 111.02 5.95762 110.936 5.83278C110.756 5.56706 110.438 5.52189 110.16 5.53496H108.99V8.24861H109.444V7.13402H110.123C110.197 7.13402 110.32 7.12392 110.444 7.22082C110.608 7.4152 110.535 7.67081 110.564 7.88779C110.567 8.01738 110.579 8.13983 110.632 8.24861H111.143V8.1648C111.05 8.12616 111.041 7.99063 111.03 7.85331ZM110.468 6.65788C110.328 6.74823 110.182 6.74883 110.082 6.74704H109.44V5.92076C109.72 5.92432 110.002 5.90887 110.279 5.93146C110.343 5.93839 110.404 5.96171 110.457 5.99918C110.509 6.03665 110.551 6.08702 110.578 6.14546C110.637 6.32499 110.639 6.51759 110.468 6.65788Z" fill="black"/>
<path fill-rule="evenodd" clip-rule="evenodd" d="M112.018 5.73768C111.819 5.39171 111.528 5.09924 111.184 4.89951C110.84 4.69977 110.442 4.59277 110.045 4.59277C109.648 4.59277 109.25 4.69977 108.906 4.89951C108.562 5.09924 108.271 5.39171 108.072 5.73768C107.873 6.08364 107.766 6.48311 107.766 6.88258C107.766 7.28205 107.873 7.68152 108.072 8.0269C108.271 8.37227 108.562 8.66533 108.906 8.86507C109.25 9.0648 109.648 9.1718 110.045 9.1718C110.442 9.1718 110.84 9.0648 111.184 8.86507C111.528 8.66533 111.819 8.37287 112.018 8.0269C112.217 7.68093 112.324 7.28205 112.324 6.88258C112.324 6.48311 112.217 6.08364 112.018 5.73768ZM111.745 7.87828C111.574 8.17315 111.33 8.41818 111.036 8.58924C110.742 8.75931 110.408 8.84906 110.068 8.84961C109.728 8.84938 109.395 8.75955 109.1 8.5891C108.806 8.41865 108.561 8.17355 108.391 7.87828C108.221 7.58292 108.132 7.24794 108.132 6.90696C108.132 6.56597 108.221 6.23099 108.391 5.93563C108.648 5.48887 109.071 5.16302 109.567 5.0297C110.063 4.89638 110.592 4.96651 111.036 5.22467C111.328 5.39409 111.576 5.64197 111.745 5.93563C111.914 6.23117 112.004 6.56602 112.004 6.90696C112.004 7.24579 111.914 7.58463 111.745 7.87828Z" fill="black"/>
</svg>
