<svg width="128" height="28" viewBox="0 0 128 28" fill="none" xmlns="http://www.w3.org/2000/svg">
<path fill-rule="evenodd" clip-rule="evenodd" d="M18.3818 20.6916V23.3368H1.88281V5.14563H4.85312V20.6916H18.3818ZM16.0723 11.7608L19.3713 5.47586H16.237L13.762 11.7608H16.0723ZM43.0467 8.13166C41.9769 6.44391 40.4144 5.02512 38.5743 4.05841C36.7343 3.09103 34.6166 2.57572 32.4996 2.57572C30.3826 2.57572 28.2643 3.09103 26.4248 4.05841C24.5848 5.02512 23.0216 6.44391 21.9518 8.13166C20.882 9.81875 20.3043 11.7755 20.3043 13.7322C20.3043 15.6883 20.882 17.645 21.9518 19.3321C23.0216 21.0199 24.5841 22.4386 26.4248 23.4053C28.2649 24.3727 30.3826 24.888 32.4996 24.888C34.6166 24.888 36.7343 24.3734 38.5743 23.4053C40.4144 22.4386 41.9769 21.0199 43.0467 19.3321C44.1172 17.645 44.6942 15.6876 44.6942 13.7322C44.6942 11.7761 44.1172 9.81942 43.0467 8.13166ZM40.4795 18.187C39.6813 19.5105 38.5132 20.627 37.1347 21.3894C35.7561 22.151 34.1677 22.5571 32.5786 22.5571C30.9895 22.5571 29.4011 22.151 28.0226 21.3894C26.6446 20.627 25.4766 19.5112 24.6777 18.187C23.8789 16.8627 23.4499 15.3314 23.4499 13.8001C23.4499 12.2682 23.8789 10.7369 24.6777 9.41329C25.4766 8.08972 26.644 6.9732 28.0226 6.21155C29.4011 5.44923 30.9902 5.0431 32.5786 5.0431C34.167 5.0431 35.7561 5.44923 37.1347 6.21155C38.5132 6.9732 39.6807 8.08905 40.4795 9.41329C41.2785 10.7367 41.7032 12.2532 41.708 13.8001C41.703 15.3471 41.2783 16.8635 40.4795 18.187ZM65.406 12.9905C64.8688 14.1756 63.8528 14.8607 63.0579 15.2748C62.2631 15.6896 61.69 15.8334 61.1129 15.8128L66.8875 23.3374H63.5879L58.0032 16.0611H50.7185V23.3374H47.7489V5.14563H59.6274C60.8281 5.14563 62.0459 5.38265 63.1204 5.98851C64.1948 6.59437 65.1245 7.51515 65.5614 8.81808C65.9977 10.1204 65.9419 11.8054 65.406 12.9905ZM62.0838 12.866C62.7093 12.3361 63.0799 11.4646 63.0473 10.6004C63.0154 9.73553 62.5805 8.87933 61.9596 8.3567C61.338 7.83472 60.5438 7.79145 59.7928 7.79145H50.7185V13.4146H59.7928C60.595 13.4146 61.4582 13.3967 62.0838 12.866ZM82.5611 12.9186V15.3987H72.4968V20.6916H86.0255V23.3368H69.5265V5.14563H86.0255V7.79145H72.4968V12.9186H82.5611ZM82.7258 2.33337H78.2707L76.4565 4.64896L82.7258 2.33337ZM91.8426 18.7063L89.4899 23.3368H86.5209L95.7592 5.14497H98.7295L107.969 23.3368H104.999L102.647 18.7063H91.8426ZM97.244 8.06908L93.0173 16.3913H101.471L97.244 8.06908ZM125.952 20.6916V23.3368H109.454V5.14563H112.423V20.6916H125.952ZM124.666 8.79611L124.64 8.36202C124.636 8.28213 124.643 8.20223 124.61 8.11169C124.578 8.01848 124.528 7.93222 124.463 7.85736C124.418 7.80099 124.353 7.76411 124.281 7.75416C124.409 7.70938 124.517 7.62075 124.587 7.50383C124.665 7.37933 124.713 7.21488 124.711 7.03845C124.709 6.86201 124.655 6.67294 124.561 6.53312C124.359 6.23552 124.002 6.18492 123.69 6.19957H122.376V9.23885H122.886V7.99051H123.648C123.731 7.99051 123.87 7.9792 124.009 8.08772C124.193 8.30543 124.111 8.59172 124.143 8.83473C124.146 8.97987 124.16 9.11702 124.22 9.23885H124.793V9.14498C124.689 9.1017 124.679 8.94991 124.666 8.79611ZM124.036 7.45723C123.878 7.55842 123.714 7.55909 123.602 7.55709H122.882V6.63165C123.196 6.63565 123.512 6.61834 123.823 6.64364C123.895 6.65141 123.964 6.67752 124.023 6.71949C124.081 6.76146 124.129 6.81787 124.159 6.88332C124.225 7.08439 124.228 7.3001 124.036 7.45723Z" fill="black"/>
<path fill-rule="evenodd" clip-rule="evenodd" d="M125.775 6.42658C125.551 6.03909 125.225 5.71153 124.838 5.48783C124.452 5.26413 124.005 5.14429 123.559 5.14429C123.113 5.14429 122.667 5.26413 122.28 5.48783C121.894 5.71153 121.567 6.03909 121.344 6.42658C121.121 6.81406 121 7.26147 121 7.70887C121 8.15628 121.121 8.60369 121.344 8.99051C121.567 9.37732 121.894 9.70555 122.28 9.92925C122.667 10.153 123.113 10.2728 123.559 10.2728C124.005 10.2728 124.452 10.153 124.838 9.92925C125.225 9.70555 125.551 9.37799 125.775 8.99051C125.998 8.60302 126.119 8.15628 126.119 7.70887C126.119 7.26147 125.998 6.81406 125.775 6.42658ZM125.468 8.82406C125.276 9.15431 125.002 9.42874 124.672 9.62033C124.341 9.81081 123.967 9.91133 123.585 9.91194C123.204 9.91168 122.829 9.81108 122.499 9.62017C122.168 9.42927 121.893 9.15475 121.702 8.82406C121.512 8.49326 121.411 8.11807 121.411 7.73617C121.411 7.35427 121.512 6.97909 121.702 6.64828C121.991 6.14791 122.466 5.78296 123.023 5.63364C123.58 5.48433 124.173 5.56287 124.672 5.85201C125 6.04176 125.278 6.31939 125.468 6.64828C125.658 6.9793 125.759 7.35432 125.759 7.73617C125.759 8.11567 125.658 8.49516 125.468 8.82406Z" fill="black"/>
</svg>
