<svg width="100" height="47" viewBox="0 0 100 47" fill="none" xmlns="http://www.w3.org/2000/svg">
<g clip-path="url(#clip0_1744_3196)">
<path d="M23.2498 47.0461C36.0897 47.0461 46.4995 36.5142 46.4995 23.523C46.4995 10.5319 36.0903 0 23.2498 0C10.4093 0 0 10.5319 0 23.523C0 36.5142 10.4093 47.0461 23.2498 47.0461Z" fill="#A70B52"/>
<path d="M28.9088 31.8013H24.0941V13.3899H22.3086V33.6181H24.0941V33.6061H28.9088V31.8013Z" fill="white"/>
<path d="M40.9269 24.2765H28.9377V22.47H42.683C42.7013 22.8192 42.7101 23.1691 42.7101 23.5231C42.7101 34.399 33.9963 43.2149 23.2476 43.2149C12.499 43.2149 3.78516 34.399 3.78516 23.5231C3.78516 12.6473 12.499 3.83142 23.2482 3.83142C23.5316 3.83142 23.8144 3.83738 24.0953 3.8499L24.093 5.64276C23.8116 5.62962 23.5299 5.62306 23.2482 5.6231C13.4775 5.6231 5.55597 13.6374 5.55597 23.5231C5.55597 33.4095 13.4769 41.4232 23.2482 41.4232C32.7527 41.4232 40.5063 33.8405 40.9222 24.3272L40.9269 24.2765Z" fill="white"/>
<path d="M15.9888 18.8401C16.7141 18.8401 17.4097 18.5485 17.9226 18.0296C18.4355 17.5107 18.7236 16.8069 18.7236 16.073C18.7236 15.3391 18.4355 14.6353 17.9226 14.1164C17.4097 13.5974 16.7141 13.3059 15.9888 13.3059C15.2634 13.3059 14.5678 13.5974 14.0549 14.1164C13.542 14.6353 13.2539 15.3391 13.2539 16.073C13.2539 16.8069 13.542 17.5107 14.0549 18.0296C14.5678 18.5485 15.2634 18.8401 15.9888 18.8401Z" fill="white"/>
<path d="M58.043 35.0695H74.656V29.993H64.1425V11.8152H58.043V35.0695ZM94.7282 13.4525C92.8237 11.9595 90.3713 11.2025 87.4447 11.2025C83.9696 11.2025 81.0659 12.2825 79.0471 14.3233C76.9399 16.4565 75.8242 19.5988 75.8242 23.4105C75.8242 27.4826 77.0035 30.9187 79.1449 33.0835C80.8262 34.784 83.0659 35.681 85.6291 35.681C91.2555 35.681 92.5497 32.2687 92.5497 32.2687V35.0683H97.6307V21.9353H87.5165V26.0449H92.1715C92.1715 26.0449 92.2163 31.2191 87.4117 31.2191C86.1911 31.2191 85.1036 30.7709 84.2671 29.9245C82.9634 28.6067 82.2742 26.3859 82.2742 23.507C82.2742 18.7388 84.1475 15.8921 87.2838 15.8921C89.2431 15.8921 90.7159 17.1092 91.0935 18.9539H97.5641C97.2289 16.2736 96.502 14.8765 94.7282 13.4525Z" fill="black"/>
</g>
<defs>
<clipPath id="clip0_1744_3196">
<rect width="100" height="47" fill="white"/>
</clipPath>
</defs>
</svg>
