<svg width="84" height="39" viewBox="0 0 84 39" fill="none" xmlns="http://www.w3.org/2000/svg">
<g clip-path="url(#clip0_867_2904)">
<path d="M19.5298 39.0382C30.3153 39.0382 39.0596 30.299 39.0596 19.5191C39.0596 8.73924 30.3158 0 19.5298 0C8.7438 0 0 8.73924 0 19.5191C0 30.299 8.7438 39.0382 19.5298 39.0382Z" fill="#A70B52"/>
<path d="M24.2825 26.3879H20.2381V11.1104H18.7383V27.8954H20.2381V27.8855H24.2825V26.3879Z" fill="white"/>
<path d="M34.3788 20.1448H24.3078V18.6457H35.8539C35.8692 18.9355 35.8767 19.2259 35.8767 19.5196C35.8767 28.5442 28.557 35.8596 19.5282 35.8596C10.4993 35.8596 3.17969 28.5442 3.17969 19.5196C3.17969 10.495 10.4993 3.17969 19.5287 3.17969C19.7667 3.17969 20.0042 3.18463 20.2402 3.19502L20.2383 4.68272C20.0019 4.67181 19.7653 4.66637 19.5287 4.6664C11.3213 4.6664 4.66717 11.3165 4.66717 19.5196C4.66717 27.7232 11.3208 34.3729 19.5287 34.3729C27.5124 34.3729 34.0255 28.0808 34.3748 20.1868L34.3788 20.1448Z" fill="white"/>
<path d="M13.4301 15.6332C14.0394 15.6332 14.6237 15.3913 15.0545 14.9607C15.4854 14.5301 15.7274 13.9461 15.7274 13.3371C15.7274 12.7281 15.4854 12.1441 15.0545 11.7135C14.6237 11.2829 14.0394 11.041 13.4301 11.041C12.8208 11.041 12.2365 11.2829 11.8057 11.7135C11.3748 12.1441 11.1328 12.7281 11.1328 13.3371C11.1328 13.9461 11.3748 14.5301 11.8057 14.9607C12.2365 15.3913 12.8208 15.6332 13.4301 15.6332Z" fill="white"/>
<path d="M48.7578 29.1004H62.7128V24.888H53.8814V9.80433H48.7578V29.1004ZM79.5734 11.1629C77.9736 9.92402 75.9136 9.2959 73.4552 9.2959C70.5362 9.2959 68.0971 10.1921 66.4013 11.8855C64.6313 13.6556 63.694 16.2631 63.694 19.4259C63.694 22.8049 64.6847 25.6561 66.4834 27.4524C67.8957 28.8635 69.7771 29.6078 71.9301 29.6078C76.6563 29.6078 77.7435 26.7763 77.7435 26.7763V29.0994H82.0115V18.2018H73.5156V21.6119H77.4258C77.4258 21.6119 77.4634 25.9054 73.4275 25.9054C72.4022 25.9054 71.4887 25.5335 70.7861 24.8312C69.691 23.7376 69.112 21.8948 69.112 19.506C69.112 15.5494 70.6856 13.1873 73.3201 13.1873C74.966 13.1873 76.2031 14.1972 76.5203 15.7279H81.9556C81.674 13.5038 81.0634 12.3445 79.5734 11.1629Z" fill="black"/>
</g>
<defs>
<clipPath id="clip0_867_2904">
<rect width="84" height="39" fill="white"/>
</clipPath>
</defs>
</svg>
