<svg width="61" height="37" viewBox="0 0 61 37" fill="none" xmlns="http://www.w3.org/2000/svg">
<g clip-path="url(#clip0_867_2926)">
<path d="M38.754 32.8191H22.2578V3.92773H38.7543L38.754 32.8191Z" fill="#FF5F00"/>
<path d="M23.302 18.3743C23.302 12.5137 26.1178 7.29301 30.5024 3.92859C27.1835 1.37815 23.0784 -0.00606621 18.8517 1.99846e-05C8.43996 1.99846e-05 0 8.22634 0 18.3743C0 28.5222 8.43996 36.7486 18.8517 36.7486C23.0785 36.7547 27.1837 35.3705 30.5027 32.82C26.1184 29.4562 23.302 24.2352 23.302 18.3743Z" fill="#EB001B"/>
<path d="M61.0082 18.3743C61.0082 28.5222 52.5682 36.7486 42.1564 36.7486C37.9292 36.7546 33.8236 35.3704 30.5039 32.82C34.8898 29.4556 37.7056 24.2352 37.7056 18.3743C37.7056 12.5134 34.8898 7.29301 30.5039 3.92859C33.8235 1.37822 37.929 -0.00595953 42.1561 1.92875e-05C52.5679 1.92875e-05 61.0079 8.22634 61.0079 18.3743" fill="#F79E1B"/>
</g>
<defs>
<clipPath id="clip0_867_2926">
<rect width="61" height="37" fill="white"/>
</clipPath>
</defs>
</svg>
