<svg width="78" height="47" viewBox="0 0 78 47" fill="none" xmlns="http://www.w3.org/2000/svg">
<g clip-path="url(#clip0_1744_3247)">
<path d="M49.5506 41.6895H28.457V4.98962H49.551L49.5506 41.6895Z" fill="#FF5F00"/>
<path d="M29.796 23.3399C29.796 15.8954 33.3965 9.26373 39.0031 4.99001C34.7592 1.75025 29.5101 -0.00807194 24.1055 -0.000340825C10.7921 -0.000340825 0 10.4493 0 23.3399C0 36.2306 10.7921 46.6802 24.1055 46.6802C29.5102 46.688 34.7595 44.9297 39.0035 41.6899C33.3973 37.4169 29.796 30.7849 29.796 23.3399Z" fill="#EB001B"/>
<path d="M78.0094 23.3403C78.0094 36.231 67.2173 46.6806 53.9039 46.6806C48.4986 46.6883 43.2488 44.93 39.0039 41.6902C44.6121 37.4165 48.2126 30.7852 48.2126 23.3403C48.2126 15.8954 44.6121 9.2641 39.0039 4.99038C43.2487 1.75072 48.4983 -0.00757022 53.9035 2.45004e-05C67.2169 2.45004e-05 78.009 10.4497 78.009 23.3403" fill="#F79E1B"/>
</g>
<defs>
<clipPath id="clip0_1744_3247">
<rect width="78" height="47" fill="white"/>
</clipPath>
</defs>
</svg>
