<svg width="59" height="51" viewBox="0 0 59 51" fill="none" xmlns="http://www.w3.org/2000/svg">
<g clip-path="url(#clip0_1744_3203)">
<path fill-rule="evenodd" clip-rule="evenodd" d="M58.9718 49.4979C58.7121 36.7352 56.6771 24.4516 53.2393 14.9108C49.7745 5.29956 45.4497 0.00561523 41.0649 0.00561523C38.3401 0.00561523 35.7808 2.00833 33.4542 5.96176C32.0134 8.41379 30.6706 11.6332 29.5031 15.422C28.3318 11.6332 26.9915 8.41379 25.5482 5.96176C23.2241 2.00833 20.6635 0.00561523 17.9388 0.00561523C13.5503 0.00561523 9.2279 5.29956 5.76437 14.9108C2.3278 24.4516 0.291588 36.7352 0.0318541 49.4966L0 50.9943H8.80522L8.82237 49.5486C9.16419 22.8846 15.4505 5.9729 18.0111 5.9729C19.7361 5.9729 24.1442 17.6834 24.8132 46.677L24.8475 48.1054H34.1562L34.1893 46.677C34.857 17.6834 39.2664 5.97167 40.9914 5.97167C43.5532 5.97167 49.837 22.8833 50.1801 49.5474L50.1985 50.9943H59L58.9718 49.4979Z" fill="#F1BB00"/>
<path fill-rule="evenodd" clip-rule="evenodd" d="M58.3065 49.514C58.0492 36.8231 56.0253 24.6224 52.6132 15.1535C49.3053 5.96305 45.0956 0.692627 41.0661 0.692627C36.6555 0.692627 32.5022 6.88395 29.5042 17.7974C26.5051 6.88519 22.3505 0.693865 17.9375 0.693865C13.9104 0.693865 9.69954 5.96429 6.38916 15.1523C2.97832 24.6212 0.956804 36.8231 0.699521 49.514L0.683594 50.3049H8.14849L8.15707 49.54C8.50379 22.5182 14.8232 5.28352 18.0122 5.28352C20.7444 5.28352 24.8597 19.6615 25.482 46.6585L25.5016 47.4172H33.5056L33.5228 46.6585C34.1451 19.6627 38.2629 5.28352 40.9926 5.28352C44.1829 5.28352 50.5023 22.5182 50.8477 49.54L50.8575 50.3049H58.3224L58.3065 49.514Z" fill="#F1BB00"/>
<path fill-rule="evenodd" clip-rule="evenodd" d="M17.8559 2.99365V4.51858C13.5029 4.97904 7.72384 24.6484 7.40652 49.5301L4.44531 46.4678V46.3911C5.38623 21.9947 11.9678 3.18922 17.8559 2.99489V2.99365Z" fill="#F1BB00"/>
<path fill-rule="evenodd" clip-rule="evenodd" d="M17.7027 1.48108H18.2087C22.5739 1.77814 26.7284 9.2518 29.4949 20.7977V43.1098C28.4167 20.0637 23.619 2.98992 17.9465 2.98992C16.7765 2.98992 15.577 3.73258 14.3984 5.11146V2.96021C15.5011 2.05293 16.6111 1.54544 17.7027 1.48108ZM43.0451 3.67317V5.8108C42.3419 4.96045 41.6484 4.50743 40.9905 4.50743C36.7882 4.50743 33.3173 22.8512 32.7697 46.6424L29.5047 43.2645V43.2113C30.5705 20.1145 35.3744 2.98992 41.0555 2.98992C41.7121 2.98992 42.3786 3.2251 43.0451 3.67317Z" fill="#F1BB00"/>
<path fill-rule="evenodd" clip-rule="evenodd" d="M57.5444 49.1698V49.5201L54.5758 46.4529L54.5636 46.4653C53.6986 23.8203 47.9735 5.97411 42.4492 3.329V1.70752C49.5233 4.07785 56.9698 24.1124 57.5432 49.1698H57.5444Z" fill="#F1BB00"/>
</g>
<defs>
<clipPath id="clip0_1744_3203">
<rect width="59" height="51" fill="white"/>
</clipPath>
</defs>
</svg>
