<svg width="39" height="33" viewBox="0 0 39 33" fill="none" xmlns="http://www.w3.org/2000/svg">
<g clip-path="url(#clip0_867_2911)">
<path fill-rule="evenodd" clip-rule="evenodd" d="M38.9814 32.0283C38.8097 23.7701 37.4645 15.8219 35.1921 9.64847C32.9018 3.4294 30.043 0.00390625 27.1446 0.00390625C25.3435 0.00390625 23.6517 1.29978 22.1138 3.85789C21.1614 5.44449 20.2738 7.52766 19.502 9.97924C18.7278 7.52766 17.8418 5.44449 16.8878 3.85789C15.3515 1.29978 13.6589 0.00390625 11.8578 0.00390625C8.95695 0.00390625 6.0998 3.4294 3.81035 9.64847C1.53872 15.8219 0.192745 23.7701 0.0210561 32.0275L0 32.9966H5.8204L5.83174 32.0611C6.05769 14.8079 10.213 3.86509 11.9056 3.86509C13.0459 3.86509 15.9597 11.4425 16.4019 30.203L16.4246 31.1273H22.5778L22.5997 30.203C23.0411 11.4425 25.9557 3.86429 27.096 3.86429C28.7894 3.86429 32.9431 14.8071 33.1699 32.0603L33.182 32.9966H39L38.9814 32.0283Z" fill="#F1BB00"/>
<path fill-rule="evenodd" clip-rule="evenodd" d="M38.5389 32.0385C38.3689 23.8268 37.031 15.9322 34.7756 9.80528C32.589 3.85852 29.8063 0.448242 27.1427 0.448242C24.2273 0.448242 21.4819 4.45439 19.5002 11.516C17.5176 4.4552 14.7714 0.449043 11.8544 0.449043C9.19237 0.449043 6.40891 3.85932 4.2207 9.80447C1.96607 15.9314 0.629816 23.8268 0.459747 32.0385L0.449219 32.5503H5.38364L5.38931 32.0554C5.6185 14.5707 9.79571 3.41882 11.9038 3.41882C13.7097 3.41882 16.43 12.7222 16.8414 30.1908L16.8544 30.6818H22.1451L22.1565 30.1908C22.5679 12.723 25.2898 3.41882 27.0941 3.41882C29.203 3.41882 33.3802 14.5707 33.6086 32.0554L33.6151 32.5503H38.5495L38.5389 32.0385Z" fill="#F1BB00"/>
<path fill-rule="evenodd" clip-rule="evenodd" d="M11.8021 1.9375V2.92422C8.92473 3.22216 5.10466 15.9494 4.89491 32.0493L2.9375 30.0679V30.0182C3.55947 14.2323 7.90999 2.06404 11.8021 1.9383V1.9375Z" fill="#F1BB00"/>
<path fill-rule="evenodd" clip-rule="evenodd" d="M11.7037 0.958984H12.0382C14.9237 1.1512 17.6699 5.9871 19.4985 13.458V27.8952C18.7858 12.983 15.6145 1.93529 11.8649 1.93529C11.0915 1.93529 10.2986 2.41584 9.51953 3.30805V1.91607C10.2484 1.329 10.9821 1.00063 11.7037 0.958984ZM28.4555 2.3774V3.76057C27.9906 3.21034 27.5322 2.91721 27.0974 2.91721C24.3196 2.91721 22.0253 14.7867 21.6632 30.181L19.505 27.9953V27.9609C20.2096 13.0159 23.385 1.93529 27.1403 1.93529C27.5744 1.93529 28.0149 2.08747 28.4555 2.3774Z" fill="#F1BB00"/>
<path fill-rule="evenodd" clip-rule="evenodd" d="M38.0368 31.8164V32.043L36.0745 30.0584L36.0664 30.0664C35.4946 15.4137 31.7102 3.86621 28.0586 2.15466V1.10547C32.7347 2.63921 37.6569 15.6027 38.036 31.8164H38.0368Z" fill="#F1BB00"/>
</g>
<defs>
<clipPath id="clip0_867_2911">
<rect width="39" height="33" fill="white"/>
</clipPath>
</defs>
</svg>
