<svg width="119" height="39" viewBox="0 0 119 39" fill="none" xmlns="http://www.w3.org/2000/svg">
<path d="M48.5006 19.5631C44.5958 19.5631 41.9901 22.4033 41.9901 26.3047C41.9901 30.0359 44.3722 32.381 48.1629 32.381C50.6305 32.381 52.5577 31.2449 53.2662 30.1571L52.9097 29.7719C52.1329 30.7532 50.4586 31.4704 48.7445 31.4704C45.6818 31.4704 43.8476 29.0785 43.8476 25.5168C43.8476 22.0847 45.6322 20.1585 48.5569 20.1585C50.8166 20.1585 52.1209 21.235 52.7596 23.3454H53.1536L53.0223 19.7032H52.647C52.5097 19.9588 52.2763 20.0709 51.9341 20.0709C51.1566 20.0709 50.4428 19.5631 48.5006 19.5631ZM4.57849 2.81445V3.18218C5.26368 3.31106 6.26032 3.47286 6.19203 4.88072L5.77926 12.3578C5.6877 13.9562 5.20289 14.5418 4.01562 14.6692V15.037H8.21834V14.6692C6.93951 14.4563 6.57403 14.0403 6.64232 12.4629L7.01756 4.95077L11.2203 14.9494H11.7456L15.8545 4.95077L16.2485 12.9532C16.3176 14.1909 15.9551 14.5628 14.9727 14.6692V15.037H19.7007V14.6692C18.5352 14.5628 18.0812 14.055 18.0122 12.5855L17.6182 4.93326C17.5731 3.82447 18.0729 3.35379 19.1004 3.26973V2.8845H15.8358L11.9708 12.2878L8.03072 2.81445H4.57849ZM27.9748 2.81445V3.18218C29.3918 3.28864 29.4758 3.56391 29.4758 6.71936V10.9395C29.4758 14.3513 29.3242 14.5628 27.9748 14.6692V15.037H32.6654V14.6692C31.1794 14.4787 31.1832 14.3779 31.1832 10.7118V10.0289L31.8023 9.38099C33.3558 11.172 35.0256 13.1395 36.8306 15.037H39.9451H44.2603V14.6692C42.9808 14.5852 42.947 14.6069 42.947 11.9201V7.41979H39.8888V7.78751C41.2126 7.83094 41.371 7.89608 41.371 10.0289V11.9025C41.371 14.5827 41.3415 14.6078 39.9451 14.6692C39.2141 14.6055 38.4824 14.4143 36.1739 11.9201C35.2838 10.9388 33.8144 9.28784 32.9468 8.24279L35.7424 5.336C37.1127 3.92814 37.858 3.22561 39.1383 3.18218V2.81445H34.748V3.18218C35.3191 3.28864 35.536 3.48196 35.536 3.8651C35.536 4.12146 35.4804 4.57113 34.6354 5.42356L31.1832 8.97825V6.68433C31.1832 3.55131 31.3393 3.35238 32.6654 3.18218V2.81445H27.9748ZM42.0839 3.30475C41.4896 3.30475 41.052 3.73202 41.052 4.28536C41.052 4.8401 41.4896 5.26596 42.0839 5.26596C42.6783 5.26596 43.1346 4.8401 43.1346 4.28536C43.1346 3.73202 42.6783 3.30475 42.0839 3.30475ZM32.534 20.4912C31.3017 20.4912 30.0199 21.2091 30.0199 22.7851C30.0199 23.3832 30.221 23.9303 30.564 24.5712C28.8732 25.0615 27.9748 26.4301 27.9748 27.9858C27.9748 30.8218 30.2863 32.3635 32.8905 32.3635C34.5123 32.3635 35.7919 31.8837 36.9807 30.9451C37.7109 31.4368 38.4411 31.9124 38.8756 32.0833H41.6899V31.7156C40.7751 31.6308 39.398 30.9318 37.9375 29.9295C38.4621 29.1198 38.5889 27.9487 38.7255 27.0752C38.8411 26.3293 39.4272 26.3475 39.8137 26.3047V25.972H36.1176V26.3047C36.9859 26.4112 37.825 26.517 37.825 27.7757C37.825 28.4369 37.7139 29.096 37.3934 29.5442C34.1498 27.1775 31.1644 23.9009 31.1644 22.2598C31.1644 21.4487 31.689 21.069 32.534 21.069C33.5855 21.069 34.5874 21.7148 35.0669 22.9952H35.4234L35.3859 20.7013H35.0106C34.9889 20.8505 34.838 20.9464 34.748 20.9464C34.2909 20.9464 33.6553 20.4912 32.534 20.4912ZM58.5571 7.26219C56.867 7.26219 55.8929 8.24419 55.8929 9.41602C55.8929 11.9754 60.5834 11.4592 60.5834 13.5486C60.5834 14.2518 59.8749 14.6692 58.6884 14.6692C57.5229 14.6692 56.5308 14.0907 56.2118 12.7256H55.724C55.724 13.281 55.8163 14.305 55.9304 14.4766C56.2508 14.9669 57.5582 15.2296 58.6321 15.2296C60.5736 15.2296 61.7654 14.1761 61.7654 12.9182C61.7654 10.1031 57.1124 10.5465 57.1124 8.7331C57.1124 8.0936 57.7285 7.77 58.482 7.77C60.0123 7.77 60.6907 9.09032 60.8273 9.53859H61.1838C61.1838 8.42981 61.0509 7.73218 60.9586 7.64743C60.8671 7.56197 59.6993 7.26219 58.5571 7.26219ZM67.1501 7.26219C64.7733 7.26219 63.1726 9.02938 63.1726 11.4823C63.1726 13.4001 64.224 15.2471 67.0563 15.2471C68.2203 15.2471 69.62 14.8086 70.396 14.0213L70.2084 13.6536C69.4549 14.0802 68.6263 14.284 67.8256 14.284C65.5636 14.284 64.624 12.3865 64.6923 10.6593H70.396C70.4875 8.91101 69.5021 7.26219 67.1501 7.26219ZM58.6134 24.3085C56.0535 24.3085 54.2418 26.0442 54.2418 28.2835C54.2418 29.7761 54.879 31.0158 56.043 31.6981C56.7296 32.1022 57.6167 32.2759 58.5758 32.2759C61.1117 32.2759 62.9287 30.5648 62.9287 28.2835C62.9286 26.8126 62.293 25.5854 61.1275 24.9039C60.4423 24.4983 59.5725 24.3085 58.6134 24.3085ZM24.4663 7.31472C22.0212 7.31472 20.1886 9.36208 20.1886 11.6224C20.1886 13.4134 21.2625 15.2471 24.0723 15.2471C25.2363 15.2471 26.636 14.8093 27.412 14.0213L27.2244 13.6536C26.4709 14.0795 25.6408 14.284 24.8416 14.284C22.5796 14.284 21.7271 12.5007 21.7271 10.6243C21.7271 9.75082 21.953 9.11763 22.365 8.7331C22.7522 8.37027 23.3001 8.24279 23.8472 8.24279C24.6464 8.24279 25.5673 8.53487 26.23 9.34597L26.3801 9.32846C26.6315 9.03078 26.8814 8.42911 26.9054 7.98013C26.3343 7.55427 25.4712 7.31472 24.4663 7.31472ZM50.9397 7.31472C49.8882 7.31472 48.7828 7.78191 47.9377 8.78563V7.41979H44.8795V7.78751C46.2041 7.83024 46.3617 7.89608 46.3617 10.0289V11.9025C46.3617 14.6097 46.3557 14.6055 44.917 14.6692V15.037H49.2698V14.6692C47.9888 14.5852 47.9377 14.6062 47.9377 11.9201V9.85379C47.9377 9.14915 48.9741 8.27782 50.2079 8.27782C51.2121 8.27782 52.0091 8.68547 52.0091 10.5192V12.0426C52.0091 14.581 51.9175 14.6055 50.752 14.6692V15.037H55.0298V14.6692C53.5911 14.6055 53.5851 14.581 53.5851 12.0426V10.3441C53.5851 8.04107 52.2417 7.31472 50.9397 7.31472ZM69.608 24.361C68.4882 24.361 67.3955 25.0209 66.7561 25.832V24.4661H63.6979V24.8338C65.0248 24.8766 65.1801 24.9424 65.1801 27.0752V29.2466C65.1801 31.6995 65.1426 31.6953 63.7729 31.7156V32.0833H68.0882V31.7156C66.8777 31.6091 66.7561 31.607 66.7561 29.1765V26.9702C66.7561 26.1815 67.8286 25.3241 68.9701 25.3241C70.2039 25.3241 70.7337 25.965 70.7337 27.478V29.0189C70.7337 31.5356 70.6744 31.6518 69.5329 31.7156V32.0833H73.5855V31.7156C72.2377 31.6091 72.2722 31.4984 72.2722 29.089V26.9526C72.2722 26.185 73.3131 25.3241 74.5236 25.3241C75.5526 25.3241 76.2122 25.9006 76.2122 27.478V29.229C76.2122 31.5321 76.1995 31.6315 75.0115 31.7156V32.0833H79.308V31.7156C77.8235 31.6518 77.8821 31.4641 77.8821 29.2466V27.2678C77.8821 25.156 76.6573 24.361 75.2178 24.361C73.9173 24.361 72.8568 25.0447 72.1033 26.0246C71.7829 24.9802 70.9791 24.361 69.608 24.361ZM85.2368 24.361C84.0488 24.361 83.0844 24.8794 82.4225 25.6043V24.4661H79.4393V24.8338C80.6956 24.8766 80.8465 24.948 80.8465 27.4429V32.6436C80.8465 35.3522 80.9118 35.5567 79.4956 35.6205V35.9882H83.8672V35.6205C82.3144 35.5792 82.4225 35.3396 82.4225 32.5036V31.4704C83.0394 32.0462 84.0128 32.2759 84.8803 32.2759C87.3472 32.2759 88.8954 30.5515 88.8954 28.2484C88.8954 26.0316 87.3599 24.361 85.2368 24.361ZM93.2107 24.361C92.3191 24.361 91.011 24.6608 90.3026 25.2366C90.3484 25.5987 90.6936 26.3019 90.9217 26.5149L91.1281 26.4799C91.4928 25.6484 92.1165 25.044 93.0981 25.044C94.1728 25.044 94.6179 25.7535 94.6179 26.5849V27.4605C94.6179 28.0362 91.8906 28.1441 90.7716 29.0189C90.3829 29.3383 90.0962 29.7432 90.0962 30.2972C90.0962 31.4914 91.0013 32.2759 92.3476 32.2759C93.1927 32.2759 93.9207 32.0147 94.6741 31.2253C94.7882 31.7793 95.282 32.0833 96.0813 32.0833H98.0138H102.235V31.7156C100.956 31.6315 100.903 31.6525 100.903 28.9664V26.9001C100.903 26.1955 101.941 25.3241 103.173 25.3241C104.179 25.3241 104.975 25.7318 104.975 27.5655V29.089C104.975 31.6273 104.881 31.6518 103.717 31.7156V32.0833H107.995V31.7156C106.555 31.6518 106.551 31.6273 106.551 29.089V27.3904C106.551 25.0874 105.209 24.361 103.905 24.361C102.855 24.361 101.748 24.8282 100.903 25.832V24.4661H97.8449V24.8338C99.1695 24.8766 99.3271 24.9424 99.3271 27.0752V28.9489C99.3271 31.656 99.3024 31.6518 97.8637 31.7156H97.526C96.3838 31.7156 96.2502 31.3556 96.2502 29.8419V27.2853C96.2502 26.7957 96.1939 26.3517 96.0813 25.9896C95.6926 24.7953 94.6494 24.361 93.2107 24.361ZM70.79 7.52485V7.89258C71.7258 7.9353 71.8039 8.05858 73.0602 10.6593L75.1991 15.072C74.4681 16.8203 73.3236 17.7687 71.0151 18.259C71.1307 18.6218 71.5577 19.2571 71.7844 19.4497C74.8238 18.2982 75.4205 16.4196 76.4937 13.5836L78.1072 9.27593C78.4719 8.29463 79.0573 7.89258 79.6269 7.89258V7.52485H76.6813V7.89258C77.3905 7.9353 77.7627 8.30233 77.488 9.04829L75.912 13.3735L74.3923 10.0289C73.9825 9.11273 73.8294 8.75481 73.8294 8.43541C73.8294 8.13633 74.0058 7.95772 74.5987 7.89258V7.52485H70.79ZM107.414 24.5712V24.9389C108.349 24.9816 108.446 25.1049 109.703 27.7056L111.823 32.1183C111.091 33.8666 109.946 34.815 107.639 35.3053C107.754 35.6681 108.181 36.3034 108.408 36.496C111.447 35.3445 112.044 33.466 113.117 30.6299L114.75 26.3223C115.114 25.341 115.68 24.9389 116.251 24.9389V24.5712H113.305V24.9389C114.014 24.9816 114.405 25.3487 114.13 26.0946L112.554 30.4198L111.016 27.0752C110.605 26.1591 110.453 25.8011 110.453 25.4817C110.453 25.1827 110.629 25.004 111.222 24.9389V24.5712H107.414ZM66.8312 7.89258C68.1092 7.89258 68.8913 8.67426 68.9138 10.0814H64.711C64.8476 8.67426 65.5291 7.89258 66.8312 7.89258ZM58.3882 24.9389C59.8502 24.9389 61.2964 26.2592 61.2964 28.7738C61.2964 30.5438 60.4588 31.628 58.7447 31.628C57.2602 31.628 55.8741 30.356 55.8741 27.7757C55.8741 25.9419 56.81 24.9389 58.3882 24.9389ZM30.8642 25.1315C32.0072 27.029 34.1408 29.0427 36.3803 30.5774C35.6936 31.0684 34.5393 31.2078 33.6035 31.2078C31.2042 31.2078 29.307 29.6248 29.307 27.513C29.307 26.1913 29.9269 25.3662 30.8642 25.1315ZM84.5051 25.3241C86.1937 25.3241 87.2444 26.5009 87.2444 28.4411C87.2444 30.424 86.3595 31.6981 84.6927 31.6981C83.6188 31.6981 82.4225 31.1307 82.4225 30.3848V26.6024C82.4225 25.9629 83.4086 25.3241 84.5051 25.3241ZM94.6179 28.1784V30.2797C94.6179 30.9192 93.7165 31.4354 92.9856 31.4354C92.3004 31.4354 91.7285 31.032 91.7285 30.1571C91.7285 28.6015 93.4539 28.7752 94.6179 28.1784Z" fill="#24477F"/>
</svg>
