<svg width="153" height="50" viewBox="0 0 153 50" fill="none" xmlns="http://www.w3.org/2000/svg">
<path d="M62.359 25.0803C57.3386 25.0803 53.9884 28.7216 53.9884 33.7234C53.9884 38.507 57.0511 41.5135 61.9248 41.5135C65.0974 41.5135 67.5753 40.0569 68.4862 38.6624L68.0279 38.1685C67.0292 39.4265 64.8765 40.3461 62.6726 40.3461C58.7348 40.3461 56.3766 37.2795 56.3766 32.7132C56.3766 28.313 58.6711 25.8436 62.4314 25.8436C65.3367 25.8436 67.0137 27.2238 67.8349 29.9294H68.3414L68.1726 25.2599H67.6901C67.5136 25.5877 67.2135 25.7313 66.7735 25.7313C65.7738 25.7313 64.8562 25.0803 62.359 25.0803ZM5.88774 3.60767V4.07911C6.76871 4.24434 8.0501 4.45177 7.9623 6.25673L7.4316 15.8428C7.31388 17.892 6.69055 18.6427 5.16406 18.8061V19.2776H10.5676V18.8061C8.92335 18.5331 8.45344 17.9997 8.54124 15.9775L9.0237 6.34653L14.4272 19.1653H15.1026L20.3855 6.34653L20.8921 16.606C20.9808 18.1928 20.5148 18.6696 19.2517 18.8061V19.2776H25.3307V18.8061C23.8321 18.6696 23.2484 18.0186 23.1596 16.1346L22.653 6.32408C22.5951 4.90257 23.2378 4.29912 24.5587 4.19136V3.69746H20.3614L15.3921 15.753L10.3263 3.60767H5.88774ZM35.9688 3.60767V4.07911C37.7905 4.2156 37.8986 4.56851 37.8986 8.61395V14.0243C37.8986 18.3984 37.7037 18.6696 35.9688 18.8061V19.2776H41.9994V18.8061C40.0889 18.5619 40.0937 18.4326 40.0937 13.7325V12.8569L40.8898 12.0263C42.8872 14.3225 45.0341 16.8449 47.3547 19.2776H51.3591H56.9073V18.8061C55.2621 18.6984 55.2187 18.7262 55.2187 15.2815V9.51194H51.2867V9.98338C52.9888 10.0391 53.1924 10.1226 53.1924 12.8569V15.2591C53.1924 18.6951 53.1545 18.7274 51.3591 18.8061C50.4192 18.7244 49.4785 18.4793 46.5104 15.2815C45.366 14.0234 43.4767 11.9069 42.3613 10.5671L45.9556 6.84042C47.7175 5.03547 48.6756 4.13478 50.3218 4.07911V3.60767H44.6771V4.07911C45.4114 4.2156 45.6902 4.46345 45.6902 4.95465C45.6902 5.28331 45.6188 5.85982 44.5323 6.95267L40.0937 11.51V8.56905C40.0937 4.55235 40.2944 4.29732 41.9994 4.07911V3.60767H35.9688ZM54.109 4.23626C53.3448 4.23626 52.7823 4.78403 52.7823 5.49344C52.7823 6.20465 53.3448 6.75063 54.109 6.75063C54.8733 6.75063 55.4599 6.20465 55.4599 5.49344C55.4599 4.78403 54.8733 4.23626 54.109 4.23626ZM41.8306 26.2701C40.2462 26.2701 38.5981 27.1906 38.5981 29.211C38.5981 29.9779 38.8567 30.6792 39.2977 31.5009C37.1238 32.1295 35.9688 33.8842 35.9688 35.8786C35.9688 39.5146 38.9407 41.491 42.2889 41.491C44.3741 41.491 46.0193 40.8759 47.5477 39.6726C48.4865 40.303 49.4254 40.9127 49.9841 41.1318H53.6025V40.6604C52.4263 40.5517 50.6556 39.6555 48.7779 38.3705C49.4524 37.3324 49.6155 35.831 49.7911 34.7112C49.9397 33.7549 50.6933 33.7782 51.1902 33.7234V33.2969H46.438V33.7234C47.5544 33.8599 48.6332 33.9955 48.6332 35.6092C48.6332 36.4569 48.4904 37.3019 48.0784 37.8766C43.908 34.8423 40.0696 30.6415 40.0696 28.5375C40.0696 27.4977 40.7441 27.011 41.8306 27.011C43.1824 27.011 44.4706 27.8389 45.0872 29.4804H45.5455L45.4972 26.5395H45.0148C44.9868 26.7308 44.7929 26.8538 44.6771 26.8538C44.0894 26.8538 43.2722 26.2701 41.8306 26.2701ZM75.2888 9.30989C73.1158 9.30989 71.8634 10.5689 71.8634 12.0712C71.8634 15.3525 77.894 14.6906 77.894 17.3693C77.894 18.2709 76.9832 18.8061 75.4576 18.8061C73.9591 18.8061 72.6835 18.0644 72.2734 16.3142H71.6463C71.6463 17.0263 71.7649 18.3392 71.9116 18.5592C72.3236 19.1878 74.0045 19.5245 75.3853 19.5245C77.8815 19.5245 79.4138 18.1739 79.4138 16.5611C79.4138 12.9521 73.4313 13.5206 73.4313 11.1957C73.4313 10.3758 74.2235 9.96094 75.1923 9.96093C77.1597 9.96093 78.032 11.6536 78.2076 12.2284H78.666C78.666 10.8068 78.4952 9.91244 78.3765 9.80379C78.2588 9.69423 76.7574 9.30989 75.2888 9.30989ZM86.337 9.30989C83.2811 9.30989 81.223 11.5755 81.223 14.7203C81.223 17.179 82.5748 19.547 86.2164 19.547C87.7129 19.547 89.5125 18.9848 90.5102 17.9755L90.269 17.504C89.3002 18.0509 88.235 18.3122 87.2054 18.3122C84.2972 18.3122 83.0891 15.8796 83.1769 13.6651H90.5102C90.6279 11.4238 89.361 9.30989 86.337 9.30989ZM75.3612 31.1642C72.0699 31.1642 69.7406 33.3894 69.7406 36.2602C69.7406 38.1739 70.5598 39.7633 72.0563 40.6379C72.9392 41.1561 74.0798 41.3788 75.3129 41.3788C78.5733 41.3788 80.9094 39.185 80.9094 36.2602C80.9094 34.3745 80.0921 32.8012 78.5936 31.9274C77.7126 31.4075 76.5943 31.1642 75.3612 31.1642ZM31.4578 9.37724C28.3141 9.37724 25.9578 12.0021 25.9578 14.8999C25.9578 17.196 27.3386 19.547 30.9512 19.547C32.4478 19.547 34.2474 18.9857 35.2451 17.9755L35.0039 17.504C34.0351 18.05 32.9679 18.3122 31.9403 18.3122C29.032 18.3122 27.9359 16.0259 27.9359 13.6202C27.9359 12.5004 28.2263 11.6887 28.7561 11.1957C29.254 10.7305 29.9584 10.5671 30.6618 10.5671C31.6894 10.5671 32.8733 10.9415 33.7254 11.9814L33.9183 11.959C34.2416 11.5773 34.5629 10.8059 34.5938 10.2303C33.8595 9.68435 32.7498 9.37724 31.4578 9.37724ZM65.495 9.37724C64.1431 9.37724 62.7218 9.9762 61.6353 11.263V9.51194H57.7033V9.98338C59.4064 10.0382 59.609 10.1226 59.609 12.8569V15.2591C59.609 18.7298 59.6013 18.7244 57.7516 18.8061V19.2776H63.348V18.8061C61.7009 18.6984 61.6353 18.7253 61.6353 15.2815V12.6325C61.6353 11.7291 62.9679 10.612 64.5542 10.612C65.8452 10.612 66.87 11.1346 66.87 13.4855V15.4387C66.87 18.693 66.7522 18.7244 65.2537 18.8061V19.2776H70.7537V18.8061C68.904 18.7244 68.8963 18.693 68.8963 15.4387V13.261C68.8963 10.3085 67.1691 9.37724 65.495 9.37724ZM89.4971 31.2315C88.0574 31.2315 86.6525 32.0774 85.8304 33.1173V31.3662H81.8984V31.8376C83.6044 31.8924 83.8041 31.9768 83.8041 34.7112V37.495C83.8041 40.6397 83.7559 40.6343 81.9949 40.6604V41.1318H87.5431V40.6604C85.9867 40.5239 85.8304 40.5212 85.8304 37.4052V34.5765C85.8304 33.5654 87.2093 32.4662 88.6769 32.4662C90.2632 32.4662 90.9444 33.2879 90.9444 35.2276V37.2031C90.9444 40.4296 90.8682 40.5787 89.4006 40.6604V41.1318H94.6111V40.6604C92.8781 40.5239 92.9225 40.382 92.9225 37.2929V34.5541C92.9225 33.5699 94.2608 32.4662 95.8172 32.4662C97.1401 32.4662 97.9883 33.2053 97.9883 35.2276V37.4725C97.9883 40.4251 97.9719 40.5526 96.4444 40.6604V41.1318H101.969V40.6604C100.06 40.5787 100.135 40.338 100.135 37.495V34.9582C100.135 32.2507 98.5605 31.2315 96.7098 31.2315C95.0376 31.2315 93.6742 32.1079 92.7054 33.3642C92.2934 32.0253 91.2599 31.2315 89.4971 31.2315ZM109.591 31.2315C108.064 31.2315 106.824 31.896 105.973 32.8254V31.3662H102.137V31.8376C103.753 31.8924 103.947 31.984 103.947 35.1827V41.8502C103.947 45.3227 104.031 45.585 102.21 45.6667V46.1381H107.83V45.6667C105.834 45.6137 105.973 45.3066 105.973 41.6706V40.3461C106.766 41.0842 108.018 41.3788 109.133 41.3788C112.305 41.3788 114.295 39.1679 114.295 36.2153C114.295 33.3732 112.321 31.2315 109.591 31.2315ZM119.843 31.2315C118.697 31.2315 117.015 31.6158 116.104 32.354C116.163 32.8183 116.607 33.7198 116.9 33.9928L117.166 33.9479C117.635 32.882 118.437 32.107 119.699 32.107C121.08 32.107 121.653 33.0167 121.653 34.0826V35.2051C121.653 35.9433 118.146 36.0815 116.707 37.2031C116.208 37.6126 115.839 38.1316 115.839 38.842C115.839 40.373 117.003 41.3788 118.734 41.3788C119.82 41.3788 120.756 41.0438 121.725 40.0318C121.872 40.7421 122.507 41.1318 123.534 41.1318H126.019H131.446V40.6604C129.801 40.5526 129.734 40.5796 129.734 37.1358V34.4867C129.734 33.5833 131.068 32.4662 132.653 32.4662C133.946 32.4662 134.968 32.9889 134.968 35.3398V37.2929C134.968 40.5472 134.849 40.5787 133.352 40.6604V41.1318H138.852V40.6604C137 40.5787 136.995 40.5472 136.995 37.2929V35.1153C136.995 32.1627 135.269 31.2315 133.593 31.2315C132.243 31.2315 130.82 31.8305 129.734 33.1173V31.3662H125.802V31.8376C127.505 31.8924 127.707 31.9768 127.707 34.7112V37.1133C127.707 40.5841 127.676 40.5787 125.826 40.6604H125.392C123.923 40.6604 123.751 40.1988 123.751 38.2583V34.9806C123.751 34.3529 123.679 33.7836 123.534 33.3193C123.034 31.7883 121.693 31.2315 119.843 31.2315ZM91.0168 9.64664V10.1181C92.22 10.1729 92.3204 10.3309 93.9356 13.6651L96.6856 19.3225C95.7458 21.5638 94.2743 22.7797 91.3063 23.4083C91.4549 23.8735 92.0039 24.6879 92.2953 24.9349C96.2032 23.4586 96.9703 21.0502 98.3501 17.4142L100.425 11.8916C100.894 10.6335 101.646 10.1181 102.379 10.1181V9.64664H98.5913V10.1181C99.5032 10.1729 99.9818 10.6434 99.6286 11.5998L97.6023 17.1448L95.6484 12.8569C95.1215 11.6824 94.9247 11.2235 94.9247 10.814C94.9247 10.4306 95.1514 10.2016 95.9137 10.1181V9.64664H91.0168ZM138.104 31.5009V31.9723C139.308 32.0271 139.432 32.1852 141.047 35.5194L143.773 41.1767C142.832 43.4181 141.361 44.634 138.394 45.2626C138.541 45.7277 139.09 46.5422 139.383 46.7892C143.291 45.3129 144.058 42.9045 145.438 39.2685L147.536 33.7459C148.005 32.4878 148.733 31.9723 149.466 31.9723V31.5009H145.679V31.9723C146.591 32.0271 147.093 32.4977 146.74 33.454L144.714 38.9991L142.736 34.7112C142.207 33.5366 142.012 33.0778 142.012 32.6683C142.012 32.2848 142.239 32.0559 143.001 31.9723V31.5009H138.104ZM85.9269 10.1181C87.5701 10.1181 88.5756 11.1202 88.6045 12.9243H83.201C83.3766 11.1202 84.2528 10.1181 85.9269 10.1181ZM75.0717 31.9723C76.9513 31.9723 78.8107 33.6651 78.8107 36.8888C78.8107 39.1581 77.7339 40.5481 75.53 40.5481C73.6214 40.5481 71.8392 38.9174 71.8392 35.6092C71.8392 33.2583 73.0425 31.9723 75.0717 31.9723ZM39.6837 32.2193C41.1532 34.6519 43.8965 37.2337 46.7757 39.2012C45.8929 39.8306 44.4088 40.0093 43.2056 40.0093C40.1208 40.0093 37.6815 37.9799 37.6815 35.2725C37.6815 33.5779 38.4785 32.5201 39.6837 32.2193ZM108.651 32.4662C110.822 32.4662 112.172 33.9749 112.172 36.4623C112.172 39.0045 111.035 40.6379 108.892 40.6379C107.511 40.6379 105.973 39.9106 105.973 38.9542V34.1051C105.973 33.2852 107.241 32.4662 108.651 32.4662ZM121.653 36.1255V38.8195C121.653 39.6394 120.494 40.3012 119.554 40.3012C118.673 40.3012 117.938 39.7839 117.938 38.6624C117.938 36.6679 120.156 36.8906 121.653 36.1255Z" fill="#24477F"/>
</svg>
