<svg width="99" height="26" viewBox="0 0 99 26" fill="none" xmlns="http://www.w3.org/2000/svg">
<g clip-path="url(#clip0_1744_3223)">
<path fill-rule="evenodd" clip-rule="evenodd" d="M78.3277 1.78027C78.3277 1.02036 77.6324 0.344656 76.7637 0.344656H74.5909C73.7209 0.344656 73.0255 1.02036 73.0255 1.78027L73.1122 24.4197C73.1122 25.1796 73.7209 25.8553 74.5909 25.8553H76.7637C77.6324 25.8553 78.3277 25.1796 78.3277 24.4197V1.78027ZM81.1099 2.45596V3.46983C81.1099 3.97709 81.4579 4.31527 81.9799 4.31527H97.2799C97.9753 4.31527 98.584 3.72379 98.584 3.04809V1.27431C98.584 0.59861 97.9753 -0.0770821 97.2799 0.00713503C97.2799 0.00713503 82.5006 1.44275 81.9799 1.52696C81.4572 1.52696 81.1099 1.95 81.1099 2.45596ZM68.6793 25.8553C64.8545 25.8553 62.5064 23.0676 62.5064 19.9424V10.9031H61.3764C60.8543 10.9031 60.333 10.3972 60.333 9.88926V8.36813C60.333 7.77796 60.8537 7.35557 61.3764 7.35557H62.5064V1.77961C62.5064 1.0197 63.1151 0.343997 63.9838 0.343997H66.1565C66.9399 0.343997 67.5473 1.0197 67.5473 1.77961V7.35557H70.9381C71.5468 7.35557 71.9815 7.77731 71.9815 8.36813V9.88926C71.9815 10.3965 71.5475 10.9031 70.9381 10.9031H67.5473V19.2667C67.5473 20.8708 68.5906 22.0544 70.4167 22.0544H70.7648C71.3721 22.0544 71.8948 22.4761 71.8948 23.1525V24.7578C71.8948 25.3493 71.3728 25.8559 70.7648 25.8559H68.6793V25.8553ZM42.5989 16.31C42.5989 11.4953 39.6434 6.68053 32.9491 6.68053C26.7769 6.68053 23.3867 11.4111 23.3867 16.31C23.3867 21.5465 27.0375 26.1934 33.0358 26.1934C37.122 26.1934 41.1208 24.1664 41.9028 20.703C41.9895 20.2813 41.6422 19.6049 41.0335 19.6049H38.078C37.5567 19.6049 37.122 19.8589 36.8606 20.2806C35.9913 21.4629 34.7745 22.0544 33.0358 22.0544C30.4277 22.0544 28.6889 20.1109 28.5149 17.9154H40.9461C42.0775 17.9154 42.5989 17.3239 42.5989 16.31ZM28.6023 14.2829C28.7763 12.1716 30.6884 10.5663 32.9491 10.5663C35.2966 10.5663 37.2086 12.1716 37.4693 14.2829H28.6023ZM99.1053 16.31C99.1053 11.4953 96.1492 6.68053 89.4556 6.68053C83.2826 6.68053 79.8938 11.4111 79.8938 16.31C79.8938 21.5465 83.5446 26.1934 89.5436 26.1934C93.6284 26.1934 97.6279 24.1664 98.4099 20.703C98.4966 20.2813 98.1486 19.6049 97.5412 19.6049H94.5851C94.3388 19.6027 94.0963 19.6641 93.8824 19.7828C93.6685 19.9015 93.4909 20.0733 93.3677 20.2806C92.499 21.4629 91.2823 22.0544 89.4562 22.0544C86.9355 22.0544 85.1967 20.1109 85.0234 17.9154H97.4539C98.5846 17.9154 99.1053 17.3239 99.1053 16.31ZM85.1094 14.2829C85.2827 12.1716 87.1955 10.5663 89.4556 10.5663C91.803 10.5663 93.7151 12.1716 93.8898 14.2829H85.1094Z" fill="#2B5692"/>
<path fill-rule="evenodd" clip-rule="evenodd" d="M58.3325 0.598588H18.1695C17.2134 0.598588 16.5174 1.35849 16.5174 2.20262L16.604 17.5778C16.604 17.5778 7.99768 2.37237 7.56299 1.61245C7.12831 0.851235 6.17159 0.175537 4.95488 0.175537H1.6514C0.695363 0.175537 0 0.936755 0 1.78089V24.2505C0 25.1802 0.695363 25.8559 1.6514 25.8559H3.73749C4.69353 25.8559 5.38889 25.1802 5.38889 24.2505L5.30222 8.53915C5.30222 8.53915 13.9953 23.8288 14.4299 24.4203C14.8646 25.2644 15.734 25.8559 16.9507 25.8559H19.9928C20.9496 25.8559 21.6449 25.1802 21.6449 24.2505V4.40011H58.3305C58.9392 4.40011 59.4606 3.89284 59.4606 3.30202V1.69667C59.4626 1.10454 58.9419 0.598588 58.3325 0.598588Z" fill="#2B5692"/>
<path fill-rule="evenodd" clip-rule="evenodd" d="M51.8127 10.3971C53.5514 10.3971 54.8555 10.9873 55.3768 12.0867C55.5515 12.5926 55.9855 12.6769 56.5942 12.6769H59.0283C59.3763 12.6769 59.897 12.3387 59.897 11.8327C59.897 9.12929 56.5075 6.67981 51.8127 6.67981C46.9445 6.67981 43.7283 8.95955 43.7283 12.5084C43.7283 15.2961 45.9884 16.9014 48.6832 17.6613C49.9873 17.9153 52.16 18.4213 53.2034 18.7594C54.2468 19.0134 55.2895 19.3509 55.2895 20.2806C55.2895 21.8004 53.7254 22.2241 51.8987 22.2241C50.2479 22.2241 48.5959 21.5471 48.1612 20.3648C47.8998 19.6891 47.3785 19.6049 46.6831 19.6049H44.249C43.8143 19.6049 43.293 20.0266 43.293 20.5345V20.8714C43.293 23.4906 46.9445 26.1934 51.9867 26.1934C55.4642 26.1934 60.419 24.7578 60.419 20.1963C60.419 17.4916 58.5936 15.6342 55.5508 14.8743C54.4208 14.6204 51.6393 13.8605 51.03 13.7763C49.8999 13.4381 48.8565 13.1006 48.8565 12.2551C48.8572 10.8195 50.1619 10.3971 51.8127 10.3971Z" fill="#2B5692"/>
</g>
<defs>
<clipPath id="clip0_1744_3223">
<rect width="99" height="26" fill="white"/>
</clipPath>
</defs>
</svg>
