<svg width="125" height="34" viewBox="0 0 125 34" fill="none" xmlns="http://www.w3.org/2000/svg">
<path d="M29.4745 25.5102L27.3472 10.3278H27.2707L25.089 25.5102H20.6055L23.621 8.36442H30.9364L33.9336 25.5102H29.4745ZM51.04 25.5102L50.9412 10.6214H50.8692L48.2311 25.5102H44.0233L41.3982 10.6214H41.3232L41.2275 25.5102H37.0579L37.4193 8.36442H44.1259L46.0786 21.1009H46.1743L48.1324 8.36442H54.8358L55.1958 25.5102H51.04ZM70.6749 22.1875C70.2262 25.5086 67.1286 26.0893 64.9393 26.0893C61.3042 26.0893 59.056 24.4573 59.056 21.1363L59.0583 19.7818H63.4622L63.4652 21.4693C63.4652 22.3854 64.0801 22.946 65.0297 22.946C65.8766 22.946 66.3728 22.5889 66.5451 21.8553C66.6248 21.5135 66.6577 21.0148 66.5168 20.6384C65.7051 18.5061 59.9848 17.4613 59.2895 14.0019C59.1302 13.2177 59.1188 12.5517 59.2497 11.7104C59.7337 8.57435 62.5992 7.92285 64.9056 7.92285C66.9686 7.92285 68.4703 8.39579 69.3708 9.34168C70.0424 10.0479 70.3824 11.0171 70.3824 12.2228V13.4598H66.2641V12.3683C66.2641 11.4337 65.712 10.8932 64.8245 10.8932C64.0373 10.8932 63.561 11.2608 63.4047 11.9839C63.354 12.2696 63.3608 12.5633 63.4246 12.8461C63.8657 14.7475 69.9857 15.9098 70.6558 19.4022C70.7423 19.8477 70.861 20.8041 70.6749 22.1875ZM85.9274 20.6295C85.9335 20.9513 85.9036 21.5939 85.8868 21.7588C85.6356 24.5836 83.712 26.0193 80.1841 26.0193C76.6425 26.0193 74.7174 24.5836 74.4677 21.7588C74.4394 21.3842 74.4259 21.0085 74.4271 20.6328V8.3604H78.6404V21.0196C78.6358 21.3028 78.6496 21.5119 78.6764 21.6575C78.7284 21.939 78.9949 22.8527 80.1841 22.8527C81.3695 22.8527 81.636 21.9382 81.6919 21.6607C81.7157 21.5111 81.7302 21.2915 81.7302 21.0188V8.3604H85.9274V20.6295ZM104.08 25.3356H98.2171L94.2818 11.7546H94.216L94.4342 25.3356H90.3481V8.36442H96.4566L100.094 21.4105H100.179L99.9638 8.36442H104.08V25.3356Z" fill="#1428A0"/>
<path d="M114.031 25.8414C114.222 25.8414 114.401 25.8205 114.586 25.8108C117.634 25.8108 118.856 24.3925 119.086 23.6834C119.471 23.0922 119.716 22.4005 119.786 21.5833C119.837 21.0042 119.841 20.7717 119.843 20.4573V15.8356H113.999V18.4336H115.652V20.8457C115.653 21.0211 115.649 21.272 115.613 21.4828C115.594 21.605 115.382 22.678 114.017 22.678C112.642 22.678 112.43 21.605 112.409 21.4828C112.383 21.3275 112.37 21.116 112.374 20.8457V13.0607C112.374 12.747 112.394 12.4639 112.438 12.2668C112.515 11.9081 112.821 11.0732 114.002 11.0732C115.199 11.0732 115.49 11.9065 115.559 12.266C115.605 12.5017 115.611 12.8789 115.611 12.9006V13.9101H119.811V13.2336C119.811 13.0784 119.816 12.6063 119.772 12.1639C119.445 8.64094 116.464 7.9082 114.032 7.9082C110.89 7.9082 108.624 9.15008 108.28 12.1615C108.247 12.4414 108.212 12.9835 108.212 13.2923L108.211 20.4556C108.212 20.779 108.221 21.0163 108.268 21.5833C108.537 24.6993 111.128 25.8414 114.031 25.8414Z" fill="#1428A0"/>
<path d="M16.6705 9.26131C15.8037 8.35323 14.377 7.88994 12.4534 7.8457C8.79511 7.8457 7.16873 9.57446 6.81284 10.4388C6.63559 10.8235 6.51132 11.2327 6.44374 11.6542C6.31203 12.5043 6.32504 13.1768 6.48356 13.9666C7.19342 17.4807 12.9588 18.4957 13.7836 20.669C13.9298 21.0535 13.8946 21.5562 13.8142 21.8972C13.6411 22.6388 13.1403 23.0016 12.2827 23.0016C11.3775 23.0016 10.7129 22.4715 10.7129 21.5112L10.7106 19.8028H6.25306L6.25 21.1741C6.25 24.0729 7.96684 26.1754 12.1931 26.1754C15.2209 26.1754 17.5994 25.0783 17.9846 22.235C18.1729 20.846 18.0535 19.8752 17.9654 19.4215C17.2938 15.8962 11.1195 14.7098 10.6746 12.7995C10.6114 12.5133 10.6056 12.2163 10.6577 11.9276C10.8132 11.1973 11.2948 10.8265 12.0767 10.8265C13.0071 10.8265 13.5324 11.3968 13.5324 12.3169V13.4213H17.6905V12.1706C17.6905 10.952 17.3482 9.97394 16.6705 9.26131Z" fill="#1428A0"/>
</svg>
