<svg width="159" height="42" viewBox="0 0 159 42" fill="none" xmlns="http://www.w3.org/2000/svg">
<path d="M37.4924 31.5132L34.7865 12.7585H34.6891L31.914 31.5132H26.2109L30.0467 10.3332H39.3519L43.1643 31.5132H37.4924ZM64.9236 31.5132L64.798 13.1212H64.7064L61.3508 31.5132H55.9984L52.6593 13.1212H52.5639L52.4421 31.5132H47.1384L47.5982 10.3332H56.1289L58.6127 26.0665H58.7345L61.2251 10.3332H69.752L70.2098 31.5132H64.9236ZM89.8992 27.4088C89.3284 31.5113 85.3884 32.2286 82.6036 32.2286C77.9798 32.2286 75.12 30.2127 75.12 26.1102L75.1229 24.437H80.7247L80.7286 26.5215C80.7286 27.6532 81.5107 28.3457 82.7186 28.3457C83.7959 28.3457 84.427 27.9046 84.6462 26.9984C84.7475 26.5762 84.7894 25.9602 84.6102 25.4952C83.5777 22.8612 76.3015 21.5705 75.4171 17.2972C75.2145 16.3284 75.1998 15.5057 75.3664 14.4665C75.982 10.5925 79.6269 9.78772 82.5607 9.78772C85.1848 9.78772 87.095 10.3719 88.2404 11.5404C89.0947 12.4127 89.5272 13.61 89.5272 15.0994V16.6275H84.2887V15.2792C84.2887 14.1247 83.5864 13.457 82.4575 13.457C81.4562 13.457 80.8503 13.9111 80.6516 14.8043C80.5871 15.1572 80.5957 15.52 80.6769 15.8694C81.238 18.2182 89.0226 19.6539 89.8749 23.968C89.985 24.5185 90.1359 25.6998 89.8992 27.4088ZM109.3 25.4842C109.308 25.8817 109.27 26.6755 109.249 26.8792C108.929 30.3686 106.482 32.1422 101.995 32.1422C97.49 32.1422 95.0413 30.3686 94.7237 26.8792C94.6877 26.4165 94.6705 25.9524 94.6721 25.4882V10.3282H100.031V25.9661C100.025 26.3159 100.043 26.5742 100.077 26.754C100.143 27.1018 100.482 28.2305 101.995 28.2305C103.503 28.2305 103.842 27.1008 103.913 26.758C103.943 26.5732 103.962 26.3019 103.962 25.9651V10.3282H109.3V25.4842ZM132.39 31.2976H124.933L119.927 14.5211H119.844L120.121 31.2976H114.924V10.3332H122.694L127.32 26.449H127.428L127.155 10.3332H132.39V31.2976Z" fill="#1428A0"/>
<path d="M145.047 31.9225C145.291 31.9225 145.519 31.8967 145.753 31.8848C149.631 31.8848 151.186 30.1328 151.478 29.2568C151.967 28.5265 152.279 27.672 152.368 26.6626C152.433 25.9472 152.438 25.66 152.44 25.2715V19.5625H145.007V22.7717H147.109V25.7514C147.111 25.968 147.105 26.278 147.06 26.5384C147.035 26.6894 146.767 28.0148 145.03 28.0148C143.28 28.0148 143.011 26.6894 142.984 26.5384C142.951 26.3466 142.935 26.0853 142.939 25.7514V16.1346C142.939 15.7471 142.966 15.3974 143.021 15.154C143.119 14.7108 143.508 13.6795 145.011 13.6795C146.533 13.6795 146.904 14.7088 146.992 15.153C147.05 15.4441 147.058 15.9101 147.058 15.9369V17.1838H152.399V16.3482C152.4 16.1565 152.406 15.5732 152.351 15.0268C151.934 10.6749 148.142 9.76978 145.049 9.76978C141.053 9.76978 138.17 11.3039 137.732 15.0238C137.69 15.3696 137.646 16.0392 137.646 16.4208L137.645 25.2696C137.646 25.669 137.657 25.9621 137.718 26.6626C138.059 30.5117 141.356 31.9225 145.047 31.9225Z" fill="#1428A0"/>
<path d="M21.2041 11.441C20.1015 10.3192 18.2868 9.74691 15.84 9.69226C11.1866 9.69226 9.11785 11.8278 8.66515 12.8956C8.43969 13.3708 8.28161 13.8762 8.19565 14.3968C8.02812 15.4471 8.04468 16.2777 8.2463 17.2534C9.14925 21.5943 16.4829 22.8482 17.5319 25.5328C17.718 26.0078 17.6732 26.6288 17.5709 27.05C17.3508 27.9661 16.7137 28.4142 15.6228 28.4142C14.4715 28.4142 13.626 27.7594 13.626 26.5731L13.6231 24.4628H7.95312L7.94922 26.1568C7.94922 29.7377 10.133 32.3349 15.5088 32.3349C19.3602 32.3349 22.3856 30.9796 22.8756 27.4673C23.1152 25.7514 22.9632 24.5522 22.8512 23.9918C21.997 19.637 14.1432 18.1714 13.5773 15.8117C13.4969 15.4581 13.4896 15.0913 13.5559 14.7347C13.7536 13.8325 14.3663 13.3745 15.3608 13.3745C16.5442 13.3745 17.2124 14.0789 17.2124 15.2155V16.5797H22.5015V15.0347C22.5015 13.5295 22.0661 12.3213 21.2041 11.441Z" fill="#1428A0"/>
</svg>
