<svg width="148" height="30" viewBox="0 0 148 30" fill="none" xmlns="http://www.w3.org/2000/svg">
<path fill-rule="evenodd" clip-rule="evenodd" d="M143.618 23.448C143.327 23.4427 143.038 23.4943 142.767 23.5998C142.497 23.7054 142.25 23.8628 142.043 24.0628C141.835 24.2628 141.67 24.5014 141.557 24.7647C141.445 25.0279 141.387 25.3106 141.387 25.5961C141.387 25.8817 141.445 26.1643 141.557 26.4276C141.67 26.6909 141.835 26.9295 142.043 27.1295C142.25 27.3295 142.497 27.4869 142.767 27.5924C143.038 27.698 143.327 27.7496 143.618 27.7443C143.905 27.744 144.19 27.688 144.455 27.5796C144.721 27.4711 144.962 27.3124 145.165 27.1123C145.368 26.9123 145.528 26.675 145.638 26.414C145.747 26.153 145.803 25.8734 145.801 25.5912C145.802 25.3098 145.745 25.0311 145.635 24.7711C145.526 24.5111 145.365 24.2748 145.162 24.0758C144.959 23.8768 144.719 23.7189 144.454 23.6112C144.189 23.5035 143.905 23.448 143.618 23.448ZM143.618 27.4859C143.364 27.4862 143.113 27.4373 142.879 27.3421C142.645 27.247 142.432 27.1073 142.253 26.9313C142.074 26.7552 141.933 26.5462 141.836 26.3162C141.74 26.0863 141.691 25.8399 141.692 25.5912C141.692 25.3434 141.742 25.098 141.839 24.8691C141.936 24.6402 142.078 24.4323 142.256 24.2573C142.435 24.0823 142.648 23.9437 142.881 23.8493C143.115 23.7548 143.365 23.7066 143.618 23.7072C143.87 23.7072 144.12 23.7559 144.352 23.8506C144.585 23.9453 144.797 24.0841 144.975 24.259C145.154 24.434 145.295 24.6417 145.391 24.8703C145.488 25.0989 145.537 25.3439 145.537 25.5912C145.539 25.8394 145.49 26.0854 145.394 26.3151C145.298 26.5447 145.157 26.7536 144.978 26.9296C144.8 27.1056 144.588 27.2454 144.355 27.3408C144.121 27.4363 143.871 27.4856 143.618 27.4859Z" fill="black"/>
<path fill-rule="evenodd" clip-rule="evenodd" d="M144.74 25.0285C144.74 24.8258 144.648 24.6126 144.465 24.5109C144.281 24.404 144.075 24.3934 143.869 24.3934H142.802V26.7943H143.101V25.6869H143.652L144.35 26.7943H144.706L143.966 25.6869C144.403 25.6748 144.74 25.5008 144.74 25.0285ZM143.559 25.4556H143.1V24.6066H143.799C144.103 24.6066 144.436 24.6518 144.436 25.0232C144.437 25.5121 143.903 25.4556 143.559 25.4556ZM130.781 13.4212L135.258 8.73166C135.518 8.38739 135.647 8.14633 135.647 7.93992C135.647 7.59564 135.345 7.45778 134.396 7.45778H133.266V4.49719H145.492V7.45778H143.886C142.031 7.45778 141.686 7.73275 139.097 10.9344L132.015 18.4376V23.0163C132.015 24.1878 132.618 24.5998 134.344 24.5998H137.018V27.4565H119.894V24.5998H122.568C124.292 24.5998 124.897 24.1878 124.897 23.0163V18.4376L116.555 9.3848C115.177 7.80206 115.367 7.45778 111.53 7.45778V4.49719H127.016V7.45778H125.913C124.791 7.45778 124.316 7.6642 124.316 8.07702C124.316 8.42205 124.661 8.69701 124.877 8.97198L129.097 13.4844C129.598 13.9959 130.21 14.0622 130.781 13.4212ZM26.8772 4.49644H30.6129V12.7575H27.1629C26.8573 11.1062 25.8038 10.4636 24.8432 9.59724C23.1101 8.03483 19.3568 6.73383 16.2002 6.73383C12.1259 6.73383 8.68745 7.97381 8.68745 9.79687C8.68745 14.8577 31.9881 10.8304 31.9881 20.3993C31.9881 25.3901 26.997 28.1781 18.0338 28.1781C14.9309 28.1781 10.2355 27.2335 7.46502 25.7901C6.59657 25.2982 6.228 26.2556 6.06521 27.4557H2.23514V18.919H5.69971C6.46373 21.0878 7.51647 21.5345 8.48473 22.3956C10.1648 23.9105 14.1638 25.0126 17.8311 24.9772C23.3604 24.9238 25.2617 23.738 25.2617 22.0167C25.2617 20.296 23.3812 19.8825 17.322 18.9536L12.1774 18.1272C6.37159 17.2661 2.14453 15.993 2.14453 11.4497C2.14453 6.73383 7.49189 3.77324 15.9468 3.77324C19.5096 3.77324 22.4905 4.24031 25.3515 5.82682C26.1439 6.33231 26.8872 6.39257 26.8772 4.49644ZM99.7807 18.3276L99.8545 9.146C99.8545 7.94142 99.2156 7.52859 97.3904 7.52859H95.2458V4.67196H108.891V7.52859H107.112C105.286 7.52859 104.647 7.94217 104.647 9.146V27.6305L99.3062 27.589L82.011 11.5212V23.1903C82.011 24.361 82.6498 24.8077 84.475 24.8077H86.8493V27.6305H72.6784V24.8077H75.0265C76.8517 24.8077 77.4906 24.3603 77.4906 23.1903V9.146C77.4906 7.94142 76.8517 7.52859 75.0265 7.52859H72.6784V4.67196H84.9304L99.7807 18.3276ZM54.0755 3.59998C43.2011 3.59998 36.3941 8.31658 36.3941 15.8883C36.3941 23.3244 43.1067 28.0049 53.7438 28.0049C65.0421 28.0049 71.6142 23.393 71.6142 15.5101C71.6149 8.41978 64.523 3.59998 54.0755 3.59998ZM53.8283 25.0111C47.809 25.0111 44.3491 21.6031 44.3491 15.7165C44.3491 9.96863 47.9595 6.56057 54.1293 6.56057C60.0479 6.56057 63.5079 10.0379 63.5079 15.9584C63.5079 21.7409 59.9973 25.0111 53.8283 25.0111Z" fill="black"/>
</svg>
