<svg width="111" height="22" viewBox="0 0 111 22" fill="none" xmlns="http://www.w3.org/2000/svg">
<path fill-rule="evenodd" clip-rule="evenodd" d="M107.712 17.1946C107.494 17.1907 107.277 17.2285 107.074 17.3059C106.872 17.3834 106.687 17.4988 106.531 17.6454C106.375 17.7921 106.252 17.9671 106.167 18.1602C106.083 18.3532 106.039 18.5605 106.039 18.7699C106.039 18.9793 106.083 19.1866 106.167 19.3797C106.252 19.5727 106.375 19.7477 106.531 19.8944C106.687 20.041 106.872 20.1565 107.074 20.2339C107.277 20.3113 107.494 20.3491 107.712 20.3452C107.928 20.345 108.142 20.3039 108.341 20.2244C108.54 20.1449 108.721 20.0285 108.873 19.8818C109.025 19.7351 109.145 19.5611 109.227 19.3697C109.309 19.1783 109.351 18.9732 109.35 18.7663C109.35 18.5599 109.308 18.3556 109.226 18.1649C109.143 17.9742 109.023 17.8009 108.871 17.655C108.719 17.509 108.538 17.3933 108.339 17.3143C108.14 17.2353 107.927 17.1946 107.712 17.1946ZM107.712 20.1557C107.522 20.1559 107.334 20.1201 107.158 20.0503C106.983 19.9805 106.823 19.8781 106.689 19.749C106.555 19.6199 106.449 19.4666 106.376 19.298C106.304 19.1293 106.267 18.9486 106.268 18.7663C106.268 18.5846 106.305 18.4046 106.378 18.2368C106.451 18.0689 106.557 17.9165 106.691 17.7881C106.826 17.6598 106.985 17.5581 107.16 17.4889C107.335 17.4196 107.523 17.3842 107.712 17.3847C107.901 17.3847 108.089 17.4204 108.263 17.4898C108.438 17.5593 108.597 17.6611 108.731 17.7894C108.864 17.9177 108.97 18.07 109.043 18.2376C109.115 18.4052 109.152 18.5849 109.152 18.7663C109.153 18.9483 109.116 19.1287 109.044 19.2971C108.973 19.4655 108.867 19.6187 108.733 19.7478C108.599 19.8769 108.44 19.9793 108.265 20.0493C108.09 20.1193 107.902 20.1555 107.712 20.1557Z" fill="black"/>
<path fill-rule="evenodd" clip-rule="evenodd" d="M108.556 18.3539C108.556 18.2053 108.487 18.0489 108.35 17.9743C108.212 17.8959 108.058 17.8882 107.903 17.8882H107.103V19.6488H107.327V18.8367H107.74L108.264 19.6488H108.53L107.976 18.8367C108.303 18.8279 108.556 18.7003 108.556 18.3539ZM107.671 18.6671H107.326V18.0445H107.85C108.078 18.0445 108.328 18.0777 108.328 18.35C108.329 18.7085 107.928 18.6671 107.671 18.6671ZM98.0871 9.84184L101.445 6.40289C101.639 6.15042 101.736 5.97364 101.736 5.82227C101.736 5.5698 101.51 5.46871 100.798 5.46871H99.9507V3.29761H109.12V5.46871H107.915C106.524 5.46871 106.265 5.67035 104.324 8.01823L99.0125 13.5206V16.8783C99.0125 17.7374 99.4646 18.0395 100.759 18.0395H102.764V20.1344H89.9215V18.0395H91.9268C93.2202 18.0395 93.6734 17.7374 93.6734 16.8783V13.5206L87.4175 6.88186C86.3838 5.72117 86.5266 5.46871 83.6483 5.46871V3.29761H95.2629V5.46871H94.4359C93.5945 5.46871 93.2381 5.62008 93.2381 5.92282C93.2381 6.17583 93.4966 6.37747 93.6585 6.57911L96.8236 9.88825C97.1996 10.2634 97.6586 10.312 98.0871 9.84184ZM20.1589 3.29706H22.9606V9.35514H20.3731C20.1439 8.14419 19.3538 7.67295 18.6334 7.03764C17.3336 5.89188 14.5186 4.93781 12.1511 4.93781C9.09541 4.93781 6.51656 5.84713 6.51656 7.18404C6.51656 10.8953 23.9921 7.94199 23.9921 14.9591C23.9921 18.619 20.2487 20.6636 13.5263 20.6636C11.1992 20.6636 7.67756 19.9709 5.59974 18.9124C4.94841 18.5517 4.67198 19.2538 4.54989 20.1338H1.67733V13.8736H4.27576C4.84878 15.4641 5.63833 15.7916 6.36453 16.4231C7.62458 17.5341 10.6238 18.3423 13.3743 18.3163C17.5213 18.2771 18.9472 17.4075 18.9472 16.1452C18.9472 14.8834 17.5369 14.5801 12.9925 13.899L9.134 13.2929C4.77967 12.6615 1.60938 11.7279 1.60938 8.3961C1.60938 4.93781 5.6199 2.76671 11.9611 2.76671C14.6332 2.76671 16.8688 3.10923 19.0146 4.27267C19.6089 4.64336 20.1664 4.68755 20.1589 3.29706ZM74.8365 13.4399L74.8918 6.70673C74.8918 5.82337 74.4127 5.52063 73.0438 5.52063H71.4353V3.42577H81.6689V5.52063H80.3352C78.9651 5.52063 78.486 5.82393 78.486 6.70673V20.262L74.4806 20.2316L61.5092 8.44858V17.0059C61.5092 17.8644 61.9883 18.192 63.3572 18.192H65.1379V20.262H54.5098V18.192H56.2709C57.6398 18.192 58.1189 17.8639 58.1189 17.0059V6.70673C58.1189 5.82337 57.6398 5.52063 56.2709 5.52063H54.5098V3.42577H63.6988L74.8365 13.4399ZM40.5576 2.63965C32.4018 2.63965 27.2965 6.09849 27.2965 11.6511C27.2965 17.1043 32.331 20.5366 40.3088 20.5366C48.7825 20.5366 53.7116 17.1545 53.7116 11.3738C53.7122 6.17418 48.3932 2.63965 40.5576 2.63965ZM40.3722 18.3412C35.8578 18.3412 33.2628 15.8419 33.2628 11.5251C33.2628 7.31 35.9706 4.81075 40.5979 4.81075C45.0369 4.81075 47.6319 7.36082 47.6319 11.7025C47.6319 15.943 44.9989 18.3412 40.3722 18.3412Z" fill="black"/>
</svg>
