<svg width="148" height="45" viewBox="0 0 148 45" fill="none" xmlns="http://www.w3.org/2000/svg">
<path d="M22.713 0.261597C10.5815 0.261597 0.730469 10.2272 0.730469 22.5C0.730469 34.7727 10.5815 44.7383 22.713 44.7383C34.8445 44.7383 44.6955 34.7965 44.6955 22.5C44.6955 10.2272 34.8445 0.261597 22.713 0.261597ZM32.7756 32.3229C32.3759 32.9651 31.5295 33.1791 30.8947 32.7748C25.7459 29.5877 19.2334 28.8742 11.5924 30.6342C10.8636 30.8007 10.1112 30.325 9.94667 29.5877C9.7821 28.8504 10.2288 28.0893 10.9811 27.9228C19.351 25.9963 26.5452 26.8287 32.3289 30.3964C32.9872 30.8245 33.1753 31.6807 32.7756 32.3229ZM35.4793 26.2817C34.9856 27.0904 33.9276 27.352 33.1282 26.8525C27.2035 23.1897 18.1989 22.1194 11.2163 24.26C10.2993 24.5454 9.3589 24.0222 9.07678 23.0946C8.79465 22.167 9.31188 21.2156 10.2288 20.9302C18.1989 18.4804 28.144 19.6696 34.9151 23.8795C35.7144 24.4027 35.973 25.473 35.4793 26.2817ZM35.7144 19.9788C28.6142 15.7214 16.9294 15.3171 10.1818 17.4101C9.10029 17.7431 7.94826 17.1247 7.61911 16.0306C7.28996 14.9365 7.90124 13.7711 8.98273 13.4381C16.7413 11.0597 29.6487 11.5116 37.8069 16.4112C38.7943 17.0058 39.1 18.2664 38.5357 19.2653C37.9479 20.2405 36.6784 20.5734 35.7144 19.9788ZM60.5182 20.7875C56.733 19.8837 56.0512 19.2177 56.0512 17.8858C56.0512 16.6014 57.2267 15.7452 59.0135 15.7452C60.7298 15.7452 62.4226 16.3874 64.2094 17.7431C64.2564 17.7907 64.327 17.7907 64.3975 17.7907C64.468 17.7907 64.5151 17.7431 64.5621 17.6955L66.4194 15.0555C66.49 14.9365 66.4664 14.7938 66.3724 14.7225C64.2564 13.01 61.8819 12.1776 59.0841 12.1776C54.9932 12.1776 52.1249 14.6749 52.1249 18.2188C52.1249 22.0243 54.5935 23.38 58.8725 24.4265C62.4931 25.2827 63.1044 25.9725 63.1044 27.2568C63.1044 28.6601 61.8583 29.5401 59.8599 29.5401C57.6499 29.5401 55.8396 28.779 53.8177 27.019C53.7707 26.9714 53.7001 26.9476 53.6296 26.9476C53.5591 26.9476 53.512 26.9952 53.465 27.0428L51.3961 29.5401C51.302 29.6353 51.3255 29.8018 51.4196 29.8969C53.7707 32.0137 56.6625 33.1316 59.7894 33.1316C64.2094 33.1316 67.0542 30.6818 67.0542 26.9239C67.0307 23.6892 65.1498 21.9291 60.5182 20.7875C60.5417 20.7875 60.5182 20.7875 60.5182 20.7875ZM77.0228 17.0058C75.1184 17.0058 73.5432 17.7669 72.2501 19.3367V17.5766C72.2501 17.4339 72.1325 17.315 72.015 17.315H68.6059C68.4649 17.315 68.3708 17.4339 68.3708 17.5766V37.1036C68.3708 37.2463 68.4884 37.3652 68.6059 37.3652H72.015C72.156 37.3652 72.2501 37.2463 72.2501 37.1036V30.9434C73.5432 32.418 75.1184 33.1316 77.0228 33.1316C80.5729 33.1316 84.17 30.3726 84.17 25.0687C84.1935 19.7648 80.5729 17.0058 77.0228 17.0058ZM80.2202 25.0687C80.2202 27.7563 78.5745 29.6353 76.2234 29.6353C73.8958 29.6353 72.156 27.6612 72.156 25.0687C72.156 22.4524 73.9193 20.5021 76.2234 20.5021C78.551 20.5021 80.2202 22.4286 80.2202 25.0687ZM93.4097 17.0058C88.8251 17.0058 85.2515 20.5734 85.2515 25.1162C85.2515 29.6115 88.8251 33.1554 93.3627 33.1554C97.9473 33.1554 101.544 29.6115 101.544 25.0687C101.544 20.5497 97.9708 17.0058 93.4097 17.0058ZM93.4097 29.6828C90.9646 29.6828 89.1308 27.7087 89.1308 25.0687C89.1308 22.4286 90.8941 20.5259 93.3392 20.5259C95.7843 20.5259 97.6417 22.5 97.6417 25.14C97.6417 27.7563 95.8549 29.6828 93.4097 29.6828ZM111.325 17.315H107.587V13.4619C107.587 13.3192 107.469 13.2003 107.352 13.2003H103.943C103.801 13.2003 103.684 13.3192 103.684 13.4619V17.3388H102.062C101.921 17.3388 101.827 17.4577 101.827 17.6004V20.5497C101.827 20.6924 101.944 20.8113 102.062 20.8113H103.684V28.4461C103.684 31.538 105.212 33.1078 108.198 33.1078C109.421 33.1078 110.432 32.8462 111.372 32.2991C111.442 32.2516 111.489 32.1802 111.489 32.0851V29.2547C111.489 29.1596 111.442 29.0882 111.372 29.0407C111.301 28.9931 111.207 28.9931 111.137 29.0407C110.479 29.3736 109.844 29.5164 109.138 29.5164C108.057 29.5164 107.563 29.0169 107.563 27.899V20.7875H111.301C111.442 20.7875 111.536 20.6686 111.536 20.5259V17.5766C111.56 17.4339 111.466 17.315 111.325 17.315ZM124.35 17.3388V16.8631C124.35 15.4598 124.891 14.8414 126.066 14.8414C126.771 14.8414 127.336 14.9841 127.971 15.1982C128.041 15.222 128.135 15.222 128.182 15.1744C128.253 15.1268 128.276 15.0555 128.276 14.9603V12.0586C128.276 11.9397 128.206 11.8446 128.112 11.8208C127.43 11.6067 126.583 11.4165 125.29 11.4165C122.163 11.4165 120.494 13.2003 120.494 16.5777V17.315H118.872C118.731 17.315 118.613 17.4339 118.613 17.5766V20.5497C118.613 20.6924 118.731 20.8113 118.872 20.8113H120.494V32.6083C120.494 32.751 120.612 32.8699 120.753 32.8699H124.138C124.279 32.8699 124.397 32.751 124.397 32.6083V20.7875H127.571L132.438 32.5845C131.897 33.8213 131.333 34.0592 130.604 34.0592C130.016 34.0592 129.381 33.8689 128.723 33.5121C128.652 33.4883 128.582 33.4646 128.535 33.4883C128.464 33.5121 128.417 33.5597 128.394 33.631L127.242 36.176C127.195 36.2949 127.242 36.4376 127.359 36.509C128.558 37.1749 129.64 37.4603 130.98 37.4603C133.496 37.4603 134.883 36.2711 136.105 33.084L142.006 17.6717C142.03 17.6004 142.03 17.5053 141.983 17.4339C141.936 17.3625 141.865 17.315 141.771 17.315H138.245C138.127 17.315 138.033 17.3863 138.01 17.4815L134.389 27.9466L130.416 17.4815C130.369 17.3863 130.298 17.315 130.181 17.315L124.35 17.3388ZM116.803 17.315H113.394C113.253 17.315 113.135 17.4339 113.135 17.5766V32.5607C113.135 32.7035 113.253 32.8224 113.394 32.8224H116.803C116.944 32.8224 117.062 32.7035 117.062 32.5607V17.5766C117.038 17.4339 116.944 17.315 116.803 17.315ZM115.11 10.4889C113.77 10.4889 112.665 11.583 112.665 12.9624C112.665 14.3182 113.747 15.436 115.11 15.436C116.474 15.436 117.555 14.3182 117.555 12.9624C117.555 11.583 116.45 10.4889 115.11 10.4889ZM144.875 22.1432C143.535 22.1432 142.477 21.0491 142.477 19.7172C142.477 18.3853 143.535 17.2912 144.875 17.2912C146.215 17.2912 147.273 18.3853 147.273 19.7172C147.273 21.0253 146.215 22.1432 144.875 22.1432ZM144.898 17.529C143.676 17.529 142.735 18.5042 142.735 19.7172C142.735 20.9302 143.652 21.9054 144.875 21.9054C146.097 21.9054 147.038 20.9302 147.038 19.7172C147.038 18.5042 146.121 17.529 144.898 17.529ZM145.415 19.955L146.097 20.9064H145.533L144.922 20.0264H144.405V20.9064H143.934V18.3853H145.063C145.651 18.3853 146.027 18.6945 146.027 19.1939C146.003 19.5983 145.768 19.8599 145.415 19.955ZM145.016 18.8134H144.405V19.6221H145.016C145.321 19.6221 145.51 19.4794 145.51 19.2177C145.51 18.9561 145.321 18.8134 145.016 18.8134Z" fill="#1ED760"/>
</svg>
