<svg width="122" height="37" viewBox="0 0 122 37" fill="none" xmlns="http://www.w3.org/2000/svg">
<path d="M18.7223 0.214844C8.72198 0.214844 0.601562 8.40882 0.601562 18.4997C0.601562 28.5906 8.72198 36.7846 18.7223 36.7846C28.7226 36.7846 36.843 28.6102 36.843 18.4997C36.843 8.40882 28.7226 0.214844 18.7223 0.214844ZM27.0171 26.5764C26.6877 27.1044 25.99 27.2804 25.4667 26.9479C21.2224 24.3274 15.854 23.7407 9.55534 25.1879C8.95454 25.3248 8.33437 24.9337 8.1987 24.3274C8.06304 23.7212 8.43127 23.0954 9.05144 22.9585C15.9509 21.3745 21.8813 22.0589 26.6489 24.9923C27.1916 25.3443 27.3466 26.0483 27.0171 26.5764ZM29.2459 21.6091C28.8389 22.274 27.9668 22.4892 27.3078 22.0785C22.424 19.0669 15.0012 18.1868 9.24525 19.9469C8.48941 20.1815 7.71419 19.7513 7.48163 18.9886C7.24906 18.2259 7.67543 17.4437 8.43127 17.209C15.0012 15.1948 23.1992 16.1726 28.7807 19.634C29.4397 20.0642 29.6529 20.9442 29.2459 21.6091ZM29.4397 16.4268C23.5868 12.9263 13.9547 12.5938 8.39251 14.3147C7.50101 14.5885 6.55136 14.0801 6.28004 13.1805C6.00871 12.2809 6.5126 11.3227 7.4041 11.0489C13.7997 9.09328 24.4395 9.46484 31.1645 13.4934C31.9785 13.9823 32.2305 15.0188 31.7653 15.8401C31.2808 16.6419 30.2343 16.9157 29.4397 16.4268ZM49.8861 17.0917C46.7658 16.3486 46.2038 15.801 46.2038 14.7059C46.2038 13.6498 47.1728 12.9458 48.6457 12.9458C50.0605 12.9458 51.4559 13.4738 52.9288 14.5885C52.9676 14.6276 53.0257 14.6276 53.0838 14.6276C53.142 14.6276 53.1807 14.5885 53.2195 14.5494L54.7506 12.3787C54.8087 12.2809 54.7893 12.1636 54.7118 12.1049C52.9676 10.6969 51.0101 10.0124 48.7039 10.0124C45.3317 10.0124 42.9672 12.0658 42.9672 14.9796C42.9672 18.1086 45.0022 19.2233 48.5294 20.0838C51.514 20.7878 52.0179 21.3549 52.0179 22.4109C52.0179 23.5647 50.9908 24.2883 49.3434 24.2883C47.5217 24.2883 46.0294 23.6625 44.3626 22.2154C44.3239 22.1763 44.2657 22.1567 44.2076 22.1567C44.1495 22.1567 44.1107 22.1958 44.0719 22.2349L42.3665 24.2883C42.2889 24.3665 42.3083 24.5034 42.3858 24.5816C44.3239 26.3221 46.7077 27.2413 49.2853 27.2413C52.9288 27.2413 55.2738 25.227 55.2738 22.1371C55.2545 19.4775 53.704 18.0304 49.8861 17.0917C49.9054 17.0917 49.8861 17.0917 49.8861 17.0917ZM63.4912 13.9823C61.9213 13.9823 60.6228 14.6081 59.5569 15.8988V14.4516C59.5569 14.3343 59.46 14.2365 59.3631 14.2365H56.5529C56.4367 14.2365 56.3591 14.3343 56.3591 14.4516V30.5071C56.3591 30.6245 56.456 30.7222 56.5529 30.7222H59.3631C59.4794 30.7222 59.5569 30.6245 59.5569 30.5071V25.4421C60.6228 26.6546 61.9213 27.2413 63.4912 27.2413C66.4176 27.2413 69.3828 24.9728 69.3828 20.6118C69.4022 16.2508 66.4176 13.9823 63.4912 13.9823ZM66.1269 20.6118C66.1269 22.8216 64.7703 24.3665 62.8322 24.3665C60.9136 24.3665 59.4794 22.7434 59.4794 20.6118C59.4794 18.4606 60.9329 16.857 62.8322 16.857C64.7509 16.857 66.1269 18.4411 66.1269 20.6118ZM76.9993 13.9823C73.2201 13.9823 70.2743 16.9157 70.2743 20.6509C70.2743 24.347 73.2201 27.2608 76.9606 27.2608C80.7398 27.2608 83.705 24.347 83.705 20.6118C83.705 16.8961 80.7591 13.9823 76.9993 13.9823ZM76.9993 24.4056C74.9838 24.4056 73.4721 22.7825 73.4721 20.6118C73.4721 18.4411 74.9256 16.8766 76.9412 16.8766C78.9568 16.8766 80.4878 18.4997 80.4878 20.6704C80.4878 22.8216 79.0149 24.4056 76.9993 24.4056ZM91.7672 14.2365H88.6858V11.0684C88.6858 10.9511 88.5888 10.8533 88.4919 10.8533H85.6818C85.5655 10.8533 85.4686 10.9511 85.4686 11.0684V14.2561H84.1313C84.0151 14.2561 83.9375 14.3538 83.9375 14.4712V16.8961C83.9375 17.0135 84.0344 17.1112 84.1313 17.1112H85.4686V23.3887C85.4686 25.931 86.7283 27.2217 89.1896 27.2217C90.1974 27.2217 91.0308 27.0066 91.806 26.5568C91.8641 26.5177 91.9029 26.459 91.9029 26.3808V24.0536C91.9029 23.9754 91.8641 23.9167 91.806 23.8776C91.7479 23.8385 91.6703 23.8385 91.6122 23.8776C91.0695 24.1514 90.5463 24.2688 89.9649 24.2688C89.0734 24.2688 88.6664 23.8581 88.6664 22.9389V17.0917H91.7479C91.8641 17.0917 91.9417 16.9939 91.9417 16.8766V14.4516C91.961 14.3343 91.8835 14.2365 91.7672 14.2365ZM102.504 14.2561V13.8649C102.504 12.7111 102.95 12.2027 103.919 12.2027C104.5 12.2027 104.965 12.32 105.489 12.496C105.547 12.5156 105.624 12.5156 105.663 12.4765C105.721 12.4374 105.741 12.3787 105.741 12.3005V9.91463C105.741 9.81685 105.682 9.73863 105.605 9.71907C105.043 9.54307 104.345 9.38662 103.279 9.38662C100.702 9.38662 99.3256 10.8533 99.3256 13.6303V14.2365H97.9884C97.8721 14.2365 97.7752 14.3343 97.7752 14.4516V16.8961C97.7752 17.0135 97.8721 17.1112 97.9884 17.1112H99.3256V26.811C99.3256 26.9284 99.4225 27.0262 99.5388 27.0262H102.33C102.446 27.0262 102.543 26.9284 102.543 26.811V17.0917H105.159L109.171 26.7915C108.725 27.8084 108.26 28.004 107.659 28.004C107.175 28.004 106.651 27.8475 106.109 27.5542C106.051 27.5346 105.993 27.5151 105.954 27.5346C105.896 27.5542 105.857 27.5933 105.837 27.6519L104.888 29.7444C104.849 29.8422 104.888 29.9596 104.985 30.0182C105.973 30.5658 106.865 30.8005 107.969 30.8005C110.043 30.8005 111.186 29.8227 112.194 27.2022L117.059 14.5299C117.078 14.4712 117.078 14.393 117.039 14.3343C117.001 14.2756 116.942 14.2365 116.865 14.2365H113.958C113.861 14.2365 113.783 14.2952 113.764 14.3734L110.779 22.9781L107.504 14.3734C107.465 14.2952 107.407 14.2365 107.31 14.2365L102.504 14.2561ZM96.2829 14.2365H93.4727C93.3564 14.2365 93.2595 14.3343 93.2595 14.4516V26.7719C93.2595 26.8893 93.3564 26.987 93.4727 26.987H96.2829C96.3992 26.987 96.4961 26.8893 96.4961 26.7719V14.4516C96.4767 14.3343 96.3992 14.2365 96.2829 14.2365ZM94.8875 8.62393C93.7828 8.62393 92.8719 9.52351 92.8719 10.6578C92.8719 11.7725 93.7634 12.6916 94.8875 12.6916C96.0116 12.6916 96.9031 11.7725 96.9031 10.6578C96.9031 9.52351 95.9922 8.62393 94.8875 8.62393ZM119.423 18.2064C118.318 18.2064 117.446 17.3068 117.446 16.2117C117.446 15.1165 118.318 14.217 119.423 14.217C120.528 14.217 121.4 15.1165 121.4 16.2117C121.4 17.2873 120.528 18.2064 119.423 18.2064ZM119.443 14.4125C118.435 14.4125 117.66 15.2143 117.66 16.2117C117.66 17.209 118.415 18.0108 119.423 18.0108C120.431 18.0108 121.206 17.209 121.206 16.2117C121.206 15.2143 120.45 14.4125 119.443 14.4125ZM119.869 16.4072L120.431 17.1895H119.966L119.462 16.4659H119.036V17.1895H118.648V15.1165H119.578C120.063 15.1165 120.373 15.3708 120.373 15.7814C120.353 16.1139 120.16 16.329 119.869 16.4072ZM119.539 15.4685H119.036V16.1334H119.539C119.791 16.1334 119.946 16.0161 119.946 15.801C119.946 15.5859 119.791 15.4685 119.539 15.4685Z" fill="#1ED760"/>
</svg>
