<svg width="1309" height="1430" viewBox="0 0 1309 1430" fill="none" xmlns="http://www.w3.org/2000/svg">
<path fill-rule="evenodd" clip-rule="evenodd" d="M991.756 514.635C998.727 477.727 1004.89 442.342 1010.38 410.53C1046.49 201.359 1033.91 22.038 899.942 1.44758C765.973 -19.1428 683.111 184.01 663.719 350.695C661.683 368.2 659.897 387.567 658.482 408.289C607.185 231.13 527.924 103.752 409.404 134.996C278.34 169.548 283.38 388.892 332.08 549.479C343.095 585.801 358.62 629.583 377.74 675.682C376.694 676.662 375.654 677.646 374.618 678.636C268.557 562.49 159.553 505.335 63.9137 571.895C-68.1195 663.782 26.8197 906.242 146.501 1065.42C208.411 1147.77 275.563 1229.35 348.901 1281.89C428.707 1372.22 545.416 1429.19 675.429 1429.19C860.156 1429.19 1018.02 1314.19 1081.35 1151.88C1143.88 1051.95 1202.07 907.619 1243.44 803.641C1321.92 606.417 1346.6 428.358 1219.76 380.575C1135.68 348.9 1053.29 418.061 991.756 514.635Z" fill="#FFDB22"/>
</svg>
