<svg width="1310" height="1158" viewBox="0 0 1310 1158" fill="none" xmlns="http://www.w3.org/2000/svg">
<path fill-rule="evenodd" clip-rule="evenodd" d="M992.307 514.635C999.277 477.727 1005.44 442.342 1010.94 410.53C1047.04 201.359 1034.46 22.038 900.493 1.44758C766.524 -19.1428 683.661 184.01 664.27 350.695C662.234 368.2 660.448 387.567 659.033 408.289C607.736 231.13 528.475 103.752 409.955 134.996C278.89 169.548 283.931 388.892 332.63 549.479C343.646 585.801 359.171 629.583 378.291 675.682C377.245 676.662 376.204 677.646 375.168 678.636C269.108 562.49 160.104 505.335 64.4645 571.895C-67.5687 663.782 27.3705 906.242 147.052 1065.42C208.962 1147.77 276.113 1229.35 349.452 1281.89C429.258 1372.22 545.967 1429.19 675.98 1429.19C860.706 1429.19 1018.57 1314.19 1081.9 1151.88C1144.43 1051.95 1202.62 907.619 1243.99 803.641C1322.47 606.417 1347.15 428.358 1220.31 380.575C1136.23 348.9 1053.84 418.061 992.307 514.635Z" fill="#FFDB22"/>
</svg>
