<svg width="375" height="635" viewBox="0 0 375 635" fill="none" xmlns="http://www.w3.org/2000/svg">
<path fill-rule="evenodd" clip-rule="evenodd" d="M329.383 228.651C332.48 212.255 335.219 196.534 337.659 182.402C353.7 89.4657 348.112 9.79167 288.588 0.643172C229.065 -8.50532 192.248 81.7573 183.632 155.817C182.728 163.595 181.934 172.2 181.305 181.407C158.514 102.694 123.297 46.0979 70.6375 59.9802C12.4045 75.3317 14.644 172.788 36.2817 244.138C41.1758 260.277 48.074 279.73 56.569 300.212C56.1042 300.647 55.6415 301.085 55.181 301.525C8.05723 249.92 -40.3746 224.525 -82.8682 254.098C-141.532 294.924 -99.3494 402.651 -46.1741 473.377C-18.6659 509.964 11.1712 546.213 43.7577 569.557C79.2162 609.691 131.07 635 188.835 635C270.915 635 341.06 583.9 369.192 511.777C396.974 467.378 422.824 403.259 441.205 357.065C476.072 269.436 487.04 190.323 430.684 169.093C393.327 155.02 356.723 185.745 329.383 228.651Z" fill="#FFDB22"/>
</svg>
