<svg width="122" height="134" viewBox="0 0 122 134" fill="none" xmlns="http://www.w3.org/2000/svg">
<path fill-rule="evenodd" clip-rule="evenodd" d="M92.4629 47.9668C93.1119 44.5301 93.6862 41.2352 94.1975 38.2728C97.5633 18.7723 96.3908 2.05455 83.9012 0.134955C71.4116 -1.78464 63.6865 17.1549 61.8787 32.6945C61.6889 34.3261 61.5224 36.1312 61.3905 38.0625C56.6082 21.5471 49.219 9.67257 38.1699 12.5854C25.951 15.8065 26.4209 36.2555 30.9611 51.2266C31.988 54.6129 33.4354 58.6947 35.2179 62.9924C35.1201 63.084 35.0227 63.1762 34.9257 63.2688C25.0377 52.4401 14.8751 47.1111 5.95853 53.3165C-6.35062 61.8829 2.50035 84.4869 13.6579 99.3271C19.4312 107.006 25.6935 114.614 32.5328 119.512C39.9729 127.931 50.8518 133.24 62.9708 133.24C80.2015 133.24 94.9256 122.508 100.823 107.363C106.647 98.0476 112.066 84.607 115.92 74.9217C123.236 56.5349 125.537 39.9349 113.712 35.4802C105.877 32.5285 98.199 38.9695 92.4629 47.9668Z" fill="#FFDB22"/>
</svg>
