<svg width="886" height="659" viewBox="0 0 886 659" fill="none" xmlns="http://www.w3.org/2000/svg">
<path d="M610.345 46.3044C638.737 95.9812 615.65 140.933 557.041 190.355C740.828 146.297 861.307 147.264 882.338 229.841C904.442 316.633 788.631 364.515 591.151 421.76C681.342 432.921 734.742 464.098 737.532 526.024C741.928 623.611 618.247 640.506 416.563 653.639C214.88 666.772 50.0337 656.705 43.7868 560.77C41.046 518.68 62.776 490.209 101.801 470.366C94.0932 462.695 88.5706 453.381 85.4563 442.263C84.1573 437.626 83.2624 433.081 82.7578 428.624C51.9006 427.564 27.9986 416.153 13.1865 391.391C-43.9462 295.881 92.7898 207.561 265.009 104.542C437.228 1.5223 561.873 -38.5067 610.345 46.3044Z" fill="#FFDB22"/>
</svg>
