<svg width="172" height="24" viewBox="0 0 172 24" fill="none" xmlns="http://www.w3.org/2000/svg">
<path d="M20.211 7.70841C21.806 7.70841 23.1027 8.2285 24.1013 9.26868C25.1138 10.295 25.62 11.6542 25.62 13.3462C25.62 15.0382 25.1138 16.3974 24.1013 17.4237C23.1027 18.45 21.806 18.9632 20.211 18.9632C18.6022 18.9632 17.2916 18.45 16.2791 17.4237C15.2805 16.3974 14.7812 15.0382 14.7812 13.3462C14.7812 11.6542 15.2805 10.295 16.2791 9.26868C17.2916 8.2285 18.6022 7.70841 20.211 7.70841ZM20.211 16.3419C20.9322 16.3419 21.5078 16.0646 21.9377 15.5098C22.3677 14.955 22.5826 14.2338 22.5826 13.3462C22.5826 12.4447 22.3677 11.7166 21.9377 11.1618C21.5216 10.6071 20.9461 10.3297 20.211 10.3297C19.4759 10.3297 18.8934 10.6071 18.4635 11.1618C18.0336 11.7166 17.8186 12.4447 17.8186 13.3462C17.8186 14.2338 18.0336 14.955 18.4635 15.5098C18.8934 16.0646 19.4759 16.3419 20.211 16.3419Z" fill="black"/>
<path d="M32.8767 7.70841C34.2082 7.70841 35.3177 8.21463 36.2053 9.22708C37.0929 10.2257 37.5368 11.5987 37.5368 13.3462C37.5368 15.066 37.086 16.4321 36.1845 17.4445C35.283 18.457 34.1527 18.9632 32.7935 18.9632C32.0723 18.9632 31.4413 18.8315 30.9004 18.5679C30.3734 18.2906 29.985 17.93 29.7354 17.4861V18.7136H26.8229V3.58927H29.8602V9.03984C30.5259 8.15222 31.5314 7.70841 32.8767 7.70841ZM30.4427 15.5514C30.8726 16.0784 31.4413 16.3419 32.1486 16.3419C32.8559 16.3419 33.4176 16.0715 33.8337 15.5306C34.2636 14.9897 34.4786 14.2616 34.4786 13.3462C34.4786 12.4308 34.2636 11.7027 33.8337 11.1618C33.4176 10.6071 32.8559 10.3297 32.1486 10.3297C31.4413 10.3297 30.8726 10.6001 30.4427 11.141C30.0128 11.6819 29.7978 12.4031 29.7978 13.3046V13.3878C29.7978 14.2893 30.0128 15.0105 30.4427 15.5514Z" fill="black"/>
<path d="M41.7866 7.95805V18.7136H38.7492V7.95805H41.7866ZM39.0197 3.63088C39.3525 3.29802 39.7617 3.13159 40.2471 3.13159C40.7325 3.13159 41.1417 3.29802 41.4745 3.63088C41.8212 3.96374 41.9946 4.36594 41.9946 4.83749C41.9946 5.32291 41.8212 5.73205 41.4745 6.06491C41.1417 6.39777 40.7325 6.5642 40.2471 6.5642C39.7617 6.5642 39.3525 6.39777 39.0197 6.06491C38.6868 5.73205 38.5204 5.32291 38.5204 4.83749C38.5204 4.35208 38.6868 3.94987 39.0197 3.63088Z" fill="black"/>
<path d="M43.5853 7.95805H46.4978V9.22708C46.7752 8.79713 47.1843 8.43654 47.7252 8.14528C48.2661 7.85403 48.8972 7.70841 49.6183 7.70841C50.7279 7.70841 51.6502 8.05513 52.3852 8.74859C53.1203 9.42818 53.4878 10.4614 53.4878 11.8483V18.7136H50.4505V12.5141C50.4505 11.8345 50.2841 11.3213 49.9512 10.9746C49.6183 10.614 49.1676 10.4337 48.599 10.4337C48.0581 10.4337 47.5935 10.614 47.2051 10.9746C46.8168 11.3352 46.6226 11.8622 46.6226 12.5557V18.7136H43.5853V7.95805Z" fill="black"/>
<path d="M61.1993 7.70841C62.3089 7.70841 63.2312 8.05513 63.9662 8.74859C64.7013 9.42818 65.0688 10.4614 65.0688 11.8483V18.7136H62.0315V12.5141C62.0315 11.8345 61.8651 11.3213 61.5322 10.9746C61.1993 10.614 60.7486 10.4337 60.18 10.4337C59.6391 10.4337 59.1744 10.614 58.7861 10.9746C58.3978 11.3352 58.2036 11.8622 58.2036 12.5557V18.7136H55.1663V3.58927H58.2036V9.03984C58.8971 8.15222 59.8956 7.70841 61.1993 7.70841Z" fill="black"/>
<path d="M71.5945 7.70841C73.1895 7.70841 74.4862 8.2285 75.4848 9.26868C76.4973 10.295 77.0035 11.6542 77.0035 13.3462C77.0035 15.0382 76.4973 16.3974 75.4848 17.4237C74.4862 18.45 73.1895 18.9632 71.5945 18.9632C69.9857 18.9632 68.6751 18.45 67.6626 17.4237C66.6641 16.3974 66.1648 15.0382 66.1648 13.3462C66.1648 11.6542 66.6641 10.295 67.6626 9.26868C68.6751 8.2285 69.9857 7.70841 71.5945 7.70841ZM71.5945 16.3419C72.3157 16.3419 72.8913 16.0646 73.3212 15.5098C73.7512 14.955 73.9662 14.2338 73.9662 13.3462C73.9662 12.4447 73.7512 11.7166 73.3212 11.1618C72.9052 10.6071 72.3296 10.3297 71.5945 10.3297C70.8595 10.3297 70.277 10.6071 69.847 11.1618C69.4171 11.7166 69.2021 12.4447 69.2021 13.3462C69.2021 14.2338 69.4171 14.955 69.847 15.5098C70.277 16.0646 70.8595 16.3419 71.5945 16.3419Z" fill="black"/>
<path d="M83.0536 7.70841C84.6486 7.70841 85.9453 8.2285 86.9439 9.26868C87.9564 10.295 88.4626 11.6542 88.4626 13.3462C88.4626 15.0382 87.9564 16.3974 86.9439 17.4237C85.9453 18.45 84.6486 18.9632 83.0536 18.9632C81.4448 18.9632 80.1342 18.45 79.1217 17.4237C78.1232 16.3974 77.6239 15.0382 77.6239 13.3462C77.6239 11.6542 78.1232 10.295 79.1217 9.26868C80.1342 8.2285 81.4448 7.70841 83.0536 7.70841ZM83.0536 16.3419C83.7748 16.3419 84.3504 16.0646 84.7803 15.5098C85.2103 14.955 85.4253 14.2338 85.4253 13.3462C85.4253 12.4447 85.2103 11.7166 84.7803 11.1618C84.3643 10.6071 83.7887 10.3297 83.0536 10.3297C82.3186 10.3297 81.7361 10.6071 81.3061 11.1618C80.8762 11.7166 80.6612 12.4447 80.6612 13.3462C80.6612 14.2338 80.8762 14.955 81.3061 15.5098C81.7361 16.0646 82.3186 16.3419 83.0536 16.3419Z" fill="black"/>
<path d="M93.743 18.9632C92.4116 18.9632 91.302 18.4639 90.4144 17.4653C89.5268 16.4529 89.083 15.0799 89.083 13.3462C89.083 11.6126 89.5337 10.2395 90.4352 9.22708C91.3367 8.21463 92.467 7.70841 93.8262 7.70841C95.1715 7.70841 96.1493 8.14528 96.7595 9.01904V3.58927H99.7969V18.7136H96.8844V17.4445C96.2325 18.457 95.1854 18.9632 93.743 18.9632ZM96.177 11.141C95.7471 10.6001 95.1785 10.3297 94.4711 10.3297C93.7638 10.3297 93.1952 10.6071 92.7652 11.1618C92.3353 11.7027 92.1203 12.4308 92.1203 13.3462C92.1203 14.2477 92.3353 14.9758 92.7652 15.5306C93.1952 16.0715 93.7638 16.3419 94.4711 16.3419C95.1785 16.3419 95.7471 16.0715 96.177 15.5306C96.607 14.9897 96.8219 14.2754 96.8219 13.3878V13.3046C96.8219 12.3892 96.607 11.668 96.177 11.141Z" fill="black"/>
<path fill-rule="evenodd" clip-rule="evenodd" d="M10.3259 6.88867C9.72451 6.50919 8.32378 6.17711 5.61686 7.03187L4.67722 4.05614C7.78138 3.07595 10.2709 3.1641 11.9912 4.24961C13.7851 5.38165 14.3303 7.33403 13.9945 9.03133C13.6442 10.802 12.1961 11.9199 11.4111 12.5258C11.3803 12.5496 11.3505 12.5726 11.3218 12.5949C11.1182 12.7527 10.963 12.8747 10.8443 12.9718C11.241 13.609 11.8268 14.4961 12.3865 15.3288C12.7496 15.8692 13.0903 16.3699 13.3403 16.7356C13.4653 16.9184 13.5674 17.0673 13.6382 17.1703C13.6736 17.2218 13.7012 17.2618 13.7198 17.2888L13.7479 17.3295L12.4639 18.216C11.1799 19.1025 11.1799 19.1024 11.1799 19.1024L11.1798 19.1023L11.1501 19.0593C11.1309 19.0314 11.1027 18.9904 11.0666 18.938C10.9945 18.833 10.8908 18.6819 10.7642 18.4967C10.511 18.1264 10.1655 17.6186 9.79645 17.0694C9.07367 15.9939 8.21302 14.6896 7.81015 13.9791C7.55173 13.5234 7.4445 12.9976 7.5447 12.4566C7.63667 11.96 7.88008 11.5777 8.08891 11.3168C8.44197 10.8757 8.95911 10.4766 9.32364 10.1953C9.35355 10.1722 9.38242 10.1499 9.4101 10.1285C10.3675 9.38639 10.8336 8.92954 10.9333 8.42571C11.0612 7.77898 10.8535 7.22162 10.3259 6.88867Z" fill="black"/>
<path fill-rule="evenodd" clip-rule="evenodd" d="M1.14844 18.6584L1.14844 4.0127L4.26899 4.0127L4.26899 18.6584L1.14844 18.6584Z" fill="black"/>
<path d="M102.789 14.9064H104.682C105.209 16.4598 106.457 17.2365 108.427 17.2365C109.398 17.2365 110.181 17.0076 110.778 16.5499C111.374 16.0784 111.672 15.4404 111.672 14.636C111.672 13.3878 110.896 12.6388 109.342 12.3892L106.638 11.9523C105.473 11.772 104.571 11.3559 103.933 10.7041C103.309 10.0384 102.997 9.20622 102.997 8.20764C102.997 6.89008 103.483 5.83602 104.453 5.04548C105.424 4.24107 106.617 3.83887 108.032 3.83887C109.405 3.83887 110.57 4.17866 111.527 4.85825C112.497 5.52397 113.101 6.48787 113.337 7.74996H111.443C110.986 6.27984 109.848 5.54477 108.032 5.54477C107.158 5.54477 106.416 5.77361 105.806 6.23129C105.195 6.67511 104.89 7.28535 104.89 8.06202C104.89 8.60291 105.071 9.05366 105.431 9.41426C105.806 9.77486 106.34 10.0106 107.033 10.1216L109.758 10.5793C112.296 11.0092 113.565 12.3198 113.565 14.5112C113.565 15.8842 113.08 16.966 112.109 17.7565C111.152 18.5471 109.911 18.9424 108.385 18.9424C106.901 18.9424 105.646 18.5956 104.62 17.9022C103.607 17.2087 102.997 16.2101 102.789 14.9064Z" fill="black"/>
<path d="M124.034 18.7135H122.307V17.4861C122.016 17.8883 121.593 18.235 121.038 18.5263C120.497 18.8037 119.859 18.9424 119.124 18.9424C118.015 18.9424 117.086 18.5956 116.337 17.9022C115.588 17.2087 115.213 16.1824 115.213 14.8232V8.22845H117.002V14.5736C117.002 15.4889 117.224 16.1755 117.668 16.6331C118.112 17.0908 118.708 17.3197 119.457 17.3197C120.22 17.3197 120.872 17.077 121.413 16.5915C121.968 16.1061 122.245 15.378 122.245 14.4071V8.22845H124.034V18.7135Z" fill="black"/>
<path d="M131.364 8.18684H131.905V9.87194H131.364C130.407 9.87194 129.623 10.1355 129.013 10.6625C128.417 11.1895 128.119 11.9523 128.119 12.9509V18.7135H126.329V8.22845H128.056V9.83033C128.75 8.73467 129.852 8.18684 131.364 8.18684Z" fill="black"/>
<path d="M142.017 8.22845L137.919 18.7135H136.068L131.969 8.22845H133.904L136.983 16.4667L140.083 8.22845H142.017Z" fill="black"/>
<path d="M151.731 14.0119H144.096V14.0535C144.096 14.9966 144.394 15.7802 144.991 16.4043C145.587 17.0284 146.364 17.3405 147.321 17.3405C147.987 17.3405 148.534 17.2018 148.964 16.9244C149.408 16.6331 149.686 16.328 149.796 16.009H151.606C151.44 16.7441 150.989 17.4167 150.254 18.027C149.519 18.6372 148.534 18.9424 147.3 18.9424C145.774 18.9424 144.547 18.45 143.618 17.4653C142.689 16.4806 142.224 15.1491 142.224 13.471C142.224 11.7928 142.682 10.4614 143.597 9.47667C144.512 8.49196 145.698 7.99961 147.154 7.99961C148.555 7.99961 149.665 8.46422 150.483 9.39346C151.315 10.3088 151.731 11.5432 151.731 13.0965V14.0119ZM147.113 9.60149C146.253 9.60149 145.553 9.86501 145.012 10.392C144.485 10.9191 144.186 11.6195 144.117 12.4932H149.921C149.88 11.5917 149.609 10.8844 149.11 10.3712C148.625 9.85807 147.959 9.60149 147.113 9.60149Z" fill="black"/>
<path d="M160.281 8.22845H162.216L156.474 22.687H154.54L156.162 18.5887L152.043 8.22845H153.978L157.14 16.4043L160.281 8.22845Z" fill="black"/>
<path d="M164.391 15.7802C164.502 16.2795 164.787 16.6678 165.244 16.9452C165.716 17.2226 166.305 17.3613 167.013 17.3613C167.72 17.3613 168.275 17.2295 168.677 16.966C169.093 16.6886 169.301 16.2934 169.301 15.7802C169.301 14.9758 168.767 14.5042 167.699 14.3655L165.827 14.1159C163.843 13.8524 162.852 12.9023 162.852 11.2658C162.852 10.3366 163.226 9.55989 163.975 8.93577C164.724 8.31166 165.66 7.99961 166.784 7.99961C167.893 7.99961 168.809 8.26312 169.53 8.79015C170.265 9.31717 170.716 10.0522 170.882 10.9953H169.135C168.802 10.0522 168.018 9.58069 166.784 9.58069C166.132 9.58069 165.612 9.73325 165.223 10.0384C164.835 10.3296 164.641 10.6972 164.641 11.141C164.641 11.8899 165.14 12.3268 166.139 12.4516L168.032 12.7012C170.071 12.9786 171.09 13.9703 171.09 15.6762C171.09 16.7025 170.709 17.5069 169.946 18.0894C169.183 18.658 168.219 18.9424 167.054 18.9424C165.917 18.9424 164.925 18.6858 164.079 18.1726C163.233 17.6595 162.748 16.862 162.623 15.7802H164.391Z" fill="black"/>
</svg>
