<svg width="710" height="814" viewBox="0 0 710 814" fill="none" xmlns="http://www.w3.org/2000/svg">
<path d="M577.704 459.335C626.003 556.802 609.49 663.4 488.677 723.267C367.863 783.135 294.227 739.786 242.7 672.488C191.172 605.19 165.727 538.206 182.029 490.316C194.496 453.691 250.892 402.514 313.825 406.779C325.695 398.313 297.833 367.506 308.985 361.98C406.452 313.681 529.406 361.868 577.704 459.335Z" fill="#FF9BCB"/>
<path d="M463.195 176.052C488.62 261.516 537.876 470.839 476.535 470.66C415.194 470.481 365.433 316.615 335.226 232.363C305.02 148.111 291.06 59.9128 345.325 42.6755C399.59 25.4381 437.77 90.5875 463.195 176.052Z" fill="#FF9BCB"/>
<path d="M316.246 229.608C375.165 296.533 476.933 413.743 421.171 439.303C365.408 464.863 286.437 398.211 223.685 334.392C160.933 270.572 111.274 196.357 153.31 157.953C195.345 119.549 257.326 162.683 316.246 229.608Z" fill="#FF9BCB"/>
</svg>
