<svg width="151" height="203" viewBox="0 0 151 203" fill="none" xmlns="http://www.w3.org/2000/svg">
<path d="M151.746 76.9555C148.555 112.791 124.241 139.413 124.241 139.413C124.241 139.413 83.3863 212.627 51.8355 183.907C20.2847 155.188 74.5392 91.5796 69.4092 89.0742C64.2791 86.5688 17.5446 106.152 2.95153 76.9555C-11.6415 47.7594 30.1152 2.19421 78.9891 0.917899C127.863 -0.358418 154.938 41.1199 151.746 76.9555Z" fill="#B68DFF"/>
<path d="M93.0342 185.802C113.682 195.31 118.878 219.792 103.683 239.933C88.4874 260.074 71.3152 260.355 49.5517 250.581C27.7883 240.807 26.8961 214.339 38.9034 196.45C50.9108 178.562 72.3864 176.294 93.0342 185.802Z" fill="#B68DFF"/>
</svg>
