<svg width="815" height="795" viewBox="0 0 815 795" fill="none" xmlns="http://www.w3.org/2000/svg">
<g opacity="0.1">
<path d="M586.144 100.48C617.661 177.932 523.429 226.698 365.632 294.592C207.835 362.485 72.8932 401.203 40.3679 325.608C2.71525 238.097 128.74 178.654 286.537 110.76C444.334 42.8665 554.627 23.0274 586.144 100.48Z" fill="white"/>
<path d="M809.36 387.475C812.532 471.041 686.684 486.381 481.657 499.045C276.631 511.709 109.328 504.242 104.255 422.104C98.3815 327.017 264.293 311.965 469.319 299.301C674.346 286.637 806.188 303.909 809.36 387.475Z" fill="white"/>
<path d="M622.885 707.546C596.059 786.746 492.162 761.779 327.221 709.566C162.28 657.353 33.9305 598.087 58.7666 519.629C87.5179 428.803 222.676 466.559 387.618 518.772C552.559 570.985 649.71 628.346 622.885 707.546Z" fill="white"/>
</g>
</svg>
