<svg width="212" height="186" viewBox="0 0 212 186" fill="none" xmlns="http://www.w3.org/2000/svg">
<path d="M213.444 191.933C205.719 235.029 176.547 264.628 112.615 253.325C48.6828 242.021 8.31057 201.528 14.6543 156.571C20.998 111.615 87.4073 35.4033 139.775 43.7412C192.143 52.0791 221.169 148.836 213.444 191.933Z" fill="#80DE5F"/>
<path d="M111.015 1.24216C79.9793 -7.18205 92.911 30.9852 103.256 51.1219L175.305 71.6283C190.823 62.3913 220.086 41.2571 212.992 30.616C204.124 17.3148 183.064 26.7365 180.847 26.7365C180.293 21.7485 175.305 11.7726 160.895 8.44727C144.047 5.78702 136.14 14.7284 134.293 19.5317C132.999 15.8369 126.534 7.00625 111.015 1.24216Z" fill="#80DE5F"/>
</svg>
