<svg width="75" height="50" fill="none" xmlns="http://www.w3.org/2000/svg"><g clip-path="url('#clip0_1744_3190')" fill="#000"><path d="M69.254 49.956c-3.508 0-5.588-1.77-5.747-4.317h3.353c0 .85.478 1.98 2.553 2.05 1.438 0 2.234-.85 2.234-1.488-.16-.99-1.438-1.06-2.712-1.276-1.438-.206-2.552-.493-3.353-.844-1.115-.568-1.757-1.775-1.757-3.046 0-2.267 1.921-4.036 5.27-4.036 3.194 0 5.269 1.629 5.422 4.106h-3.189c0-.633-.159-1.698-2.075-1.698-1.278 0-2.074.21-2.234 1.13 0 1.277 2.712 1.206 4.787 1.699C73.72 42.734 75 43.935 75 45.639c0 3.116-2.552 4.317-5.746 4.317ZM8.14 29.049l11.01-6.302 5.906 9.987H10.215"/><path fill-rule="evenodd" clip-rule="evenodd" d="M32.907 36.975V49.58h-3.223V36.975h3.223Z"/><path d="M3.03 43.441c0 1.98 1.756 3.609 3.666 3.609 2.08 0 3.672-1.629 3.672-3.608 0-1.91-1.591-3.609-3.672-3.609-1.91 0-3.666 1.699-3.666 3.608Zm3.507 6.514C3.03 49.955 0 47.05 0 43.441c0-3.608 3.03-6.443 6.537-6.443 1.438 0 2.717.358 3.831 1.131v-.99h3.195v12.53H10.37v-.78c-.955.709-2.393 1.066-3.831 1.066Zm42.618-17.247L33.835 6.373 44.845 0l19.151 32.708H49.155ZM17.713 43.441c0 1.98 1.597 3.609 3.672 3.609 1.91 0 3.672-1.629 3.672-3.608 0-1.91-1.762-3.609-3.672-3.609-2.075 0-3.672 1.699-3.672 3.608Zm3.512 6.514c-3.672 0-6.542-2.905-6.542-6.514 0-3.608 2.87-6.443 6.543-6.443 1.432 0 2.711.358 3.83 1.131v-5.307h3.19v16.846h-3.19v-.779c-1.12.709-2.398 1.066-3.83 1.066Zm-.157-32.184 11.17-6.227 12.29 21.164H32.875v3.116h-3.19v-3.116L21.069 17.77Zm51.863 18.15c-.802 0-1.597-.708-1.597-1.557 0-.85.795-1.558 1.597-1.558.955 0 1.597.709 1.597 1.558 0 .849-.642 1.558-1.597 1.558Zm0-2.899c-.802 0-1.28.633-1.28 1.342 0 .708.478 1.347 1.28 1.347.796 0 1.273-.639 1.273-1.347 0-.71-.477-1.342-1.273-1.342Z"/><path d="m73.26 35.24-.318-.708h-.318v.709h-.242v-1.699h.72c.159 0 .477.217.477.498s-.16.422-.318.492l.318.709h-.318Zm-.318-1.481h-.318v.562h.318c.319 0 .319-.07.319-.281 0-.146 0-.281-.319-.281Zm-21.088 9.705c0 1.98 1.598 3.608 3.672 3.608 1.916 0 3.667-1.628 3.667-3.608 0-1.91-1.751-3.608-3.667-3.608-2.075 0-3.672 1.698-3.672 3.608Zm3.508 6.514c-3.667 0-6.538-2.906-6.538-6.514s2.871-6.443 6.537-6.443c1.439 0 2.717.357 3.832 1.13v-.99h3.035v12.53h-3.035v-.78c-1.115.71-2.393 1.066-3.832 1.066Zm-18.18-6.514c0 1.98 1.757 3.608 3.672 3.608 2.075 0 3.672-1.628 3.672-3.608 0-1.91-1.597-3.608-3.672-3.608-1.915 0-3.672 1.698-3.672 3.608Zm7.344-10.62h3.19v16.847h-3.19v-.78c-.96.71-2.239 1.066-3.672 1.066-3.672 0-6.702-2.905-6.702-6.513s3.03-6.443 6.702-6.443c1.433 0 2.712.357 3.672 1.13v-5.307Z"/></g><defs><clipPath id="clip0_1744_3190"><path fill="#fff" d="M0 0h75v50H0z"/></clipPath></defs></svg>