<svg width="52" height="34" fill="none" xmlns="http://www.w3.org/2000/svg"><g clip-path="url('#clip0_867_2898')" fill="#000"><path d="M48.016 33.97c-2.432 0-3.874-1.203-3.984-2.936h2.325c0 .578.33 1.347 1.77 1.395.997 0 1.548-.578 1.548-1.012-.11-.673-.997-.721-1.88-.868-.997-.14-1.77-.335-2.325-.574-.772-.386-1.218-1.207-1.218-2.071 0-1.542 1.332-2.745 3.654-2.745 2.215 0 3.653 1.108 3.76 2.793h-2.211c0-.431-.11-1.155-1.439-1.155-.887 0-1.438.143-1.549.768 0 .868 1.88.82 3.319 1.155C51.114 29.06 52 29.876 52 31.034c0 2.12-1.77 2.936-3.985 2.936ZM5.645 19.754l7.634-4.286 4.094 6.79H7.083"/><path fill-rule="evenodd" clip-rule="evenodd" d="M22.813 25.143v8.571h-2.235v-8.571h2.235Z"/><path d="M2.1 29.54c0 1.347 1.219 2.454 2.543 2.454 1.442 0 2.546-1.107 2.546-2.454 0-1.298-1.104-2.453-2.546-2.453-1.324 0-2.542 1.155-2.542 2.453Zm2.433 4.43C2.1 33.97 0 31.993 0 29.54c0-2.453 2.1-4.381 4.533-4.381.997 0 1.883.243 2.656.769v-.674h2.215v8.52H7.189v-.53c-.662.483-1.66.725-2.656.725ZM34.08 22.241 23.459 4.334 31.093 0l13.278 22.242H34.08Zm-21.8 7.298c0 1.347 1.107 2.454 2.546 2.454 1.324 0 2.546-1.107 2.546-2.454 0-1.298-1.222-2.453-2.546-2.453-1.439 0-2.546 1.155-2.546 2.453Zm2.435 4.43c-2.546 0-4.536-1.976-4.536-4.43 0-2.453 1.99-4.381 4.536-4.381.994 0 1.88.243 2.657.769v-3.61h2.21v11.456h-2.21v-.53c-.777.483-1.663.725-2.657.725Zm-.109-21.886 7.745-4.234 8.52 14.391h-8.079v2.119h-2.21v-2.119l-5.976-10.157Zm35.958 12.343c-.555 0-1.107-.482-1.107-1.06 0-.577.552-1.06 1.107-1.06.662 0 1.108.483 1.108 1.06 0 .578-.446 1.06-1.108 1.06Zm0-1.972c-.555 0-.886.43-.886.912 0 .482.33.916.886.916.552 0 .883-.434.883-.916 0-.482-.33-.912-.883-.912Z"/><path d="m50.795 23.964-.221-.482h-.22v.482h-.168v-1.155h.498c.11 0 .332.147.332.338 0 .191-.11.287-.221.335l.22.482h-.22Zm-.221-1.008h-.22v.382h.22c.22 0 .22-.047.22-.191 0-.1 0-.191-.22-.191Zm-14.621 6.6c0 1.346 1.107 2.453 2.546 2.453 1.328 0 2.542-1.107 2.542-2.454 0-1.298-1.214-2.453-2.542-2.453-1.439 0-2.546 1.155-2.546 2.453Zm2.432 4.429c-2.542 0-4.533-1.976-4.533-4.43 0-2.453 1.99-4.38 4.533-4.38.997 0 1.883.242 2.656.768v-.673h2.105v8.52H41.04v-.53c-.773.482-1.66.725-2.656.725Zm-12.604-4.43c0 1.347 1.217 2.454 2.545 2.454 1.439 0 2.546-1.107 2.546-2.454 0-1.298-1.107-2.453-2.546-2.453-1.328 0-2.546 1.155-2.546 2.453Zm5.091-7.221h2.211V33.79h-2.21v-.53c-.667.482-1.553.725-2.547.725-2.546 0-4.646-1.976-4.646-4.43 0-2.453 2.1-4.38 4.646-4.38.994 0 1.88.242 2.546.768v-3.609Z"/></g><defs><clipPath id="clip0_867_2898"><path fill="#fff" d="M0 0h52v34H0z"/></clipPath></defs></svg>