<svg width="24" height="24" fill="none" xmlns="http://www.w3.org/2000/svg"><path d="M24 12c0 6.627-5.373 12-12 12S0 18.627 0 12C0 12.003 12 .001 12 0c6.627 0 12 5.373 12 12Z" fill="#0052B4"/><path d="M11.969 12H12v-.032l-.032.032Z" fill="#F0F0F0"/><path d="M12 6.262V0h-.002C5.372.002 0 5.374 0 12.001h6.26V8.475l3.526 3.526h2.182l.032-.032V9.787L8.474 6.262H12Z" fill="#F0F0F0"/><path d="M6.068 1.565a12.057 12.057 0 0 0-4.505 4.506V12h3.13V4.696h7.304v-3.13H6.068Z" fill="#D80027"/><path d="M11.997 10.524 7.733 6.261H6.258L11.997 12v-1.476Z" fill="#D80027"/><path d="m7.238 14.087.659 1.377 1.487-.344-.666 1.374 1.196.948-1.489.336.004 1.526-1.19-.955-1.192.955.005-1.526-1.49-.336 1.197-.948-.667-1.374 1.488.344.658-1.377ZM17.97 16.695l.33.689.744-.172-.334.687.599.474-.745.168.002.763-.595-.477-.596.477.002-.763-.744-.168.598-.474-.333-.687.743.172.33-.689ZM14.904 9.39l.33.69.743-.172-.333.686.598.475-.744.167.002.764-.596-.478-.595.478.002-.764-.745-.168.598-.474-.333-.686.744.171.33-.688ZM17.97 5.217l.33.689.744-.172-.333.687.598.474-.745.168.002.763-.595-.478-.596.478.002-.763-.744-.168.598-.474-.333-.687.743.172.33-.689ZM20.643 8.347l.329.689.743-.172-.332.687.598.474-.745.168.002.763-.595-.478-.596.478.002-.763-.744-.168.598-.474-.333-.687.743.172.33-.689ZM18.726 12l.26.797h.837l-.678.493.26.797-.679-.493-.678.493.259-.797-.678-.493h.838l.26-.797Z" fill="#F0F0F0"/></svg>