<svg width="24" height="24" fill="none" xmlns="http://www.w3.org/2000/svg"><path d="M12 24c6.627 0 12-5.373 12-12S18.627 0 12 0 0 5.373 0 12s5.373 12 12 12Z" fill="#F0F0F0"/><path d="M23.997 12a12 12 0 0 0-6.782-10.81V22.81a12 12 0 0 0 6.782-10.81ZM0 12a12 12 0 0 0 6.783 10.809V1.19A12 12 0 0 0 0 12ZM14.085 13.565l2.087-1.044L15.129 12v-1.044L13.042 12l1.043-2.087h-1.043l-1.044-1.566-1.043 1.566H9.91L10.955 12l-2.087-1.044V12l-1.044.521 2.087 1.044-.522 1.043h2.087v1.566h1.044v-1.566h2.087l-.522-1.043Z" fill="#D80027"/></svg>