<svg width="137" height="51" fill="none" xmlns="http://www.w3.org/2000/svg"><path d="M123.379 12.23c.054-.339.253-.623.399-.907.32-.65.639-1.285.812-1.989.066-.297.186-.663-.08-.893-.306-.27-.639-.04-.918.122-.758.447-1.423 1.001-2.075 1.57-1.995 1.718-3.777 3.666-5.413 5.749-3.032 3.869-5.706 7.981-8.153 12.243-.492.852-.984 1.704-1.41 2.678.373 0 .585-.216.798-.379a50.302 50.302 0 0 0 3.418-2.895 96.772 96.772 0 0 0 5.121-5.113 54.729 54.729 0 0 0 3.525-4.14c.518-.676.931-.825 1.875-.65-.253.61-.665 1.11-1.064 1.61a86.488 86.488 0 0 1-7.275 8.063c-2.248 2.178-4.642 4.194-7.209 5.966a2.77 2.77 0 0 0-1.051 1.258c-.652 1.502-1.263 3.03-1.755 4.6-.173.554-.32 1.123-.413 1.704-.066.379-.053.758.04 1.137.186.717.665.96 1.29.568.692-.42 1.224-1.042 1.729-1.664 1.33-1.61 2.421-3.396 3.578-5.127 1.556-2.314 3.219-4.532 5.227-6.467a18.119 18.119 0 0 1 3.458-2.61 4.57 4.57 0 0 1 2.221-.61c.931-.013 1.689.312 2.195 1.137.026.054.093.081.133.108.04-.013.066-.013.08-.013.332-.812.984-.893 1.742-.853.811.055 1.636 0 2.46.014.466.014.519.095.28.514l-3.112 5.357c-1.756 3.03-3.525 6.047-5.188 9.131-.159.285-.399.623-.106.92.293.312.625.068.904-.108.759-.473 1.424-1.069 2.022-1.745 1.131-1.272 2.168-2.624 3.152-4.004.319-.447.971-.65 1.463-.46.16.068.2.176.133.311-.053.122-.133.23-.213.352a42.27 42.27 0 0 1-4.788 6.128c-.971 1.014-1.995 1.988-3.205 2.719-.652.392-1.33.703-2.088.839-1.277.23-2.248-.42-2.354-1.718-.027-.38-.08-.744-.12-1.137-.319 0-.439.244-.612.406-.931.839-1.915 1.596-3.046 2.165-.598.297-1.223.405-1.875.297-1.024-.176-1.742-.974-1.889-2.07-.079-.554-.039-1.109-.039-1.731-.293.108-.413.325-.586.5-.917.988-1.862 1.935-3.005 2.638a5.057 5.057 0 0 1-1.663.663c-1.41.284-2.727-.812-2.98-2.408-.159-1.055-.013-2.07.227-3.084.332-1.448.838-2.854 1.303-4.261.053-.15.107-.298.147-.447.16-.541.132-.554-.44-.487-.066.014-.132.014-.199.027-1.543.108-1.25-.013-2.022 1.245-1.21 1.975-2.513 3.869-4.11 5.56-1.223 1.298-2.58 2.394-4.136 3.246a5.289 5.289 0 0 1-2.021.636c-1.45.149-2.514-.622-2.833-2.07-.293-1.339-.093-2.651.292-3.936a21.866 21.866 0 0 1 2.793-5.885c1.277-1.88 2.634-3.68 4.296-5.221 1.317-1.232 2.767-2.26 4.43-2.922.585-.23 1.183-.366 1.808-.352 1.623.013 2.434.825 2.527 2.489.067 1.19-.146 2.327-.558 3.436a20.2 20.2 0 0 1-.812 1.92c-.08.15-.24.326-.133.501.133.217.373.054.559.041.16 0 .306-.054.452-.081.652-.122 1.077-.487 1.383-1.11a90 90 0 0 1 6.331-10.862c2.9-4.235 6.185-8.13 10.015-11.512 1.57-1.38 3.153-2.774 5.081-3.667.758-.351 1.53-.608 2.368-.568.984.04 1.436.5 1.489 1.515.04.758-.133 1.475-.386 2.178-.133.352-.305.704-.465 1.042-.372.73-.851.96-1.756.852Zm-11.345 30.166c.359-.013.705-.284 1.038-.595 1.21-1.11 2.154-2.462 3.005-3.855 1.69-2.733 3.312-5.493 4.975-8.239.133-.23.279-.46.359-.717.159-.514-.133-.852-.665-.77-.466.067-.905.243-1.264.567-.651.61-1.356 1.164-1.955 1.827-1.011 1.136-1.995 2.3-2.846 3.558-1.264 1.853-2.447 3.76-3.219 5.898-.159.446-.306.906-.332 1.366-.04.622.266.974.904.96ZM92.629 32.71c-.332.298-.545.704-.798 1.07-1.17 1.704-2.234 3.462-2.953 5.424a5.842 5.842 0 0 0-.372 1.637c-.093 1.204.718 1.826 1.822 1.393.546-.216 1.011-.555 1.437-.947 1.596-1.46 2.82-3.233 3.897-5.1.345-.595.332-.609-.306-.947-.891-.473-1.69-1.055-2.275-1.92-.133-.204-.213-.447-.452-.61Zm5.786-3.165v-.27c-.067-1.15-.745-1.583-1.81-1.178a3.944 3.944 0 0 0-1.608 1.15c-.44.514-.759 1.096-.799 1.813-.106 1.664 1.078 2.597 2.222 3.098.292.122.452-.04.572-.284.359-.69.731-1.394.957-2.151.213-.717.492-1.42.466-2.178ZM61.733 17.167c.2-.609.651-.663 1.183-.636.838.027 1.69.014 2.527.014.798 0 .838.067.413.784-.918 1.57-1.85 3.125-2.78 4.694-1.782 3.017-3.565 6.02-5.347 9.037-.12.216-.24.433-.266.69-.053.514.213.744.678.555.24-.095.466-.257.692-.406 1.29-.893 2.328-2.07 3.325-3.288.479-.581.944-1.19 1.423-1.785.306-.393 1.118-.609 1.556-.42.12.055.16.163.094.271-.093.149-.2.298-.306.446-1.317 1.813-2.66 3.612-4.203 5.222-1.383 1.448-2.82 2.882-4.655 3.76-.586.285-1.197.515-1.85.42-.943-.135-1.582-.852-1.662-1.894-.026-.284 0-.581 0-.933-.319.108-.438.338-.611.5-.772.758-1.623 1.394-2.594 1.867-.652.312-1.33.46-2.062.433-1.29-.054-2.088-.852-2.154-2.178-.04-.703.053-1.393.186-2.083.04-.19.146-.379.04-.636-.692.636-1.303 1.312-2.022 1.88-1.077.866-2.168 1.719-3.431 2.314-1.144.527-2.314.906-3.604.69a3.74 3.74 0 0 1-3.086-3.342c-.146-1.569.213-3.043.758-4.477a22.199 22.199 0 0 1 1.809-3.72c-.678.162-1.197.284-1.73.405-.225.054-.305.244-.398.42-1.357 2.421-3.046 4.586-4.921 6.601-.931 1.001-1.916 1.935-3.02 2.733-.784.555-1.609 1.028-2.54 1.285-2.061.582-3.75-.622-3.91-2.8-.093-1.285.106-2.53.492-3.734.878-2.678 2.288-5.06 4.017-7.264 1.223-1.556 2.58-2.976 4.136-4.18 1.17-.907 2.42-1.678 3.83-2.124.599-.19 1.21-.312 1.836-.217 1.423.19 2.288 1.15 2.367 2.625.08 1.501-.345 2.895-.917 4.247-.093.217-.266.42-.213.73.359.028.652-.12.944-.27 1.13-.554 2.102-1.325 3.046-2.15 1.077-.948 2.022-2.016 3.139-2.91 1.064-.851 2.181-1.622 3.484-2.055.838-.284 1.703-.298 2.554-.095 1.41.338 2.181 1.8 1.836 3.422-.266 1.245-.865 2.314-1.716 3.234-.28.297-.599.54-.984.663-1.024.324-1.796-.38-1.57-1.434.28-1.34 1.05-2.219 2.38-2.517.333-.08.6-.135.586-.568-.013-.42-.24-.744-.652-.811-.372-.068-.744 0-1.103.148-.798.325-1.424.907-2.049 1.488-2.86 2.679-4.854 5.94-6.264 9.605-.266.677-.452 1.367-.4 2.11.094 1.543 1.012 2.233 2.475 1.8 1.09-.325 1.968-1.015 2.793-1.772 2.154-1.989 3.977-4.289 5.706-6.67 1.436-1.975 2.965-3.882 4.734-5.56 1.277-1.217 2.607-2.38 4.31-2.99a4.467 4.467 0 0 1 1.037-.243c.798-.094 1.49.122 2.075.677.16.108.266.297.559.392Zm-1.77.987c-.239-.013-.505.095-.77.217-.692.325-1.145.906-1.65 1.447-2.367 2.584-4.362 5.452-6.078 8.51-.546.973-1.05 1.988-1.224 3.124-.12.826.333 1.204 1.09.907.64-.244 1.145-.677 1.583-1.19 1.064-1.245 1.996-2.585 2.873-3.964a174.162 174.162 0 0 0 4.749-8.05c.385-.649.186-1-.572-1Zm-31.401 4.451c-.04.014-.093.027-.107.054-1.316 1.867-2.553 3.788-3.418 5.912-.319.784-.572 1.61-.545 2.489.026.96.598 1.407 1.543 1.204.705-.149 1.25-.555 1.769-1.028 1.556-1.434 2.753-3.166 3.857-4.951.133-.203.266-.42.385-.636.227-.42.213-.474-.2-.636-.066-.027-.119-.04-.185-.068-1.157-.46-2.168-1.109-2.873-2.191-.067-.068-.12-.135-.226-.149Zm1.543-1.19c-.014.297.08.595.252.866.559.865 1.41 1.271 2.368 1.46.292.055.452-.094.572-.351.598-1.177.997-2.422 1.077-3.734.066-1.055-.412-1.718-1.397-1.596-1.37.176-2.872 1.907-2.872 3.355Z" fill="#E41F2B"/><path d="M95.128 8.293c-.465-.312-.89-.23-1.303-.176-1.038.135-1.942.595-2.846 1.109-2.288 1.285-4.296 2.95-6.185 4.762-2.46 2.354-4.735 4.87-6.717 7.657-2.18 3.043-4.136 6.236-5.6 9.713-.93 2.232-1.622 4.531-1.928 6.94-.146 1.203 0 2.394.692 3.435.771 1.177 2.115 1.719 3.485 1.434a6.418 6.418 0 0 0 2.075-.879c1.755-1.136 3.218-2.61 4.468-4.288 1.17-1.57 2.155-3.247 2.82-5.114.32-.92.545-1.853.612-2.827.013-.135.013-.27 0-.406-.08-1.38-.971-1.853-2.141-1.11-.878.556-1.517 1.38-2.075 2.246a11.002 11.002 0 0 0-1.423 3.477c-.08.338-.227.541-.546.704-1.716.838-3.192 2.015-4.548 3.355-.067.067-.133.121-.2.175-.026.027-.08.014-.12.027-.146-.094-.093-.243-.08-.365.333-2.367.985-4.626 2.248-6.67 1.277-2.069 2.953-3.706 5.12-4.788.972-.487 1.983-.798 3.087-.528.85.217 1.45.745 1.782 1.583.359.907.319 1.854.24 2.8-.147 1.8-.865 3.396-1.663 4.965a24.993 24.993 0 0 1-2.9 4.518c-1.902 2.368-4.123 4.356-6.863 5.655-1.556.744-3.218 1.028-4.92.622-2.195-.54-3.579-2.015-4.297-4.126-.824-2.407-.705-4.856.067-7.237 1.024-3.206 2.487-6.21 4.15-9.131a47.534 47.534 0 0 1 4.309-6.331c2.54-3.152 5.4-5.966 8.658-8.347 2.102-1.529 4.296-2.868 6.677-3.882 1.53-.65 3.125-.988 4.788-.974.891.013 1.716.27 2.407.825.293.23.519.243.838.121 1.463-.581 2.993-.852 4.549-.906 2.221-.081 4.309.46 6.251 1.529 2.141 1.177 4.283 2.38 6.411 3.571.08.04.159.081.226.135.359.244.359.284.053.61-.838.865-1.689 1.717-2.514 2.61-.279.298-.518.27-.811.081l-3.032-1.826c-1.33-.812-2.66-1.637-3.991-2.422-1.463-.865-3.045-1.447-4.708-1.799a3.77 3.77 0 0 0-1.65-.013c-.252.054-.425.162-.425.487-.053 2.76-1.01 5.248-2.314 7.602-.997 1.8-2.287 3.369-4.003 4.546-.745.5-1.543.892-2.394 1.136-1.49.447-2.674-.42-2.767-2.002-.053-.988.173-1.921.532-2.827.998-2.517 2.66-4.56 4.562-6.413a22.567 22.567 0 0 1 3.458-2.732c.093-.108.2-.176.4-.311Zm1.024 2.218c.027-1.055 0-1.096-.718-.69-1.356.771-2.553 1.772-3.657 2.895-1.623 1.637-2.94 3.49-3.91 5.587-.24.528-.44 1.082-.453 1.678-.013.947.665 1.447 1.543 1.163 1.037-.325 1.889-.96 2.687-1.704 1.37-1.3 2.394-2.841 3.218-4.519.719-1.447 1.184-3.003 1.29-4.41ZM61.505 47.28c-.678-.379-1.25-.717-1.849-1.015-2.593-1.271-5.306-2.015-8.22-1.867-1.529.082-2.912.528-4.056 1.597-.173.162-.332.352-.492.54-.465.569-.479.583-.878-.013-.678-1-1.556-1.772-2.606-2.367-1.517-.866-3.166-1.245-4.895-1.393-3.205-.271-6.318.284-9.403 1.041-3.379.839-6.757 1.678-10.188 2.286-1.596.285-3.206.487-4.828.217-2.873-.487-5.307-1.718-6.983-4.22-.731-1.083-1.037-2.328-1.25-3.6-.492-2.908-.106-5.748.771-8.522 1.078-3.422 2.767-6.52 4.815-9.442 1.835-2.625 3.963-4.978 6.278-7.143 2.82-2.638 5.932-4.87 9.536-6.29 1.476-.582 2.993-.96 4.602-.96 2.38.013 3.75 1.528 3.418 3.895-.2 1.407-.798 2.665-1.809 3.68-.372.365-.798.636-1.33.73-.691.122-1.277-.284-1.423-.987-.226-1.096.346-2.354 1.343-2.922.413-.23.838-.42 1.304-.474.32-.04.439-.243.465-.554.067-.785-.359-1.3-1.143-1.353-.56-.04-1.104.067-1.636.243-2.022.69-3.79 1.854-5.4 3.26-3.684 3.234-6.757 7.022-9.43 11.134-1.77 2.72-3.139 5.655-3.99 8.807-.532 1.975-.931 3.99-.785 6.074.12 1.731.718 3.233 2.008 4.423.732.663 1.583 1.082 2.5 1.353.825.243 1.677.406 2.555.446 2.766.15 5.48-.27 8.166-.906l10.48-2.516c2.554-.622 5.134-1.055 7.755-1.001 4.495.095 8.645 1.312 12.395 3.882 1.33.907 2.527 1.975 3.658 3.125.213.19.425.392.545.812Zm73.192-40.76c.066.23-.04.352-.12.487-1.955 3.288-4.536 5.926-7.861 7.779-2.154 1.204-4.429 2.043-6.902 2.273a10.02 10.02 0 0 1-3.046-.176c-.506-.108-.545-.203-.24-.595a45.38 45.38 0 0 1 2.434-2.868c.213-.23.466-.217.732-.217.971 0 1.942.04 2.926-.095 2.234-.31 4.269-1.15 6.238-2.218 2.021-1.11 3.817-2.53 5.493-4.126.066-.068.133-.122.199-.176.027-.04.067-.04.147-.068ZM71.095 16.531c.505 0 1.024-.013 1.53 0 .332.014.398.122.212.42-.585.987-1.184 1.947-1.782 2.935-.147.244-.333.338-.599.325-.997 0-1.995.013-2.992-.014-.453 0-.519-.122-.28-.527.56-.947 1.131-1.88 1.703-2.828.146-.243.332-.338.612-.324.532.013 1.064.013 1.596.013Z" fill="#E41F2B"/></svg>