<svg width="1309" height="1430" fill="none" xmlns="http://www.w3.org/2000/svg"><path fill-rule="evenodd" clip-rule="evenodd" d="M991.756 514.635c6.971-36.908 13.134-72.293 18.624-104.105 36.11-209.171 23.53-388.492-110.438-409.082-133.969-20.59-216.831 182.562-236.223 349.247-2.036 17.505-3.822 36.872-5.237 57.594-51.297-177.159-130.558-304.537-249.078-273.293C278.34 169.548 283.38 388.892 332.08 549.479c11.015 36.322 26.54 80.104 45.66 126.203-1.046.98-2.086 1.964-3.122 2.954C268.557 562.49 159.553 505.335 63.914 571.895-68.12 663.782 26.82 906.242 146.5 1065.42c61.91 82.35 129.062 163.93 202.4 216.47 79.806 90.33 196.515 147.3 326.528 147.3 184.727 0 342.591-115 405.921-277.31 62.53-99.93 120.72-244.261 162.09-348.239 78.48-197.224 103.16-375.283-23.68-423.066-84.08-31.675-166.47 37.486-228.004 134.06Z" fill="#FFDB22"/></svg>