<svg width="886" height="659" fill="none" xmlns="http://www.w3.org/2000/svg"><path d="M610.345 46.304c28.392 49.677 5.305 94.629-53.304 144.051 183.787-44.058 304.266-43.091 325.297 39.486 22.104 86.792-93.707 134.674-291.187 191.919 90.191 11.161 143.591 42.338 146.381 104.264 4.396 97.587-119.285 114.482-320.969 127.615-201.683 13.133-366.53 3.066-372.776-92.869-2.741-42.09 18.989-70.561 58.014-90.404-7.708-7.671-13.23-16.985-16.345-28.103-1.299-4.637-2.194-9.182-2.698-13.639-30.857-1.06-54.76-12.471-69.572-37.233-57.132-95.51 79.604-183.83 251.823-286.849C437.228 1.522 561.873-38.507 610.345 46.304Z" fill="#FFDB22"/></svg>