<svg width="122" height="134" fill="none" xmlns="http://www.w3.org/2000/svg"><path fill-rule="evenodd" clip-rule="evenodd" d="M92.463 47.967a620.764 620.764 0 0 0 1.735-9.694C97.563 18.773 96.39 2.055 83.9.135c-12.49-1.92-20.214 17.02-22.022 32.56-.19 1.631-.357 3.436-.488 5.367-4.783-16.515-12.172-28.39-23.221-25.477-12.219 3.221-11.75 23.67-7.209 38.642 1.027 3.386 2.474 7.468 4.257 11.765l-.292.277C25.038 52.44 14.876 47.11 5.959 53.316c-12.31 8.567-3.459 31.17 7.699 46.011 5.773 7.679 12.036 15.287 18.875 20.185 7.44 8.419 18.319 13.728 30.438 13.728 17.23 0 31.955-10.732 37.852-25.877 5.824-9.315 11.243-22.756 15.097-32.441 7.316-18.387 9.617-34.987-2.208-39.442-7.835-2.951-15.513 3.49-21.25 12.487Z" fill="#FFDB22"/></svg>