<svg width="92" height="27" fill="none" xmlns="http://www.w3.org/2000/svg"><path d="M65.93 4.091c-3.439 2.569-5.343 6.037-5.333 9.509.016 5.146 4.227 10.102 13.982 10.07a40.32 40.32 0 0 0 6.498-.584 40.192 40.192 0 0 0 1.649-.3l1.134-4.79c-1.89.625-4.279 1.141-6.193 1.15-5.196.016-8.679-3.03-8.687-7.022-.008-2.129.877-3.998 2.477-5.365 1.714-1.465 4.24-2.351 7.4-2.351 2.501 0 3.964.683 4.962 1.66.197.186.38.387.547.602h.814l1.592-5.653C85.132.48 82.7.03 80.133.003 74.158-.077 69.304 1.57 65.93 4.09Zm-6.842.786c.701 0 1.283.252 1.674.582.334.28.535.615.535.903h.8L63.65.223H42.568l-.308 1.201-.073.292s2.308.256 1.6 2.536l-5.262 18.902 8.95.017h1.57l.399-1.623s-1.968-.47-1.454-2.266c.024-.113.766-2.8 1.208-4.414l.339-1.198 4.818-.003c.787 0 1.391.143 1.858.322.965.365 1.336.92 1.336.92l1.398-5.618h-8.123l.878-3.208.33-1.197 7.056-.01ZM33.471 19.78c-.623-.66-6.04-9.001-6.04-9.001l9.58-7.579.317-.252a6.59 6.59 0 0 1 1.185-.787c1.018-.517 1.674-.443 1.674-.443l.385-1.511-12.313.018-.307 1.197-.072.296c.836.057 2.004.796 1.05 1.677-.125.106-9.896 7.487-9.896 7.487l.076-.261 2.032-7.275c.429-1.453 2.008-1.628 2.008-1.628L23.537.22 11.781.224l-.302 1.197-.078.296c.563.143 2.168.45 1.612 2.536-3.923 14.015-3.475 12.628-3.74 13.392-.878 3.322-2.196 3.78-2.988 3.864-.173.017-.322.017-.43.022l-.162.628-.249.994H17.74l.41-1.646s-1.95-.381-1.579-1.773c.189-.699.682-2.473 1.117-4.038.421-1.52.795-2.85.795-2.85 2.133 3.378 2.623 3.796 5.197 7.286 2.368 3.23 4.9 3.078 11.01 3.037.498-.003 1.013-.008 1.569-.008l.406-1.614c-1.55.01-2.575-1.109-3.194-1.767Z" fill="#000"/></svg>