<svg width="128" height="28" fill="none" xmlns="http://www.w3.org/2000/svg"><path fill-rule="evenodd" clip-rule="evenodd" d="M18.382 20.692v2.645h-16.5V5.146h2.971v15.546h13.529Zm-2.31-8.931 3.3-6.285h-3.135l-2.475 6.285h2.31Zm26.975-3.63c-1.07-1.687-2.633-3.106-4.473-4.073A13.15 13.15 0 0 0 32.5 2.576a13.15 13.15 0 0 0-6.075 1.482c-1.84.967-3.403 2.386-4.473 4.074a10.511 10.511 0 0 0-1.648 5.6c0 1.956.578 3.913 1.648 5.6 1.07 1.688 2.632 3.107 4.473 4.073a13.151 13.151 0 0 0 6.075 1.483c2.117 0 4.234-.515 6.074-1.483 1.84-.966 3.403-2.385 4.473-4.073a10.506 10.506 0 0 0 1.647-5.6c0-1.956-.577-3.913-1.647-5.6ZM40.48 18.188a9.012 9.012 0 0 1-3.345 3.202 9.482 9.482 0 0 1-9.112 0 9.016 9.016 0 0 1-3.345-3.202A8.54 8.54 0 0 1 23.45 13.8c0-1.532.429-3.063 1.228-4.387a9.01 9.01 0 0 1 3.345-3.201 9.476 9.476 0 0 1 9.112 0 9.004 9.004 0 0 1 3.345 3.201 8.54 8.54 0 0 1 1.228 4.387 8.544 8.544 0 0 1-1.228 4.387Zm24.926-5.197c-.537 1.186-1.553 1.87-2.348 2.285-.795.415-1.368.558-1.945.538l5.775 7.524h-3.3l-5.585-7.276h-7.285v7.276h-2.97V5.146h11.88c1.2 0 2.418.237 3.492.843 1.075.605 2.005 1.526 2.441 2.83.437 1.301.38 2.986-.155 4.171Zm-3.322-.124c.625-.53.996-1.401.963-2.266a3.178 3.178 0 0 0-1.087-2.243c-.622-.522-1.416-.566-2.167-.566h-9.075v5.624h9.075c.802 0 1.665-.018 2.29-.549Zm20.477.053v2.48H72.497v5.293h13.528v2.645H69.526V5.146h16.5V7.79h-13.53v5.128h10.065Zm.165-10.586H78.27L76.457 4.65l6.269-2.316Zm9.117 16.373-2.353 4.63h-2.97l9.24-18.191h2.97l9.239 18.192h-2.97l-2.352-4.63H91.843ZM97.244 8.07l-4.227 8.322h8.454L97.244 8.07Zm28.708 12.623v2.645h-16.498V5.146h2.969v15.546h13.529Zm-1.286-11.896-.026-.434c-.004-.08.003-.16-.03-.25a.769.769 0 0 0-.147-.255.282.282 0 0 0-.182-.103.58.58 0 0 0 .306-.25.868.868 0 0 0 .124-.466.958.958 0 0 0-.15-.505c-.202-.297-.559-.348-.871-.333h-1.314v3.039h.51V7.99h.762c.083 0 .222-.012.361.097.184.217.102.504.134.747a.946.946 0 0 0 .077.404h.573v-.094c-.104-.043-.114-.195-.127-.349Zm-.63-1.339a.74.74 0 0 1-.434.1h-.72v-.925c.314.004.63-.014.941.012a.424.424 0 0 1 .336.24c.066.2.069.416-.123.573Z" fill="#000"/><path fill-rule="evenodd" clip-rule="evenodd" d="M125.775 6.427a2.568 2.568 0 0 0-2.216-1.282c-.446 0-.892.12-1.279.343a2.578 2.578 0 0 0-1.28 2.22c0 .448.121.896.344 1.283.223.386.55.715.936.938a2.57 2.57 0 0 0 1.279.344 2.567 2.567 0 0 0 2.216-1.282c.223-.388.344-.835.344-1.282 0-.448-.121-.895-.344-1.282Zm-.307 2.397a2.184 2.184 0 0 1-1.883 1.088 2.173 2.173 0 0 1-1.883-1.088 2.185 2.185 0 0 1 0-2.176 2.168 2.168 0 0 1 2.97-.796c.328.19.606.467.796.796a2.186 2.186 0 0 1 0 2.176Z" fill="#000"/></svg>