<svg width="100" height="47" fill="none" xmlns="http://www.w3.org/2000/svg"><g clip-path="url('#clip0_1744_3196')"><path d="M23.25 47.046c12.84 0 23.25-10.532 23.25-23.523S36.09 0 23.25 0 0 10.532 0 23.523s10.41 23.523 23.25 23.523Z" fill="#A70B52"/><path d="M28.909 31.801h-4.815V13.39H22.31v20.228h1.785v-.012h4.815v-1.805Z" fill="#fff"/><path d="M40.927 24.276h-11.99V22.47h13.746c.018.35.027.7.027 1.053 0 10.876-8.714 19.692-19.462 19.692-10.749 0-19.463-8.816-19.463-19.692S12.5 3.831 23.248 3.831c.284 0 .566.006.847.019l-.002 1.793c-.281-.013-.563-.02-.845-.02-9.77 0-17.692 8.014-17.692 17.9 0 9.887 7.92 17.9 17.692 17.9 9.505 0 17.258-7.583 17.674-17.096l.005-.05Z" fill="#fff"/><path d="M15.989 18.84c.725 0 1.42-.291 1.934-.81a2.783 2.783 0 0 0 .8-1.957c0-.734-.287-1.438-.8-1.957a2.719 2.719 0 0 0-1.934-.81c-.726 0-1.421.291-1.934.81a2.783 2.783 0 0 0-.801 1.957c0 .734.288 1.438.8 1.957.514.518 1.21.81 1.935.81Z" fill="#fff"/><path d="M58.043 35.07h16.613v-5.077H64.142V11.815h-6.099V35.07Zm36.685-21.617c-1.904-1.493-4.357-2.25-7.283-2.25-3.475 0-6.38 1.08-8.398 3.12-2.107 2.133-3.223 5.276-3.223 9.087 0 4.073 1.18 7.509 3.32 9.674 1.682 1.7 3.922 2.597 6.485 2.597 5.626 0 6.92-3.412 6.92-3.412v2.8h5.082V21.934H87.516v4.11h4.655s.045 5.174-4.76 5.174c-1.22 0-2.307-.448-3.144-1.295-1.304-1.317-1.993-3.538-1.993-6.417 0-4.768 1.873-7.615 5.01-7.615 1.96 0 3.432 1.217 3.81 3.062h6.47c-.335-2.68-1.062-4.078-2.836-5.502Z" fill="#000"/></g><defs><clipPath id="clip0_1744_3196"><path fill="#fff" d="M0 0h100v47H0z"/></clipPath></defs></svg>