<svg width="84" height="39" fill="none" xmlns="http://www.w3.org/2000/svg"><g clip-path="url('#clip0_867_2904')"><path d="M19.53 39.038c10.785 0 19.53-8.739 19.53-19.519C39.06 8.74 30.316 0 19.53 0 8.744 0 0 8.74 0 19.52c0 10.779 8.744 19.518 19.53 19.518Z" fill="#A70B52"/><path d="M24.282 26.388h-4.044V11.11h-1.5v16.785h1.5v-.01h4.044v-1.497Z" fill="#fff"/><path d="M34.379 20.145H24.308v-1.5h11.546c.015.29.023.58.023.875 0 9.024-7.32 16.34-16.349 16.34S3.18 28.544 3.18 19.52c0-9.025 7.32-16.34 16.349-16.34.238 0 .475.005.711.015l-.002 1.488a15.35 15.35 0 0 0-.71-.017c-8.207 0-14.86 6.65-14.86 14.854 0 8.203 6.653 14.853 14.86 14.853 7.984 0 14.498-6.292 14.847-14.186l.004-.042Z" fill="#fff"/><path d="M13.43 15.633a2.298 2.298 0 0 0 1.625-3.92 2.298 2.298 0 0 0-3.25 3.248c.431.43 1.016.672 1.625.672Z" fill="#fff"/><path d="M48.758 29.1h13.955v-4.212H53.88V9.804h-5.123V29.1Zm30.815-17.937c-1.6-1.239-3.66-1.867-6.118-1.867-2.919 0-5.358.896-7.054 2.59-1.77 1.77-2.707 4.377-2.707 7.54 0 3.379.99 6.23 2.79 8.026 1.412 1.411 3.293 2.156 5.446 2.156 4.726 0 5.813-2.832 5.813-2.832V29.1h4.269V18.202h-8.496v3.41h3.91s.037 4.293-3.999 4.293c-1.025 0-1.938-.372-2.64-1.074-1.096-1.093-1.675-2.936-1.675-5.325 0-3.957 1.574-6.319 4.208-6.319 1.646 0 2.883 1.01 3.2 2.54h5.436c-.282-2.223-.893-3.383-2.383-4.564Z" fill="#000"/></g><defs><clipPath id="clip0_867_2904"><path fill="#fff" d="M0 0h84v39H0z"/></clipPath></defs></svg>