<svg width="172" height="24" fill="none" xmlns="http://www.w3.org/2000/svg"><path d="M20.211 7.708c1.595 0 2.892.52 3.89 1.56 1.013 1.027 1.519 2.386 1.519 4.078 0 1.692-.506 3.051-1.519 4.078-.998 1.026-2.295 1.54-3.89 1.54-1.609 0-2.92-.514-3.932-1.54-.998-1.027-1.498-2.386-1.498-4.078 0-1.692.5-3.051 1.498-4.077 1.013-1.04 2.323-1.56 3.932-1.56Zm0 8.634c.721 0 1.297-.277 1.727-.832.43-.555.645-1.276.645-2.164 0-.901-.215-1.63-.645-2.184-.416-.555-.992-.832-1.727-.832-.735 0-1.318.277-1.747.832-.43.555-.645 1.283-.645 2.184 0 .888.215 1.609.645 2.164.43.555 1.012.832 1.747.832ZM32.877 7.708c1.331 0 2.44.507 3.328 1.52.888.998 1.332 2.37 1.332 4.118 0 1.72-.451 3.086-1.352 4.099-.902 1.012-2.032 1.518-3.392 1.518-.72 0-1.352-.132-1.893-.395-.527-.277-.915-.638-1.165-1.082v1.228h-2.912V3.589h3.037v5.45c.666-.887 1.671-1.33 3.017-1.33Zm-2.434 7.843c.43.527.998.79 1.706.79.707 0 1.269-.27 1.685-.81.43-.541.645-1.27.645-2.185s-.215-1.643-.645-2.184c-.416-.555-.978-.832-1.685-.832-.708 0-1.276.27-1.706.811-.43.54-.645 1.262-.645 2.164v.083c0 .901.215 1.623.645 2.163ZM41.787 7.958v10.756h-3.038V7.958h3.038ZM39.02 3.631c.332-.333.742-.5 1.227-.5.486 0 .895.167 1.227.5.347.333.52.735.52 1.206 0 .486-.173.895-.52 1.228-.332.333-.741.5-1.227.5-.485 0-.895-.167-1.227-.5a1.668 1.668 0 0 1-.5-1.228c0-.485.167-.887.5-1.206ZM43.585 7.958h2.913v1.27c.277-.43.686-.791 1.227-1.083.541-.291 1.172-.437 1.893-.437 1.11 0 2.032.347 2.767 1.04.735.68 1.103 1.713 1.103 3.1v6.866H50.45v-6.2c0-.68-.166-1.193-.499-1.54-.333-.36-.783-.54-1.352-.54-.54 0-1.005.18-1.394.54-.388.361-.582.888-.582 1.582v6.158h-3.038V7.958ZM61.2 7.708c1.109 0 2.031.347 2.766 1.04.735.68 1.103 1.713 1.103 3.1v6.866H62.03v-6.2c0-.68-.166-1.193-.499-1.54-.333-.36-.783-.54-1.352-.54-.54 0-1.006.18-1.394.54-.388.361-.582.888-.582 1.582v6.158h-3.038V3.589h3.038v5.45c.693-.887 1.692-1.33 2.995-1.33ZM71.594 7.708c1.596 0 2.892.52 3.89 1.56 1.013 1.027 1.52 2.386 1.52 4.078 0 1.692-.507 3.051-1.52 4.078-.998 1.026-2.294 1.54-3.89 1.54-1.608 0-2.919-.514-3.931-1.54-.999-1.027-1.498-2.386-1.498-4.078 0-1.692.5-3.051 1.498-4.077 1.012-1.04 2.323-1.56 3.931-1.56Zm0 8.634c.722 0 1.297-.277 1.727-.832.43-.555.645-1.276.645-2.164 0-.901-.215-1.63-.645-2.184-.416-.555-.991-.832-1.727-.832-.734 0-1.317.277-1.747.832-.43.555-.645 1.283-.645 2.184 0 .888.215 1.609.645 2.164.43.555 1.013.832 1.748.832ZM83.054 7.708c1.595 0 2.891.52 3.89 1.56 1.012 1.027 1.519 2.386 1.519 4.078 0 1.692-.507 3.051-1.52 4.078-.998 1.026-2.294 1.54-3.89 1.54-1.608 0-2.919-.514-3.931-1.54-.999-1.027-1.498-2.386-1.498-4.078 0-1.692.5-3.051 1.498-4.077 1.012-1.04 2.323-1.56 3.932-1.56Zm0 8.634c.72 0 1.296-.277 1.726-.832.43-.555.645-1.276.645-2.164 0-.901-.215-1.63-.645-2.184-.416-.555-.991-.832-1.726-.832s-1.318.277-1.748.832c-.43.555-.645 1.283-.645 2.184 0 .888.215 1.609.645 2.164.43.555 1.013.832 1.748.832ZM93.743 18.963c-1.331 0-2.441-.5-3.329-1.498-.887-1.012-1.331-2.385-1.331-4.119 0-1.733.45-3.107 1.352-4.119.902-1.012 2.032-1.519 3.391-1.519 1.346 0 2.323.437 2.934 1.311v-5.43h3.037v15.125h-2.913v-1.27c-.651 1.013-1.699 1.52-3.141 1.52Zm2.434-7.822c-.43-.54-.999-.811-1.706-.811s-1.276.277-1.706.832c-.43.54-.645 1.269-.645 2.184 0 .902.215 1.63.645 2.185.43.54.999.81 1.706.81s1.276-.27 1.706-.81c.43-.541.645-1.256.645-2.143v-.083c0-.916-.215-1.637-.645-2.164Z" fill="#000"/><path fill-rule="evenodd" clip-rule="evenodd" d="M10.326 6.889c-.601-.38-2.002-.712-4.71.143l-.939-2.976c3.104-.98 5.594-.892 7.314.194 1.794 1.132 2.34 3.084 2.004 4.781-.35 1.771-1.799 2.889-2.584 3.495l-.09.069c-.203.158-.358.28-.477.377a89.68 89.68 0 0 0 1.543 2.357 215.814 215.814 0 0 0 1.251 1.841l.082.119.028.04-1.284.887-1.284.886-.03-.043-.083-.121a248.432 248.432 0 0 1-1.27-1.869c-.723-1.075-1.584-2.38-1.987-3.09a2.233 2.233 0 0 1-.265-1.522c.092-.497.335-.88.544-1.14.353-.441.87-.84 1.235-1.122l.086-.066c.957-.743 1.424-1.2 1.523-1.703.128-.647-.08-1.204-.607-1.537ZM1.148 18.658V4.013H4.27v14.645h-3.12Z" fill="#000"/><path d="M102.789 14.906h1.893c.527 1.554 1.775 2.33 3.745 2.33.971 0 1.754-.228 2.351-.686.596-.472.894-1.11.894-1.914 0-1.248-.776-1.997-2.33-2.247l-2.704-.437c-1.165-.18-2.067-.596-2.705-1.248-.624-.666-.936-1.498-.936-2.496 0-1.318.486-2.372 1.456-3.163.971-.804 2.164-1.206 3.579-1.206 1.373 0 2.538.34 3.495 1.02.97.665 1.574 1.629 1.81 2.891h-1.894c-.457-1.47-1.595-2.205-3.411-2.205-.874 0-1.616.229-2.226.686-.611.444-.916 1.054-.916 1.831 0 .54.181.992.541 1.352.375.36.909.597 1.602.708l2.725.457c2.538.43 3.807 1.74 3.807 3.932 0 1.373-.485 2.455-1.456 3.245-.957.791-2.198 1.186-3.724 1.186-1.484 0-2.739-.346-3.765-1.04-1.013-.693-1.623-1.692-1.831-2.996ZM124.034 18.713h-1.727v-1.227c-.291.402-.714.749-1.269 1.04-.541.278-1.179.416-1.914.416-1.109 0-2.038-.346-2.787-1.04-.749-.693-1.124-1.72-1.124-3.079V8.228h1.789v6.346c0 .915.222 1.601.666 2.06.444.457 1.04.686 1.789.686.763 0 1.415-.243 1.956-.729.555-.485.832-1.213.832-2.184V8.228h1.789v10.486ZM131.364 8.187h.541v1.685h-.541c-.957 0-1.741.264-2.351.79-.596.527-.894 1.29-.894 2.289v5.762h-1.79V8.229h1.727V9.83c.694-1.095 1.796-1.643 3.308-1.643ZM142.017 8.228l-4.098 10.486h-1.851l-4.099-10.486h1.935l3.079 8.239 3.1-8.239h1.934ZM151.731 14.012h-7.635v.041c0 .944.298 1.727.895 2.351.596.624 1.373.936 2.33.936.666 0 1.213-.138 1.643-.416.444-.29.722-.596.832-.915h1.81c-.166.735-.617 1.408-1.352 2.018-.735.61-1.72.915-2.954.915-1.526 0-2.753-.492-3.682-1.477-.929-.984-1.394-2.316-1.394-3.994 0-1.678.458-3.01 1.373-3.994.915-.985 2.101-1.477 3.557-1.477 1.401 0 2.511.464 3.329 1.393.832.916 1.248 2.15 1.248 3.704v.915Zm-4.618-4.41c-.86 0-1.56.263-2.101.79-.527.527-.826 1.228-.895 2.101h5.804c-.041-.901-.312-1.609-.811-2.122-.485-.513-1.151-.77-1.997-.77ZM160.281 8.228h1.935l-5.742 14.459h-1.934l1.622-4.098-4.119-10.36h1.935l3.162 8.175 3.141-8.176ZM164.391 15.78c.111.5.396.888.853 1.165.472.278 1.061.416 1.769.416.707 0 1.262-.131 1.664-.395.416-.277.624-.673.624-1.186 0-.804-.534-1.276-1.602-1.414l-1.872-.25c-1.984-.264-2.975-1.214-2.975-2.85 0-.93.374-1.706 1.123-2.33.749-.624 1.685-.936 2.809-.936 1.109 0 2.025.263 2.746.79.735.527 1.186 1.262 1.352 2.205h-1.747c-.333-.943-1.117-1.414-2.351-1.414-.652 0-1.172.152-1.561.457-.388.292-.582.66-.582 1.103 0 .749.499 1.186 1.498 1.31l1.893.25c2.039.278 3.058 1.27 3.058 2.975 0 1.027-.381 1.83-1.144 2.413-.763.569-1.727.853-2.892.853-1.137 0-2.129-.256-2.975-.77-.846-.512-1.331-1.31-1.456-2.392h1.768Z" fill="#000"/></svg>