<svg width="61" height="37" fill="none" xmlns="http://www.w3.org/2000/svg"><g clip-path="url('#clip0_867_2926')"><path d="M38.754 32.82H22.258V3.927h16.496v28.891Z" fill="#FF5F00"/><path d="M23.302 18.374c0-5.86 2.816-11.081 7.2-14.445A19.085 19.085 0 0 0 18.852 0C8.44 0 0 8.226 0 18.374 0 28.522 8.44 36.75 18.852 36.75a19.086 19.086 0 0 0 11.65-3.929c-4.384-3.364-7.2-8.585-7.2-14.446Z" fill="#EB001B"/><path d="M61.008 18.374c0 10.148-8.44 18.375-18.852 18.375a19.092 19.092 0 0 1-11.652-3.929c4.386-3.364 7.202-8.585 7.202-14.446 0-5.86-2.816-11.081-7.202-14.445A19.091 19.091 0 0 1 42.156 0c10.412 0 18.852 8.226 18.852 18.374" fill="#F79E1B"/></g><defs><clipPath id="clip0_867_2926"><path fill="#fff" d="M0 0h61v37H0z"/></clipPath></defs></svg>