<svg width="39" height="33" fill="none" xmlns="http://www.w3.org/2000/svg"><g clip-path="url('#clip0_867_2911')" fill-rule="evenodd" clip-rule="evenodd" fill="#F1BB00"><path d="M38.981 32.028c-.171-8.258-1.517-16.206-3.789-22.38C32.902 3.43 30.043.004 27.145.004c-1.802 0-3.493 1.296-5.031 3.854-.953 1.586-1.84 3.67-2.612 6.121-.774-2.451-1.66-4.535-2.614-6.121C15.35 1.3 13.658.004 11.858.004 8.957.004 6.1 3.429 3.81 9.648 1.54 15.822.193 23.77.021 32.028L0 32.997h5.82l.012-.936c.226-17.253 4.381-28.196 6.074-28.196 1.14 0 4.054 7.578 4.496 26.338l.023.924h6.153l.022-.924c.441-18.76 3.356-26.339 4.496-26.339 1.693 0 5.847 10.943 6.074 28.196l.012.937H39l-.019-.969Z"/><path d="M38.539 32.038c-.17-8.211-1.508-16.106-3.763-22.233C32.589 3.86 29.806.448 27.143.448c-2.916 0-5.661 4.006-7.643 11.068C17.518 4.456 14.771.449 11.854.449c-2.662 0-5.445 3.41-7.633 9.355C1.966 15.931.63 23.827.46 32.038l-.01.512h4.934l.005-.495C5.62 14.571 9.796 3.42 11.904 3.42c1.806 0 4.526 9.303 4.937 26.772l.013.49h5.291l.012-.49c.41-17.468 3.133-26.772 4.937-26.772 2.109 0 6.286 11.152 6.515 28.636l.006.495h4.934l-.01-.511Z"/><path d="M11.802 1.938v.986C8.925 3.222 5.105 15.95 4.895 32.05l-1.957-1.981v-.05c.621-15.786 4.972-27.954 8.864-28.08Z"/><path d="M11.704.959h.334c2.886.192 5.632 5.028 7.46 12.499v14.437c-.712-14.912-3.884-25.96-7.633-25.96-.774 0-1.566.48-2.345 1.373V1.916c.728-.587 1.462-.915 2.184-.957Zm16.752 1.418v1.384c-.465-.55-.924-.844-1.359-.844-2.777 0-5.072 11.87-5.434 27.264l-2.158-2.186v-.034c.705-14.945 3.88-26.026 7.635-26.026.434 0 .875.152 1.316.442Z"/><path d="M38.037 31.816v.227l-1.962-1.985-.009.008c-.571-14.652-4.356-26.2-8.007-27.911v-1.05c4.676 1.534 9.598 14.498 9.977 30.711Z"/></g><defs><clipPath id="clip0_867_2911"><path fill="#fff" d="M0 0h39v33H0z"/></clipPath></defs></svg>