<svg width="153" height="50" fill="none" xmlns="http://www.w3.org/2000/svg"><path d="M62.359 25.08c-5.02 0-8.37 3.642-8.37 8.643 0 4.784 3.062 7.79 7.936 7.79 3.172 0 5.65-1.456 6.561-2.85l-.458-.494c-.999 1.258-3.152 2.177-5.355 2.177-3.938 0-6.296-3.066-6.296-7.633 0-4.4 2.294-6.87 6.054-6.87 2.906 0 4.583 1.38 5.404 4.086h.506l-.168-4.67h-.483c-.176.329-.477.472-.916.472-1 0-1.918-.65-4.415-.65ZM5.888 3.608v.471c.88.165 2.162.373 2.074 2.178l-.53 9.586c-.118 2.049-.741 2.8-2.268 2.963v.472h5.404v-.472C8.923 18.533 8.453 18 8.54 15.977l.483-9.63 5.403 12.818h.676l5.283-12.818.506 10.259c.089 1.587-.377 2.064-1.64 2.2v.472h6.079v-.472c-1.499-.136-2.083-.787-2.171-2.671l-.507-9.81c-.058-1.422.585-2.026 1.906-2.134v-.494H20.36l-4.969 12.056-5.066-12.145H5.888Zm30.08 0v.471c1.822.137 1.93.49 1.93 4.535v5.41c0 4.374-.194 4.646-1.93 4.782v.472H42v-.472c-1.91-.244-1.905-.373-1.905-5.074v-.875l.796-.83c1.997 2.296 4.144 4.818 6.465 7.25h9.552v-.47c-1.645-.109-1.688-.08-1.688-3.525v-5.77h-3.932v.471c1.702.056 1.905.14 1.905 2.874v2.402c0 3.436-.038 3.468-1.833 3.547-.94-.082-1.88-.327-4.849-3.525-1.144-1.258-3.033-3.374-4.149-4.714l3.595-3.727c1.761-1.805 2.72-2.705 4.366-2.76v-.472h-5.645v.471c.734.137 1.013.384 1.013.876 0 .328-.071.905-1.158 1.998l-4.438 4.557V8.57c0-4.018.2-4.273 1.905-4.49v-.472h-6.03Zm18.141.628c-.764 0-1.327.548-1.327 1.257 0 .712.563 1.258 1.327 1.258s1.35-.546 1.35-1.258c0-.709-.586-1.257-1.35-1.257ZM41.831 26.27c-1.585 0-3.233.92-3.233 2.941 0 .767.259 1.468.7 2.29-2.174.628-3.33 2.383-3.33 4.378 0 3.636 2.973 5.612 6.32 5.612 2.086 0 3.731-.615 5.26-1.818.938.63 1.877 1.24 2.436 1.459h3.618v-.472c-1.176-.108-2.946-1.004-4.824-2.29.674-1.038.837-2.539 1.013-3.659.149-.956.902-.933 1.4-.988v-.426h-4.753v.426c1.116.137 2.195.273 2.195 1.886 0 .848-.143 1.693-.555 2.268-4.17-3.035-8.008-7.236-8.008-9.34 0-1.04.674-1.526 1.76-1.526 1.352 0 2.64.828 3.257 2.47h.458l-.048-2.942h-.482c-.028.192-.222.315-.338.315-.588 0-1.405-.584-2.846-.584ZM75.289 9.31c-2.173 0-3.426 1.259-3.426 2.761 0 3.281 6.031 2.62 6.031 5.298 0 .902-.91 1.437-2.436 1.437-1.499 0-2.775-.742-3.185-2.492h-.627c0 .712.119 2.025.266 2.245.412.629 2.092.965 3.473.965 2.496 0 4.029-1.35 4.029-2.963 0-3.609-5.983-3.04-5.983-5.365 0-.82.793-1.235 1.761-1.235 1.968 0 2.84 1.693 3.016 2.267h.458c0-1.421-.17-2.316-.29-2.424-.117-.11-1.619-.494-3.087-.494Zm11.048 0c-3.056 0-5.114 2.265-5.114 5.41 0 2.459 1.352 4.827 4.993 4.827 1.497 0 3.297-.562 4.294-1.572l-.241-.471a6.248 6.248 0 0 1-3.064.808c-2.908 0-4.116-2.432-4.028-4.647h7.333c.118-2.241-1.149-4.355-4.173-4.355ZM75.361 31.164c-3.291 0-5.62 2.225-5.62 5.096 0 1.914.819 3.503 2.315 4.378.883.518 2.024.74 3.257.74 3.26 0 5.596-2.193 5.596-5.118 0-1.886-.817-3.459-2.315-4.333-.881-.52-2-.763-3.233-.763ZM31.458 9.377c-3.144 0-5.5 2.625-5.5 5.523 0 2.296 1.38 4.647 4.993 4.647 1.497 0 3.296-.561 4.294-1.572l-.241-.471a6.263 6.263 0 0 1-3.064.808c-2.908 0-4.004-2.286-4.004-4.692 0-1.12.29-1.931.82-2.424.498-.466 1.202-.629 1.906-.629 1.027 0 2.211.374 3.063 1.414l.193-.022c.324-.382.645-1.153.676-1.729-.735-.546-1.844-.853-3.136-.853Zm34.037 0c-1.352 0-2.773.6-3.86 1.886V9.512h-3.932v.471c1.703.055 1.906.14 1.906 2.874v2.402c0 3.47-.008 3.465-1.857 3.547v.472h5.596v-.472c-1.647-.108-1.713-.08-1.713-3.525v-2.649c0-.903 1.333-2.02 2.92-2.02 1.29 0 2.315.523 2.315 2.873v1.954c0 3.254-.118 3.285-1.616 3.367v.472h5.5v-.472c-1.85-.082-1.858-.113-1.858-3.367V13.26c0-2.952-1.727-3.884-3.401-3.884Zm24.002 21.855c-1.44 0-2.844.845-3.667 1.885v-1.75h-3.932v.47c1.706.055 1.906.14 1.906 2.874v2.784c0 3.145-.048 3.14-1.81 3.165v.472h5.55v-.472c-1.557-.136-1.714-.139-1.714-3.255v-2.828c0-1.012 1.38-2.11 2.847-2.11 1.586 0 2.267.82 2.267 2.76v1.976c0 3.227-.076 3.376-1.543 3.457v.472h5.21v-.472c-1.733-.136-1.689-.278-1.689-3.367v-2.739c0-.984 1.339-2.088 2.895-2.088 1.323 0 2.171.74 2.171 2.762v2.244c0 2.953-.016 3.08-1.544 3.188v.472h5.525v-.472c-1.909-.081-1.834-.322-1.834-3.165v-2.537c0-2.707-1.575-3.726-3.425-3.726-1.672 0-3.036.876-4.005 2.132-.412-1.339-1.445-2.132-3.208-2.132Zm20.094 0a4.84 4.84 0 0 0-3.618 1.593v-1.459h-3.836v.472c1.616.054 1.81.146 1.81 3.345v6.667c0 3.473.084 3.735-1.737 3.817v.471h5.62v-.471c-1.996-.053-1.857-.36-1.857-3.996v-1.325c.793.738 2.045 1.033 3.16 1.033 3.172 0 5.162-2.211 5.162-5.164 0-2.842-1.974-4.984-4.704-4.984Zm10.252 0c-1.146 0-2.828.384-3.739 1.122.059.464.503 1.366.796 1.639l.266-.045c.469-1.066 1.271-1.841 2.533-1.841 1.381 0 1.954.91 1.954 1.976v1.122c0 .738-3.507.877-4.946 1.998-.499.41-.868.929-.868 1.639 0 1.531 1.164 2.537 2.895 2.537 1.086 0 2.022-.335 2.991-1.347.147.71.782 1.1 1.809 1.1H131.446v-.472c-1.645-.107-1.712-.08-1.712-3.524v-2.65c0-.903 1.334-2.02 2.919-2.02 1.293 0 2.315.523 2.315 2.874v1.953c0 3.254-.119 3.286-1.616 3.367v.472h5.5v-.472c-1.852-.081-1.857-.113-1.857-3.367v-2.178c0-2.952-1.726-3.884-3.402-3.884-1.35 0-2.773.6-3.859 1.886v-1.75h-3.932v.47c1.703.055 1.905.14 1.905 2.874v2.402c0 3.471-.031 3.466-1.881 3.547h-.434c-1.469 0-1.641-.461-1.641-2.402v-3.277c0-.628-.072-1.197-.217-1.662-.5-1.53-1.841-2.088-3.691-2.088ZM91.017 9.646v.471c1.203.055 1.303.213 2.919 3.547l2.75 5.658c-.94 2.24-2.412 3.457-5.38 4.085.149.465.698 1.28.99 1.527 3.907-1.476 4.674-3.885 6.054-7.52l2.075-5.523c.469-1.258 1.221-1.774 1.954-1.774v-.471h-3.788v.471c.912.055 1.39.525 1.038 1.482l-2.027 5.545-1.954-4.288c-.526-1.175-.723-1.633-.723-2.043 0-.383.226-.612.989-.696v-.471h-4.897ZM138.104 31.5v.471c1.204.055 1.328.213 2.943 3.547l2.726 5.658c-.941 2.241-2.412 3.457-5.379 4.086.147.465.696 1.28.989 1.526 3.908-1.476 4.675-3.885 6.055-7.52l2.098-5.523c.469-1.258 1.197-1.774 1.93-1.774v-.471h-3.787v.471c.912.055 1.414.526 1.061 1.482l-2.026 5.545-1.978-4.288c-.529-1.174-.724-1.633-.724-2.043 0-.383.227-.612.989-.696v-.471h-4.897ZM85.927 10.118c1.643 0 2.649 1.002 2.677 2.806h-5.403c.176-1.804 1.052-2.806 2.726-2.806ZM75.072 31.972c1.88 0 3.739 1.693 3.739 4.917 0 2.27-1.077 3.66-3.281 3.66-1.909 0-3.69-1.632-3.69-4.94 0-2.35 1.203-3.637 3.232-3.637Zm-35.388.247c1.47 2.433 4.213 5.015 7.092 6.982-.883.63-2.367.808-3.57.808-3.085 0-5.525-2.03-5.525-4.736 0-1.695.797-2.753 2.003-3.054Zm68.967.247c2.171 0 3.521 1.509 3.521 3.996 0 2.542-1.137 4.176-3.28 4.176-1.381 0-2.919-.727-2.919-1.684v-4.849c0-.82 1.268-1.639 2.678-1.639Zm13.002 3.66v2.694c0 .82-1.159 1.481-2.099 1.481-.881 0-1.616-.517-1.616-1.639 0-1.994 2.218-1.771 3.715-2.536Z" fill="#24477F"/></svg>