<svg width="99" height="26" fill="none" xmlns="http://www.w3.org/2000/svg"><g clip-path="url('#clip0_1744_3223')" fill-rule="evenodd" clip-rule="evenodd" fill="#2B5692"><path d="M78.328 1.78c0-.76-.696-1.435-1.564-1.435H74.59c-.87 0-1.566.675-1.566 1.435l.087 22.64c0 .76.609 1.435 1.479 1.435h2.173c.868 0 1.564-.675 1.564-1.435V1.78Zm2.782.676V3.47c0 .507.348.845.87.845h15.3c.695 0 1.304-.591 1.304-1.267V1.274c0-.675-.609-1.351-1.304-1.267 0 0-14.78 1.436-15.3 1.52-.523 0-.87.423-.87.929Zm-12.43 23.4c-3.826 0-6.174-2.788-6.174-5.914v-9.039h-1.13c-.522 0-1.043-.506-1.043-1.014V8.37c0-.591.52-1.013 1.043-1.013h1.13V1.78c0-.76.61-1.436 1.478-1.436h2.172c.784 0 1.391.676 1.391 1.436v5.576h3.391c.609 0 1.043.421 1.043 1.012V9.89c0 .508-.433 1.014-1.043 1.014h-3.39v8.364c0 1.604 1.043 2.787 2.869 2.787h.348c.607 0 1.13.422 1.13 1.099v1.605c0 .591-.522 1.098-1.13 1.098h-2.086ZM42.598 16.31c0-4.815-2.956-9.63-9.65-9.63-6.172 0-9.562 4.731-9.562 9.63 0 5.237 3.65 9.883 9.649 9.883 4.086 0 8.085-2.027 8.867-5.49.087-.422-.26-1.098-.87-1.098h-2.955c-.521 0-.956.254-1.217.676-.87 1.182-2.086 1.773-3.825 1.773-2.608 0-4.347-1.943-4.521-4.139h12.431c1.132 0 1.653-.591 1.653-1.605Zm-13.997-2.027c.174-2.111 2.086-3.717 4.347-3.717 2.348 0 4.26 1.606 4.52 3.717h-8.867Zm70.503 2.027c0-4.815-2.956-9.63-9.65-9.63-6.172 0-9.561 4.731-9.561 9.63 0 5.237 3.65 9.883 9.65 9.883 4.084 0 8.084-2.027 8.866-5.49.087-.422-.261-1.098-.869-1.098h-2.956a1.423 1.423 0 0 0-.703.178c-.214.118-.391.29-.514.498-.869 1.182-2.086 1.773-3.912 1.773-2.52 0-4.26-1.943-4.433-4.139h12.43c1.132 0 1.652-.591 1.652-1.605ZM85.11 14.283c.174-2.111 2.087-3.717 4.347-3.717 2.347 0 4.26 1.606 4.434 3.717h-8.78Z"/><path d="M58.333.599H18.17c-.957 0-1.653.76-1.653 1.604l.087 15.375S7.998 2.372 7.563 1.612C7.128.852 6.172.176 4.955.176H1.65C.695.176 0 .936 0 1.78v22.47c0 .93.695 1.605 1.651 1.605h2.086c.957 0 1.652-.676 1.652-1.606L5.302 8.54s8.693 15.289 9.128 15.88c.435.844 1.304 1.436 2.52 1.436h3.043c.957 0 1.652-.676 1.652-1.606V4.4H58.33c.608 0 1.13-.507 1.13-1.098V1.697c.002-.592-.52-1.098-1.128-1.098Z"/><path d="M51.813 10.397c1.738 0 3.042.59 3.564 1.69.174.506.608.59 1.217.59h2.434c.348 0 .869-.338.869-.844 0-2.704-3.39-5.153-8.084-5.153-4.869 0-8.085 2.28-8.085 5.828 0 2.788 2.26 4.393 4.955 5.153 1.304.254 3.477.76 4.52 1.098 1.044.254 2.086.592 2.086 1.522 0 1.52-1.564 1.943-3.39 1.943-1.651 0-3.303-.677-3.738-1.86-.261-.675-.782-.76-1.478-.76H44.25c-.435 0-.956.423-.956.93v.337c0 2.62 3.651 5.322 8.694 5.322 3.477 0 8.432-1.435 8.432-5.997 0-2.704-1.825-4.562-4.868-5.322-1.13-.254-3.912-1.014-4.521-1.098-1.13-.338-2.174-.675-2.174-1.52.001-1.437 1.306-1.859 2.957-1.859Z"/></g><defs><clipPath id="clip0_1744_3223"><path fill="#fff" d="M0 0h99v26H0z"/></clipPath></defs></svg>