<svg width="125" height="34" fill="none" xmlns="http://www.w3.org/2000/svg"><path d="m29.474 25.51-2.127-15.182h-.076L25.089 25.51h-4.483L23.62 8.364h7.315l2.998 17.146h-4.46Zm21.566 0-.099-14.889h-.072l-2.638 14.89h-4.208l-2.625-14.89h-.075l-.096 14.89h-4.17l.362-17.147h6.707l1.953 12.737h.095l1.958-12.737h6.704l.36 17.146H51.04Zm19.635-3.323c-.449 3.322-3.546 3.902-5.736 3.902-3.635 0-5.883-1.632-5.883-4.953l.002-1.354h4.404l.003 1.687c0 .916.615 1.477 1.565 1.477.847 0 1.343-.357 1.515-1.09.08-.343.113-.841-.028-1.218-.812-2.132-6.532-3.177-7.227-6.636-.16-.784-.171-1.45-.04-2.292.484-3.136 3.35-3.787 5.656-3.787 2.063 0 3.564.473 4.465 1.419.671.706 1.011 1.675 1.011 2.88v1.238h-4.118v-1.092c0-.934-.552-1.475-1.44-1.475-.787 0-1.263.368-1.42 1.09-.05.287-.043.58.02.863.442 1.902 6.562 3.064 7.232 6.556.086.446.205 1.402.019 2.785Zm15.252-1.558c.006.322-.023.965-.04 1.13-.251 2.825-2.175 4.26-5.703 4.26-3.541 0-5.467-1.435-5.716-4.26a14.34 14.34 0 0 1-.04-1.126V8.36h4.212v12.66a3.4 3.4 0 0 0 .036.637c.052.282.319 1.196 1.508 1.196 1.186 0 1.452-.915 1.508-1.192.024-.15.038-.37.038-.642V8.36h4.197v12.27Zm18.153 4.707h-5.863l-3.935-13.581h-.066l.218 13.58h-4.086V8.366h6.109l3.637 13.045h.085l-.215-13.046h4.116v16.972ZM114.031 25.841c.191 0 .37-.02.555-.03 3.048 0 4.27-1.419 4.5-2.128.385-.59.63-1.282.7-2.1.051-.579.055-.811.057-1.126v-4.621h-5.844v2.598h1.653v2.412c.001.175-.003.426-.039.637-.019.122-.231 1.195-1.596 1.195-1.375 0-1.587-1.073-1.608-1.195a3.683 3.683 0 0 1-.035-.637V13.06c0-.314.02-.597.064-.794.077-.359.383-1.194 1.564-1.194 1.197 0 1.488.833 1.557 1.193.046.236.052.613.052.635v1.01h4.2v-.677c0-.156.005-.628-.039-1.07-.327-3.523-3.308-4.256-5.74-4.256-3.142 0-5.408 1.242-5.752 4.253-.033.28-.068.822-.068 1.131l-.001 7.164c.001.323.01.56.057 1.127.269 3.116 2.86 4.258 5.763 4.258ZM16.67 9.261c-.866-.908-2.293-1.371-4.217-1.415-3.658 0-5.284 1.728-5.64 2.593a4.673 4.673 0 0 0-.37 1.215c-.131.85-.118 1.523.04 2.313.71 3.514 6.476 4.529 7.3 6.702.147.384.112.887.031 1.228-.173.742-.674 1.105-1.531 1.105-.905 0-1.57-.53-1.57-1.49l-.002-1.71H6.253l-.003 1.372c0 2.899 1.717 5.001 5.943 5.001 3.028 0 5.406-1.097 5.792-3.94.188-1.389.069-2.36-.02-2.813-.671-3.526-6.845-4.712-7.29-6.623a2.22 2.22 0 0 1-.017-.871c.155-.73.637-1.102 1.419-1.102.93 0 1.455.57 1.455 1.49v1.105h4.159v-1.25c0-1.219-.343-2.197-1.02-2.91Z" fill="#1428A0"/></svg>