<svg width="151" height="203" fill="none" xmlns="http://www.w3.org/2000/svg"><path d="M151.746 76.956c-3.191 35.835-27.505 62.457-27.505 62.457s-40.855 73.214-72.405 44.494C20.285 155.188 74.539 91.58 69.409 89.074c-5.13-2.505-51.864 17.078-66.457-12.118C-11.642 47.758 30.115 2.194 78.989.918c48.874-1.276 75.949 40.202 72.757 76.037Z" fill="#B68DFF"/><path d="M93.034 185.802c20.648 9.508 25.844 33.99 10.649 54.131-15.196 20.141-32.368 20.422-54.131 10.648-21.764-9.774-22.656-36.242-10.649-54.131 12.008-17.888 33.483-20.156 54.131-10.648Z" fill="#B68DFF"/></svg>