<svg width="148" height="30" fill="none" xmlns="http://www.w3.org/2000/svg"><path fill-rule="evenodd" clip-rule="evenodd" d="M143.618 23.448a2.233 2.233 0 0 0-.851.152 2.19 2.19 0 0 0-1.21 1.165 2.123 2.123 0 0 0 .486 2.364c.207.2.454.358.724.463.271.106.56.158.851.152a2.22 2.22 0 0 0 1.547-.632c.203-.2.363-.437.473-.698.109-.261.165-.54.163-.823a2.125 2.125 0 0 0-.639-1.515 2.187 2.187 0 0 0-1.544-.628Zm0 4.038a1.955 1.955 0 0 1-1.365-.555 1.862 1.862 0 0 1-.414-2.062 1.896 1.896 0 0 1 1.042-1.02 1.955 1.955 0 0 1 2.094.41 1.864 1.864 0 0 1 .562 1.332 1.877 1.877 0 0 1-.559 1.338 1.922 1.922 0 0 1-1.36.557Z" fill="#000"/><path fill-rule="evenodd" clip-rule="evenodd" d="M144.74 25.029c0-.203-.092-.416-.275-.518-.184-.107-.39-.118-.596-.118h-1.067v2.401h.299v-1.107h.551l.698 1.107h.356l-.74-1.107c.437-.012.774-.186.774-.659Zm-1.181.427h-.459v-.85h.699c.304 0 .637.046.637.417.001.49-.533.433-.877.433ZM130.781 13.42l4.477-4.69c.26-.344.389-.585.389-.791 0-.344-.302-.482-1.251-.482h-1.13v-2.96h12.226v2.96h-1.606c-1.855 0-2.2.275-4.789 3.476l-7.082 7.504v4.578c0 1.172.603 1.584 2.329 1.584h2.674v2.856h-17.124V24.6h2.674c1.724 0 2.329-.412 2.329-1.584v-4.578l-8.342-9.053c-1.378-1.583-1.188-1.927-5.025-1.927v-2.96h15.486v2.96h-1.103c-1.122 0-1.597.206-1.597.619 0 .345.345.62.561.895l4.22 4.512c.501.512 1.113.578 1.684-.063ZM26.877 4.496h3.736v8.261h-3.45c-.306-1.65-1.36-2.293-2.32-3.16-1.733-1.562-5.486-2.863-8.643-2.863-4.074 0-7.513 1.24-7.513 3.063 0 5.06 23.301 1.033 23.301 10.602 0 4.991-4.991 7.78-13.954 7.78-3.103 0-7.798-.945-10.569-2.389-.868-.492-1.237.466-1.4 1.666h-3.83v-8.537H5.7c.764 2.169 1.816 2.616 2.785 3.477 1.68 1.514 5.679 2.617 9.346 2.581 5.53-.053 7.43-1.239 7.43-2.96 0-1.721-1.88-2.134-7.939-3.063l-5.145-.827c-5.805-.86-10.032-2.134-10.032-6.677 0-4.716 5.347-7.677 13.802-7.677 3.563 0 6.544.467 9.405 2.054.792.505 1.535.566 1.525-1.33Zm72.904 13.832.073-9.182c0-1.205-.638-1.617-2.464-1.617h-2.144V4.672h13.645v2.857h-1.779c-1.826 0-2.465.413-2.465 1.617v18.485l-5.34-.042L82.01 11.521v11.67c0 1.17.639 1.617 2.464 1.617h2.374v2.823H72.68v-2.823h2.347c1.826 0 2.465-.448 2.465-1.618V9.146c0-1.205-.64-1.617-2.465-1.617h-2.348V4.672H84.93l14.85 13.656ZM54.075 3.6c-10.874 0-17.68 4.717-17.68 12.288 0 7.436 6.712 12.117 17.349 12.117 11.298 0 17.87-4.612 17.87-12.495 0-7.09-7.091-11.91-17.539-11.91Zm-.247 21.411c-6.019 0-9.479-3.408-9.479-9.294 0-5.748 3.61-9.156 9.78-9.156 5.919 0 9.379 3.477 9.379 9.397 0 5.783-3.51 9.053-9.68 9.053Z" fill="#000"/></svg>