<svg width="148" height="45" fill="none" xmlns="http://www.w3.org/2000/svg"><path d="M22.713.262C10.581.262.73 10.227.73 22.5s9.851 22.238 21.983 22.238c12.131 0 21.983-9.941 21.983-22.238 0-12.273-9.852-22.238-21.983-22.238Zm10.063 32.06c-.4.643-1.247.857-1.881.453-5.15-3.187-11.662-3.9-19.303-2.14a1.39 1.39 0 0 1-1.645-1.047c-.165-.738.282-1.499 1.034-1.665 8.37-1.927 15.564-1.094 21.348 2.473a1.41 1.41 0 0 1 .447 1.927Zm2.703-6.04a1.704 1.704 0 0 1-2.35.57c-5.925-3.662-14.93-4.733-21.913-2.592-.917.285-1.857-.238-2.14-1.165a1.728 1.728 0 0 1 1.153-2.165c7.97-2.45 17.915-1.26 24.686 2.95.8.523 1.058 1.593.564 2.402Zm.235-6.303c-7.1-4.258-18.785-4.662-25.532-2.569a2.053 2.053 0 0 1-2.563-1.38c-.329-1.094.282-2.259 1.364-2.592 7.758-2.378 20.666-1.926 28.824 2.973.987.595 1.293 1.855.729 2.854-.588.976-1.858 1.308-2.822.714Zm24.804.809c-3.785-.904-4.467-1.57-4.467-2.902 0-1.285 1.176-2.14 2.962-2.14 1.717 0 3.41.641 5.196 1.997.047.048.118.048.188.048.071 0 .118-.048.165-.096l1.857-2.64c.071-.118.047-.261-.047-.332-2.116-1.713-4.49-2.545-7.288-2.545-4.09 0-6.96 2.497-6.96 6.04 0 3.806 2.47 5.162 6.748 6.209 3.621.856 4.232 1.546 4.232 2.83 0 1.403-1.246 2.283-3.244 2.283-2.21 0-4.02-.761-6.042-2.521a.265.265 0 0 0-.188-.071c-.07 0-.118.047-.165.095l-2.069 2.497c-.094.095-.07.262.024.357 2.35 2.117 5.242 3.235 8.37 3.235 4.42 0 7.264-2.45 7.264-6.208-.023-3.235-1.904-4.995-6.536-6.136.024 0 0 0 0 0Zm16.505-3.782c-1.905 0-3.48.76-4.773 2.33v-1.76c0-.142-.118-.261-.235-.261h-3.41c-.14 0-.234.119-.234.262v19.527c0 .142.117.261.235.261h3.409c.141 0 .235-.119.235-.261v-6.16c1.293 1.474 2.868 2.188 4.773 2.188 3.55 0 7.147-2.76 7.147-8.063.023-5.304-3.597-8.063-7.147-8.063Zm3.197 8.063c0 2.687-1.645 4.566-3.997 4.566-2.327 0-4.067-1.974-4.067-4.566 0-2.617 1.763-4.567 4.067-4.567 2.328 0 3.997 1.927 3.997 4.567Zm13.19-8.063c-4.585 0-8.159 3.567-8.159 8.11 0 4.495 3.574 8.04 8.112 8.04 4.584 0 8.181-3.544 8.181-8.087 0-4.52-3.573-8.063-8.134-8.063Zm0 12.677c-2.445 0-4.28-1.974-4.28-4.614 0-2.64 1.764-4.543 4.21-4.543 2.444 0 4.302 1.974 4.302 4.614 0 2.616-1.787 4.543-4.232 4.543Zm17.915-12.368h-3.738v-3.853c0-.143-.118-.262-.235-.262h-3.409a.262.262 0 0 0-.259.262v3.877h-1.622c-.141 0-.235.119-.235.261v2.95c0 .142.117.261.235.261h1.622v7.635c0 3.092 1.528 4.662 4.514 4.662 1.223 0 2.234-.262 3.174-.809a.251.251 0 0 0 .117-.214v-2.83a.251.251 0 0 0-.117-.214.211.211 0 0 0-.235 0 4.264 4.264 0 0 1-1.999.475c-1.081 0-1.575-.5-1.575-1.617v-7.111h3.738c.141 0 .235-.12.235-.262v-2.95c.024-.142-.07-.261-.211-.261Zm13.025.024v-.476c0-1.403.541-2.022 1.716-2.022.705 0 1.27.143 1.905.357.07.024.164.024.211-.024.071-.047.094-.118.094-.214V12.06c0-.12-.07-.214-.164-.238-.682-.214-1.529-.405-2.822-.405-3.127 0-4.796 1.784-4.796 5.162v.737h-1.622a.263.263 0 0 0-.259.262v2.973c0 .142.118.261.259.261h1.622v11.797c0 .143.118.262.259.262h3.385a.263.263 0 0 0 .259-.262v-11.82h3.174l4.867 11.796c-.541 1.237-1.105 1.475-1.834 1.475-.588 0-1.223-.19-1.881-.547-.071-.024-.141-.047-.188-.024a.211.211 0 0 0-.141.143l-1.152 2.545a.275.275 0 0 0 .117.333c1.199.666 2.281.951 3.621.951 2.516 0 3.903-1.189 5.125-4.376l5.901-15.412a.282.282 0 0 0-.023-.238.247.247 0 0 0-.212-.119h-3.526c-.118 0-.212.071-.235.166l-3.621 10.466-3.973-10.465c-.047-.096-.118-.167-.235-.167l-5.831.024Zm-7.547-.024h-3.409a.263.263 0 0 0-.259.262V32.56c0 .142.118.261.259.261h3.409a.263.263 0 0 0 .259-.261V17.577c-.024-.143-.118-.262-.259-.262Zm-1.693-6.826a2.457 2.457 0 0 0-2.445 2.473c0 1.356 1.082 2.474 2.445 2.474 1.364 0 2.445-1.118 2.445-2.474a2.457 2.457 0 0 0-2.445-2.473Zm29.765 11.654c-1.34 0-2.398-1.094-2.398-2.426s1.058-2.426 2.398-2.426 2.398 1.094 2.398 2.426c0 1.308-1.058 2.426-2.398 2.426Zm.023-4.614c-1.222 0-2.163.975-2.163 2.188s.917 2.188 2.14 2.188c1.222 0 2.163-.975 2.163-2.188s-.917-2.188-2.14-2.188Zm.517 2.426.682.951h-.564l-.611-.88h-.517v.88h-.471v-2.52h1.129c.588 0 .964.309.964.808-.024.404-.259.666-.612.761Zm-.399-1.142h-.611v.81h.611c.305 0 .494-.144.494-.405 0-.262-.189-.405-.494-.405Z" fill="#1ED760"/></svg>