<svg width="122" height="37" fill="none" xmlns="http://www.w3.org/2000/svg"><path d="M18.722.215C8.722.215.602 8.409.602 18.5c0 10.09 8.12 18.285 18.12 18.285 10 0 18.121-8.175 18.121-18.285 0-10.091-8.12-18.285-18.12-18.285Zm8.295 26.361c-.33.528-1.027.704-1.55.372-4.245-2.62-9.613-3.207-15.912-1.76a1.146 1.146 0 0 1-1.356-.86c-.136-.607.232-1.233.852-1.37 6.9-1.583 12.83-.9 17.598 2.034.543.352.698 1.056.368 1.584Zm2.229-4.967c-.407.665-1.28.88-1.938.47C22.424 19.066 15 18.186 9.245 19.946c-.756.235-1.53-.196-1.763-.958a1.42 1.42 0 0 1 .95-1.78c6.57-2.014 14.767-1.036 20.349 2.425.659.43.872 1.31.465 1.975Zm.194-5.182c-5.853-3.5-15.485-3.833-21.047-2.112A1.693 1.693 0 0 1 6.28 13.18a1.714 1.714 0 0 1 1.124-2.132c6.396-1.956 17.035-1.584 23.76 2.444a1.728 1.728 0 0 1 .601 2.347c-.484.802-1.53 1.076-2.325.587Zm20.446.665c-3.12-.743-3.682-1.291-3.682-2.386 0-1.056.969-1.76 2.442-1.76 1.414 0 2.81.528 4.283 1.643.039.039.097.039.155.039.058 0 .097-.04.135-.079l1.532-2.17c.058-.098.038-.215-.04-.274-1.743-1.408-3.7-2.093-6.007-2.093-3.372 0-5.737 2.054-5.737 4.968 0 3.129 2.035 4.243 5.562 5.104 2.985.704 3.489 1.27 3.489 2.327 0 1.154-1.027 1.877-2.675 1.877-1.821 0-3.314-.625-4.98-2.073a.219.219 0 0 0-.155-.058c-.058 0-.097.039-.136.078l-1.706 2.053c-.077.078-.058.215.02.294 1.938 1.74 4.322 2.66 6.9 2.66 3.643 0 5.988-2.015 5.988-5.105-.02-2.66-1.57-4.107-5.388-5.045.02 0 0 0 0 0Zm13.605-3.11c-1.57 0-2.868.626-3.934 1.917v-1.447c0-.118-.097-.216-.194-.216h-2.81c-.116 0-.194.098-.194.216v16.055c0 .117.097.215.194.215h2.81c.116 0 .194-.098.194-.215v-5.065c1.066 1.213 2.364 1.8 3.934 1.8 2.927 0 5.892-2.27 5.892-6.63.02-4.361-2.965-6.63-5.892-6.63Zm2.636 6.63c0 2.21-1.357 3.755-3.295 3.755-1.918 0-3.353-1.624-3.353-3.755 0-2.151 1.454-3.755 3.353-3.755 1.919 0 3.295 1.584 3.295 3.755Zm10.872-6.63c-3.779 0-6.725 2.934-6.725 6.669 0 3.696 2.946 6.61 6.687 6.61 3.779 0 6.744-2.914 6.744-6.65 0-3.715-2.946-6.629-6.706-6.629Zm0 10.424c-2.015 0-3.527-1.623-3.527-3.794 0-2.17 1.454-3.735 3.47-3.735 2.015 0 3.546 1.623 3.546 3.793 0 2.152-1.473 3.736-3.489 3.736Zm14.768-10.17h-3.081v-3.168c0-.117-.097-.215-.194-.215h-2.81a.216.216 0 0 0-.213.215v3.188H84.13c-.116 0-.194.098-.194.215v2.425c0 .117.097.215.194.215h1.338v6.278c0 2.542 1.26 3.833 3.72 3.833 1.008 0 1.842-.215 2.617-.665a.206.206 0 0 0 .097-.176v-2.327a.206.206 0 0 0-.097-.176.175.175 0 0 0-.194 0 3.522 3.522 0 0 1-1.647.39c-.892 0-1.299-.41-1.299-1.33v-5.846h3.082c.116 0 .194-.098.194-.215v-2.425c.019-.118-.058-.216-.175-.216Zm10.737.02v-.391c0-1.154.446-1.662 1.415-1.662.581 0 1.046.117 1.57.293.058.02.135.02.174-.02.058-.039.078-.097.078-.176V9.915c0-.098-.059-.176-.136-.196-.562-.176-1.26-.332-2.326-.332-2.577 0-3.953 1.466-3.953 4.243v.606h-1.338a.216.216 0 0 0-.213.216v2.444c0 .117.097.215.213.215h1.338v9.7c0 .117.097.215.213.215h2.791a.216.216 0 0 0 .213-.215v-9.72h2.616l4.012 9.7c-.446 1.017-.911 1.213-1.512 1.213-.484 0-1.008-.157-1.55-.45-.058-.02-.116-.039-.155-.02a.178.178 0 0 0-.117.118l-.949 2.092a.225.225 0 0 0 .097.274c.988.548 1.88.782 2.984.782 2.074 0 3.217-.977 4.225-3.598l4.865-12.672a.234.234 0 0 0-.02-.196.202.202 0 0 0-.174-.098h-2.907c-.097 0-.175.06-.194.137l-2.985 8.605-3.275-8.605c-.039-.078-.097-.136-.194-.136l-4.806.02Zm-6.221-.02h-2.81a.216.216 0 0 0-.213.216v12.32c0 .117.096.215.213.215h2.81a.216.216 0 0 0 .213-.215v-12.32c-.02-.118-.097-.216-.213-.216Zm-1.395-5.612c-1.105 0-2.016.9-2.016 2.034 0 1.115.891 2.034 2.016 2.034 1.124 0 2.015-.92 2.015-2.034 0-1.134-.91-2.034-2.016-2.034Zm24.535 9.582c-1.105 0-1.977-.9-1.977-1.994 0-1.095.872-1.995 1.977-1.995s1.977.9 1.977 1.995c0 1.075-.872 1.994-1.977 1.994Zm.02-3.793c-1.008 0-1.783.801-1.783 1.799 0 .997.755 1.799 1.763 1.799s1.783-.802 1.783-1.8c0-.997-.756-1.798-1.763-1.798Zm.426 1.994.562.782h-.465l-.504-.723h-.426v.723h-.388v-2.072h.93c.485 0 .795.254.795.664a.65.65 0 0 1-.504.626Zm-.33-.938h-.503v.664h.503c.252 0 .407-.117.407-.332 0-.215-.155-.332-.407-.332Z" fill="#1ED760"/></svg>